<svg xmlns="http://www.w3.org/2000/svg" xmlns:xlink="http://www.w3.org/1999/xlink" aria-hidden="true">
<symbol id="ag-book" viewBox="0 0 747.3 886.8"><defs> <style> .cls-1 { fill: #fff; } </style> </defs> <!-- Generator: Adobe Illustrator 28.7.1, SVG Export Plug-In . SVG Version: 1.2.0 Build 142) --> <g> <g id="Layer_2"> <g id="Layer_1-2"> <g> <path d="M76.5,25V.1h17.2c214,0,428,0,641.9,0,1.7,0,3.4-.2,5,.1,4.2.7,6.7,2.2,6.7,7.6-.5,60.3-.9,120.6-.9,181,0,102.2.2,204.3.3,306.4,0,81.2,0,162.3,0,243.5v40.3h-27.4v5.2c0,24,.2,48,.1,72,0,4.2,1.5,5.1,5.2,5,7.3-.2,14.6,0,22.2,0v25.8H53.3c-.7-8.2-1.4-16.2-2.2-25-8.3-.6-16.6-1.2-25.7-1.8v-27.9H0V82.1c6.7,0,12.8,0,19,0,4.3,0,6.7-1.2,6.4-6.3-.5-6.8-.1-13.6-.1-21,8.5-.6,16.5-1.2,25.5-1.8v-26.5c9-.5,17.1-1,25.8-1.6h0ZM720.3,752.3V26.6H116.1v347.4c0,121.8,0,243.6,0,365.5,0,2.8.7,5.6.7,8.4s1.9,4.5,5.4,4.5c17.5,0,35,.6,52.4.5,38.5,0,77-.6,115.4-.5,59,.1,117.9.9,176.9.9s119-.6,178.4-.9c23-.1,46,0,69,0h5.8ZM693.2,778c-203.9,1-407.2,1.9-611.5,2.9v25.7h-25v29.8h21c2.4,0,4.2.4,4.3,3.5.1,4,.7,7.9,1,11.9.4,7.4.4,7.7,7.6,7.8,19.3.4,38.6.6,58,.7,66.6.2,133.3.4,199.9.5,111.5,0,223,0,334.4,0h10.2v-82.7h0ZM23.8,660.6h53.4c0-9.1,0-17.2,0-25.3,0-3.3-2.1-3.5-4.7-3.5-14.5-.2-29-.4-43.4-.7-1.8,0-3.5,0-5.3,0v29.5h0ZM77.5,161c0-7.8-.2-15.1,0-22.4.1-3.7-1-4.8-4.8-4.8-15.1-.1-30.2-.6-45.4-.9-1.3,0-2.5.2-3.7.3v27.8h53.8,0Z"/> <path class="cls-1" d="M693.2,778v82.7h-10.2c-111.5,0-223,0-334.4,0-66.6,0-133.3-.2-199.9-.5-19.3,0-38.7-.3-58-.7-7.2-.2-7.2-.4-7.6-7.8-.2-4-.8-7.9-1-11.9-.1-3.1-1.9-3.5-4.3-3.5-6.8,0-13.6,0-21,0v-29.8h25v-25.7c204.2-1,407.6-1.9,611.5-2.9h0Z"/> <path d="M234.4,683.7v13.9h-22.5v-101.7h22.4v57.8h11v-13.8h11.3v13.9h11.1v-57.8h22.4v101.6h-22.1v-13.9c-3.8-.2-7.2-.4-11.3-.6v-14.1h-11.1v14.1c-4,.2-7.4.4-11.3.5h0Z"/> <path d="M485.7,212.1v14c3.9.2,7.3.4,11,.6v28.8h-10.5v29.4h10.7v14.5h11.2v14.5h-21.9v-14c-4-.2-7.6-.4-11.7-.6v-14.3h-10.9v-14.4h-11.1v28.5h10.5v14.6h-44.3v-14.1c3.4-.1,6.8-.3,10.6-.5v-72.8h-10.7v-14.2h67.1ZM474.1,226.7h-21.6v28.6h21.6v-28.6Z"/> <path d="M484.6,610.3h-10.6v-14.3h55.9v14.1h11.2v14.8h11.1v43.7c-3.5.2-7,.3-10.9.5v14.5h-11.2v14.2h-56.1v-14.1c3.5-.2,6.9-.3,10.6-.5v-72.8h0ZM518.6,683.2v-14.3h11v-44h-11.2v-14.2h-10.5v72.6h10.7Z"/> <path d="M512.9,171.1v-13.9h22.2v28.5h-78.2v-14.1c3.5-.2,7-.4,10.8-.6v-72.7h-10.7v-14.4h78.3v28.8h-22.4v-14.2h-22v29h21.8v14.6h-21.8v28.9h22,0Z"/> <path d="M535.3,541.3v28.5h-78.3v-14.1c3.4-.2,6.8-.3,10.6-.5v-72.9h-10.7v-14.2h78.3v28.6h-22.1v-14h-22.1v28.9h21.8v14.6h-21.9v28.8h21.8v-13.6h22.7,0Z"/> <path d="M425.6,468h22.5v101.7h-22.1v-43.1h-22.3v43.1h-22.2v-101.7h21.8v43.3h22.3v-43.3h0Z"/> <path d="M448.2,185.8h-22.3v-43.3h-22.3v43.2h-22.1v-101.7h21.8v43.2h22.5v-43.3h22.5v101.7h0Z"/> <path d="M265.5,226.1h-10.6v-14.1h67.3v14c3.9.2,7.3.3,11,.5v28.6c-3.5.2-6.9.3-10.8.5v14.5h-33.6v29.1h10.4v14.5h-44.4v-14.2h10.6v-73.4h0ZM289,226.5v29.2c6.6,0,13.2,0,19.8-.1.7,0,2-1.4,2-2.1.1-8.9,0-17.9,0-27h-21.9Z"/> <path d="M359.1,354.1v-14h33.8v14h11.3v14.6h10.9v43.9h-10.5v14.6c-3.9.2-7.3.3-11.4.5v14.1h-33.8v-14c-3.8-.2-7.2-.4-11.2-.6v-14.1c-4-.2-7.5-.3-11.2-.5v-43.6h10.9v-14.4c3.9-.2,7.3-.3,11.3-.5h0ZM392.6,369h-11.1v-14.4h-11.2v14.6h-10.8v43.8h11v14h11.1v-14.2h11v-43.8h0Z"/> <path d="M321.1,697.7v-14c-3.8-.2-7.2-.4-11.1-.6v-14c-3.9-.2-7.3-.4-11-.6v-43.4c3.4-.2,6.8-.3,10.9-.5v-14.2h11.2v-14.4h33.8v14.1h11.2v14.8h11.1v43.7c-3.5.2-7,.3-10.9.5v14.5h-11.2v14.2h-34ZM321.7,625.1v44h11v13.8h11.1v-13.8c3.9-.2,7.3-.3,10.8-.5v-43.7h-11.1v-14.2h-11.2v14.4h-10.6Z"/> <path d="M409.2,683.5h-11.2v-14.6h-10.9v-43.9h10.8v-14.5h11.1v-14.4h34v14.3h11.3v14.4h11v43.8c-3.4.2-6.8.3-10.8.5v14.4h-11.2v14.2h-34v-14.2h0ZM409.6,669.2h11.2v13.9h11v-14.2h10.8v-44h-11.2v-14.3h-10.8v14.5h-11v44.1Z"/> <path d="M424.2,340h78v28.8h-22.3v-14.2h-22.1v29h21.8v14.6h-21.7v29.2h10.6v14.4h-44.5v-14.3h10.7v-72.8h-10.5v-14.6h0Z"/> <path d="M179.4,226.4h10.8v-14.4h44.9v14.2h11.1v14.6h-22.2v-14.2h-22.1v14.1h10.8v14.9h11.3v14.3h22.2v29.3c-3.6.2-7,.3-10.7.5v14h-44.9v-14c-3.8-.2-7.1-.3-10.9-.5v-14h21.8v13.7h22.3v-13.8c-3.5-.2-6.8-.3-10.7-.5v-14.2h-22.5v-14.6c-3.9-.2-7.3-.3-11-.5v-28.8h0Z"/> <path d="M561.4,639.2v-28.6c3.6-.2,7-.3,10.8-.5v-14h45v14c3.9.2,7.3.3,11,.5v14.1h-22.2v-14.1h-22.1v14.1h10.6v14.6c4,.2,7.4.4,11.3.6v14h22.5v29.3c-3.5.2-6.9.3-10.7.5v13.9h-45v-13.9c-3.9-.2-7.3-.3-11-.5v-13.9h21.9v13.7h22.3v-14c-3.4-.2-6.8-.3-10.7-.5v-14.1h-22.3v-14.7c-3.9-.2-7.3-.3-11.2-.5h0Z"/> <path d="M342.4,226.5v-14.5h66.8v14.2h-21.8v72.9h21.8v14.6h-66.7v-14.4h21.6v-72.9h-21.7,0Z"/> <path d="M584.3,212v14.1h-21.8v73.1h21.7v14.5h-66.7v-14.3h21.5v-73.1h-21.5v-14.4h66.7Z"/> <path d="M637.2,313.9h-22.7v-87.2h-11v14.1h-11v-28.7h66.6v28.7h-10.7v-14.2h-11.2v87.3h0Z"/> <path d="M351.2,569.9h-22.7v-87.2h-11v14.1h-11v-28.7h66.6v28.7h-10.7v-14.2h-11.2v87.3h0Z"/> <path d="M351.1,185.9h-22.7v-87.2h-11v14.2h-11v-28.7h66.7v28.8h-10.6v-14.3h-11.4v87.3h0Z"/> </g> </g> </g> </g></symbol>
<symbol id="ag-cat" viewBox="0 0 484.87 642.85"><g id="Layer_1-2" data-name="Layer_1"> <path d="M40.97,603.23H.06v-190.39h40.56v-76h37.43v-39.49h-37.2v-39.07H0V.05h40.07v35.58h38.88v36.67h153.57v-36.33h36.25V0h41.86v258.11h-41.38v39.08h-35.71v39.45h35.43v75.91h41.94v149.34h32.75v-38.24h36.6v-110.38h-36.26v-116.48h36.76v-36.29h69.19v36.93h34.92v38.7h-68.37v76.4h35.36v150.39h-35.44v40.09h-37.75v39.85H40.97v-39.62Z"/> </g></symbol>
<symbol id="ag-door" viewBox="0 0 719.84 722.61"><g id="Layer_1-2" data-name="Layer_1"> <g> <path d="M28.55,589.09v37.52h96.84v-37.02c-1.97,0-3.9,0-5.83,0-28,0-56-.15-84,.14-5.18.05-6.78-1.7-6.66-6.43.14-5.5-.01-11-.01-16.5,0-31.17,0-62.33,0-93.5,0-1.94.18-3.89.29-6h28.79v-64.44h-28.81v-120.14c7.65,0,15.11-.29,22.52.1,4.95.27,6.59-1.07,6.54-6.31-.26-27.5-.12-55-.12-82.5q0-7.01,6.78-7.01c8.48,0,16.96,0,26.21,0,0-2.08,0-3.83,0-5.59,0-15.67.09-31.33-.06-47-.04-3.97.96-5.65,5.32-5.51,9.26.31,18.55.1,28.25.1v59.45h64.49c0-7.67,0-15.41,0-23.15q0-8.3,8.11-8.3c7.12,0,14.24,0,21.79,0v-32.91h53.16v-60.46h-84.04c0-9.99-.14-19.44.21-28.87.04-.97,2.99-2.62,4.61-2.63,16.16-.2,32.33-.12,48.5-.12,9.98,0,19.96,0,30.73,0,0-8.21,0-16.13,0-24.04Q272.17,0,279.93,0c54,0,108,0,162,0,1.99,0,3.98,0,6.64,0v31.96h82.68v31.42h-82.2v60.43h51.65v33.2c6.95,0,13.37-.08,19.77.02,12.92.2,10.84-1.24,11.22,11.26.17,5.49.31,10.98.55,16.47.06,1.29.46,2.56.73,3.95h63.58v-60.34h32.36v60.49h31.77c0,2.27,0,4.19,0,6.11,0,26.17.01,52.33.02,78.5,0,6.83,2.05,9.06,8.97,9.22,6.8.16,13.6.03,20.71.03v119.66h-29.25v63.76c9.56.62,19.12,1.24,29.37,1.9v120.85h29.35v133.7c-1.9,0-3.68,0-5.47,0-235.66,0-471.32,0-706.98-.02-7.94,0-7.29,1.01-7.29-7.15-.01-40,.07-80-.1-120-.02-4.87.99-6.84,6.32-6.46,7.24.52,14.55.13,22.24.13ZM158.09,279.57v347.04h95.74V186.99h-34.42v30.01h-30.84v62.57h-30.48ZM531.35,279.55v-62.73h-31.59v-29.96h-33.49v439.73h96.53v-347.04h-31.46ZM287.14,158.07v467.55h57.28V158.07h-57.28ZM433.98,625.82V158.15h-56.96v467.68h56.96ZM508.9,658.56H206.02v34.05h302.88v-34.05ZM417.51,96.37V30.89h-112.41v65.48h112.41ZM691.79,658.66h-150.69v34.03h150.69v-34.03ZM28.93,692.65h144.73v-34.2H28.93v34.2ZM125.89,497.93H57.94v62.19h67.95v-62.19ZM661.77,560.11v-62.11h-65.77v62.11h65.77ZM125.52,372.04v-60.47H57.77v60.47h67.75ZM661.89,311.92h-66.92v59.62h66.92v-59.62ZM596.12,589.71v37h94.62v-37h-94.62ZM91.09,217.33v65.07h34.62v-29.25h32.21v-35.82h-66.83ZM628.89,217.43h-65.88v35.73h32v29.08h33.88v-64.8ZM125.42,468.79v-65.08h-34.35v65.08h34.35ZM595.87,403.76v62.82h32.91v-62.82h-32.91Z"/> <path d="M124.13,96.77h31.55v30.75c-9.8,0-19.52.07-29.22-.14-.8-.02-2.2-1.98-2.23-3.07-.18-8.95-.1-17.9-.1-27.54Z"/> <path d="M187.35,95.58h-29.99v-31.28h29.99v31.28Z"/> <path d="M532.15,95.52c0-9.75-.07-19.35.13-28.95.02-.85,1.83-2.36,2.84-2.38,8.96-.19,17.92-.11,27.22-.11v31.44h-30.19Z"/> <path d="M594.92,96.66v30.8h-30.55v-30.8h30.55Z"/> <path d="M529.66,379.03h26.74v58.14h-25.42v-28.19h-31.11v28.17h-25.45v-58.03h23.85v-29.41c10.03,0,19.16-.15,28.27.2,1.1.04,2.92,2.83,2.98,4.4.31,7.96.14,15.94.14,24.72Z"/> <path d="M500.68,467.33v-28.88h29.52v28.88h-29.52Z"/> </g> </g></symbol>
<symbol id="ag-entrance" viewBox="0 0 623.31 692.35"><g id="Layer_1-2" data-name="Layer_1"> <g> <path d="M127.6,114.06h22.98v24.17h46.37v-23.3c8.03-.5,15.47-.96,23.26-1.44v-22.86c-7.38.36-14.7.72-22.54,1.1v-22.83h-47.08v22.39h-21.34v-23.86h22.18v-21.88h48.14v-23.25h44.26v21.59h-20.13v22.95h21.99v24.76h47.96V21.69h-47.57V0h135.07v20.62c-5.53,0-11,0-16.46,0-14.67,0-29.33.01-44,0-2.78,0-5.21-.15-5.17,4.02.17,21.5.09,43,.12,64.49,0,.81.18,1.61.31,2.68h66.56v-24.26h22.73v-22.65h-22.36v-22.79c5.53,0,10.78,0,16.04,0,8.33,0,16.67.13,25-.07,3.35-.08,4.34,1.13,4.24,4.34-.2,6.14-.06,12.28-.06,18.87,14.84.55,29.36,1.09,44.19,1.63v21.07h-43.3v23.77h-21.55v22.2h22.2v23.29h44.5v-22.75h22.12v-21.07h21.04v44.96h-20.49v22.06h-43.65v22.85h20.56v23.39h45.37v-68.02h23.25v68.24h22.82v113.93h-45.81v48.4h46.73v112.16h-46.6v48.53h46v91.76h25.91c-.68,15.79-1.33,31.04-2,46.82h33.91v23.86H0v-23.59h35.97v-47.02h24.36v-91.36h46.41v-48.44h-45.8v-112.76h45.68v-48.33h-45.61v-113.7h21.82v-68.12h23.06v67.77h45.33v-22.69h23.94v-22.93h-47.03v-21.99c-6.26-.45-12.03-.68-17.73-1.42-1.38-.18-3.6-2.05-3.62-3.17-.25-13.63-.16-27.27-.16-40.94,6.54,0,12.65-.13,18.74.16.8.04,2.08,2.22,2.14,3.45.24,5.31.1,10.63.1,16.79ZM58.67,668.02h507.37c.36-7.95.7-15.56,1.05-23.57H60.2c-.53,8.12-1.02,15.66-1.53,23.57ZM475.54,230.61v68.2h68.29v-70.08c-22.89.63-45.42,1.25-68.29,1.88ZM544.07,390.92h-68.31v68.7h68.31v-68.7ZM83.44,297.95c22.57.52,44.72,1.03,67,1.54v-70.16h-67v68.62ZM543.94,620.99v-68.38h-68.35v68.38h68.35ZM83.48,390.89v67.61h66.97v-67.61h-66.97ZM83.1,620.09h66.78v-67.56h-66.78v67.56ZM475.64,368.87h22.35v-47.75h-22.35v47.75ZM475.46,529.04h22.42v-46.8h-22.42v46.8ZM130.16,529.3h20.44v-47.78h-20.44v47.78ZM150.61,368.9v-45.56h-20.47v45.56h20.47Z"/> <path d="M496.04,91.7h-21.56v-23.01h21.56v23.01Z"/> </g> </g></symbol>
<symbol id="ag-fawn" viewBox="0 0 582.48 798.73"><g id="Layer_1-2" data-name="Layer_1"> <g> <path d="M551.72,286.57v127.7h-31.68v-97.33h-32.09v-30.14h-33.45v31.41h-31.43v-30.16h-36.27v31.3h-33.25v31.35h-32.4v-31.83c-10.91,0-21.51-.09-32.11.17-.89.02-2.43,2.39-2.46,3.69-.21,9.32-.11,18.64-.11,27.94h-31.47v-33.12h-31.77v-31.78h-31.14v-94.88c8.94,0,18.03.07,27.12-.03,3.73-.04,3.24,2.46,3.24,4.77,0,17.33,0,34.66,0,51.99,0,1.81,0,3.63,0,6.39h31.92v31.98h133.26v-30.16h131.76v-64.65h32.77v31.05h30.32v64.46c-10.33,0-20.6,0-30.87,0v-30.41h-31.69v30.29h31.8Z"/> <path d="M254.27,670.25c.27,14.31.57,28.63.78,42.94.1,6.82.02,13.65.02,21.11h-32.49v64.43h-61.39v-32.24h29.69v-193.67h-31.66v161.47h-30.08v30.83h-31.25v-58.35c8.13-.31,16.37-.71,24.62-.9,6.36-.15,6.38-.04,6.37-6.6-.09-49.81-.19-99.63-.29-149.44,0-1.83,0-3.66,0-5.98h31.19v-96.18h31.71v30.59h30.92v193.16c10.51,0,20.47.02,30.42-.05.52,0,1.03-.67,1.55-1.02,0,0-.11-.1-.11-.1Z"/> <path d="M387.98,670.81v-127.73h34.42v-31.99h-33.09v-31.82h-35.73v30.57h-31.64v-32.3h-35.41v192.72c-10.82,0-21.54,0-32.26,0,0,0,.11.1.1.09.09-5.63.27-11.26.28-16.88.09-67.81.15-135.62.23-203.42,0-1.3.13-2.6.23-4.47h132.83v-30.4h33.25v64.16h32.19v31.32h33.89v32.46l.09-.1h-33.53v63.28h-32.23v64.38c-11.65,0-22.72,0-33.8,0,0,0,.17.15.17.15Z"/> <path d="M487.29,543.11c1.73-.41,3.45-1.14,5.19-1.16,8.44-.12,16.88-.06,25.86-.06v66.07c11.42,0,22.31,0,33.2,0,0,0-.17-.17-.17-.17v60.23h-32.24v96.9h-32.15v33.17h-31.17v-63.31h31.75c.13-1.7.33-3.13.33-4.56.01-60.95.01-121.9-.02-182.84,0-1.47-.3-2.93-.47-4.39,0,0-.1.11-.1.11Z"/> <path d="M159.18,446.96h-30.66v-65.22h-31.27v-128.27H33.14v-63.16h31.17v32.7h94.84v29.76h-30.27v128.92h30.31v65.27Z"/> <path d="M64.69,30.79h31.85v33.4h123.52v31.77h-123.86v94.33c-10.18,0-19.46.08-28.73-.04-3.41-.05-2.55-2.89-2.56-4.89-.04-17.66-.02-35.31-.02-52.97,0-1.79,0-3.58,0-5.81h-31.63v-30.4h62.22v-32.04h-30.63V30.63l-.15.15Z"/> <path d="M255.19,190.1h-31.71c-.76-31.05-1.5-61.79-2.26-92.9h63.7V31.59h-31.64V.44h63.86v96.82h-31.11v29.52h-32.75c.64,21.3,1.27,42.02,1.91,63.32Z"/> <path d="M551.36,607.8s.17.17.17.17c-.22-2.13-.63-4.26-.63-6.38-.04-28.65-.03-57.3-.03-85.95,0-1.79,0-3.58,0-5.64h-31.9v-31.41h-30.7v-62.87h31v62.66h32.89v31.78h29.59v97.63h-30.39Z"/> <path d="M64.85,30.63H30.63v65.75H0V0h64.69c0,10.56,0,20.67,0,30.78,0,0,.15-.15.15-.15Z"/> <path d="M354.44,734.31v-63.5c11.48,0,22.51,0,33.54,0,0,0-.17-.15-.16-.15-.12,16.42-.26,32.84-.37,49.27-.03,4.78,0,9.56,0,14.24h-33.1l.1.15Z"/> <path d="M354.33,734.17v31.84h-32.08v-31.67c10.75,0,21.48,0,32.2-.01,0-.01-.11-.16-.11-.16Z"/> <path d="M387.42,510.58v30.85h-33.03c0-9.59-.1-18.85.15-28.11.02-.94,2.06-2.6,3.19-2.62,9.78-.21,19.57-.12,29.69-.12Z"/> <path d="M487.26,351.55v30.43h-32.04v-30.43h32.04Z"/> <path d="M319.04,414.23h-30.84v-30.82h30.84v30.82Z"/> <path d="M389.16,352.35h32.13v29.79h-32.13v-29.79Z"/> <path d="M221.28,32.05h30.4c0,9.51.08,18.6-.12,27.69-.02.91-1.71,2.53-2.65,2.55-9.07.19-18.15.12-27.62.12v-30.36Z"/> <path d="M159.1,158.4h-30.13v-29.24h30.13v29.24Z"/> </g> </g></symbol>
<symbol id="ag-frame" viewBox="0 0 679.36 809.93"><defs> <style> .cls-1 { fill: #fff; } </style> </defs> <g id="Layer_1-2" data-name="Layer_1"> <g> <path d="M266.84,722.89h-24.02v-19.3h-21.2v21.93h15.35v20.34h-31.17v-20.3h-19.32v42.85h-21.55v22.42h-47.08v19.08H41.44v-19.34h-21.57v-19.31H.73v-97.2h20.76c.44-7.86.83-14.78,1.25-22.26h17.75v-20.96h20.89v-34.48c-4.51-.43-9-.86-14.01-1.34v19.13c-6.19,0-11.97.18-17.72-.16-1.04-.06-2.77-2.23-2.81-3.47-.26-7.65-.13-15.32-.13-23.64h13.63v-14.82h21.16v-17.18h16.26v-92.22h-12.33v10.72c-.92.48-1.2.74-1.49.75q-17.13.96-17.23-15.65c0-1.48,0-2.96,0-5.04h-16.69v-26.03h-14.06v-40.58h13.74v-33.36h15.98c0-5.11-.03-9.71,0-14.32.09-11.37-.84-9.22,9.69-9.43,2.45-.05,4.9,0,7.78,0v12.37h14.61v-84.59h-14.76c-.47-7.15-.89-13.72-1.33-20.45h-21.71c-.25-4.34-.5-8.73-.77-13.57h-12.9c0-4.86,0-9.26,0-13.66,0-4.67.16-9.34-.04-14-.13-3.14.76-4.58,4.16-4.45,5.44.21,10.9.06,16.8.06v20.94h14.09v-34.09h-21.88v-20.51c-6.05-.59-11.6-1.14-17.75-1.74v-18.72H0V40.13h20.54v-20.23h20.95V.03h75.07v19.39h48.55v21.31h21.1v39.59h19.36v-20.19h31.67v19.94h-15.58v21.2h20.9v-20.49h24.03v-41.59h28.61v-17.65c7.92-.35,15.34-.68,23.36-1.03V0h43.56v21.89h25.86v17.55h23.69v40.67h24.48v21.3h22.2v-21.98h-16.4v-20.33h33.2v20.99h19.34v-39.18h20.87v-21.5h44.79V.07h77.09v19.84c6.96.34,13.48.66,20.43,1v20.21h21.35v97.04h-20.81c0,5.05-.13,9.5.05,13.94.12,2.86-.56,4.23-3.79,4.28-4.48.07-8.95.73-14.03,1.2v20.6h-21.38v34.44h13.51v-21.55h19.51v30.01c-3.9.28-7.65.54-11.81.84v14.37h-21.7v20.8h-16.97v84.81h12.81v-11.85h18.95v22.59h15.91c0,3.91-.04,7.48,0,11.05.08,6.33.31,12.66.28,18.98-.01,2.93.92,4.27,4.04,4.07,3.3-.21,6.63-.05,10.3-.05v41.6c-3.14,0-6.25.08-9.36-.02-3.63-.13-5.44.89-5.14,5.14.43,6.11.11,12.26.11,18.97h-16.09v20.72h-17.65v-10.51h-14.11v91.89h16.43v17.02h20.99v15.07c4.6.49,8.66.91,13.06,1.38v25.2h-19.4v-18.57h-14.13v36.36h19.75c.32,6.17.82,11.79.82,17.41,0,3.3,1.2,4.48,4.38,4.38,4.32-.14,8.65-.03,13.28-.03.58,7.19,1.12,13.89,1.7,21.01,6.73.39,13.32.76,20.82,1.19v95.88h-19.18c-.34,6.43-.67,12.66-1.02,19.34h-20.74v19.81h-76.98v-19.34h-45.73v-22.17h-20.91v-42.75h-21.06v20.22h-31.8v-20.06h16.44v-22.2h-21.95v20.14h-24.7v43.53h-24.36v15.91h-24.02v21.73h-45.67v-21.4h-22.78v-14.59h-27.39c0-7.1-.02-14.03,0-20.97.03-7.33.14-14.66.12-21.99,0-1.07-.56-2.13-.84-3.18,7.52.42,15.02.82,22.48,1.21v-20.42h-21.02c0,5.24.1,10.18-.07,15.11-.05,1.4-.88,2.78-1.35,4.16ZM583.8,433.76h25.17v-16.73h20.38v-30.84h-20.76v-18.38h-24.59v-147.5h17.57v-20.74h-20.42v19.85h-13.52v154.44h15.7v17.76h15.59v20.78h-15.7v20.79h-16.15v153.91h15.44v19.5h19.87v-21.01h-18.29c-.22-1.37-.37-1.85-.37-2.33.02-49.83.05-99.66.08-149.49ZM97.71,586.68h15.57v-153.09h-15.67v-21.47h-16.55v-20.69h16.6v-17.2c5.47-.29,10.53-.56,15.59-.82v-154.27h-14.9v-19.44h-19.72v21.08h17.85v147.66h-25.33v17.96h-20.98v31.13h21.11v17.18c6.02,0,11.64-.04,17.25,0,10.37.09,8.69-.99,8.71,8.76.1,47.65.12,95.3.16,142.95h-18.81v22.11c6.3-.37,12.28-.73,19.1-1.13v-20.72ZM545.97,623.46V185.65h18.3v-28.54h-22.84v-34.97h-19.41v-21.1h19.5v-39.68h18.9v-19.29h-30.88v18.66h-15.38v38.73h-20.06v22.32h-124.52v-22.65c-6.3.38-12.14.73-18.53,1.12v20.77h-21.42v-21.09h-18.29v22.56h-124.86v-21.8c-6.48-.44-12.52-.85-19.39-1.32v-38.51h-16.73v-18.51h-33.48v19.47h21.72v39.26h19.25v21.39h-19.49v34.07h-22.45v29.4h18.02v437.97h-17.65v27.95h23.16v32.66h18.44v22.93h-18.77v41.18h-21.53v19.11h32.17v-18.69c5.88-.36,11.13-.67,16.95-1.03v-43.53h19.51v-23.68h124.3v22.49h19.42v-22.47c5.84,0,11.16.22,16.46-.07,3.79-.21,4.97,1.17,4.83,4.84-.23,5.92-.06,11.85-.06,17.78h18.6v-22.71h123.73v24.71c7.1.36,13.69.7,20.91,1.07v42.58h15.03v18.65h31v-19.45h-18.86v-40.93h-19.54v-23.69h19.74v-32.06h22.65v-26.99c-6.18-.36-12.12-.71-18.45-1.08ZM583.74,770.18v19.15h36.03v-17.82c6.5-.42,12.57-.8,18.5-1.18v-20.9h17.06v-55.32h-19.12v-21.32h-20.67v-20.75h-23.15v-22.5c-3.08-.34-5.66-.62-8.93-.97v44.62h-21.02v57.96h39.87v-22.37h-18.28v-27.66h22.46v16.77h17.51v51.51h-23.9c.45,7.2.86,13.75,1.3,20.78h-17.66ZM22.73,694.37v55.46h18.43c.4,7.57.77,14.6,1.16,22.04h18.17v17.54h35.93v-20.04c-6.31.31-12.33.6-18.98.92v-20.54h-22.37v-52.2h17.77v-16.82h22.14v28.78h-17.44c0,6.62-.13,12.61.11,18.59.05,1.21,1.47,3.38,2.28,3.4,12.43.22,24.87.15,37.38.15v-58.89h-20.67v-43.05h-7.75v22.07h-24.81v21.22h-19.98v21.37h-21.35ZM563.17,79.95v55.84h20.21v43.02c3.38-.36,6.1-.66,9.32-1.01v-21.24h24.13v-20.63h19.21v-19.3h19.26v-55.51c-5.77.3-11.13.58-17.09.89v-20.67c-7.16-.51-13.73-.98-20.7-1.49v-19.18h-33.69v20.96h16.15v18.46h24.04v53.32h-17.93v15.89h-22.05v-27.47h17.38v-21.9h-38.23ZM42.45,115.86v21.15h22.05v20.74h24.96v20.62h7.45v-42.91h19.34v-55.02h-38.54v21.62h17.37v27.36h-22.48v-16.26h-17.8v-52.59h22.95v-19.14h17.83c.42-7.04.82-13.62,1.23-20.44h-36.48v18.15c-6.63.49-12.67.93-19.04,1.4v20.15c-6.37.6-12.43,1.18-18.62,1.77v53.39h19.8ZM268.66,80.17v20.83h21.21v-19.48h22.53v-20.59h-21.73c-.51,6.48-1.01,12.83-1.52,19.23h-20.49ZM410.45,80.69h-20.64v-19.22h-21.21v19.26c7.24.43,14.17.85,21.86,1.31v18.14h19.99v-19.49ZM330.61,21.49v39.92h19.65V21.49h-19.65ZM350.45,743.6h-19.79v38.78h19.79v-38.78ZM290.63,722.6v20.1c6.72,0,13.03.15,19.32-.14,1.15-.05,3.15-1.92,3.17-2.96.07-5.6-.37-11.21-.65-17h-21.84ZM367.49,741.58h22v-18.96h-22v18.96ZM410.49,703.65h-19.96v18.78h19.96v-18.78Z"/> <path class="cls-1" d="M367.49,741.58v-18.96h22v18.96h-22Z"/> <path class="cls-1" d="M410.49,703.65v18.78h-19.96v-18.78h19.96Z"/> <path d="M157.62,143.86h364.7v515.81H157.62V143.86ZM501.42,165.66H177.83v470.77h323.59V165.66Z"/> </g> </g></symbol>
<symbol id="ag-helmet" viewBox="0 0 648.16 829.82"><defs> <style> .cls-1 { fill: #fff; } </style> </defs> <g id="Layer_1-2" data-name="Layer_1"> <g> <path d="M648.16,396.79h-17.53v36.85h-18.04v17.9h-18.76v36.26h-18.31v35.4h-17.68v36.36h-17.93v36.2h-17.18v19.22h16.53v17.04h18.02v19.01h18.03v18.12h18.11v54.39h-17.8v17.09h-17.99v18.11h-17.77v17.87h-18.32v18.09h-18.41v18.16h-16.73v16.97h-54.39v-16.9h-51.58v-18.08h-54.42v-18.5h-53.08v-17.42h-53v-17.95h-36.29v-17.03h-55.6v-18.96h-37.02v-17.86h-54.95v-18.11H0v-54.73h17.99v-17.95h16.76v-18.05h19.02v-17.85h17.62c.21-1.66.51-2.91.51-4.16.03-15.33-.09-30.67.11-46,.05-3.92-1.18-5.46-5.11-5.25-3.97.22-7.97.05-12.39.05v-71.62h-18.91v-36.49h-17.91v-107.74h17.51v-89.83h19.04v-56.09h18.46v-35.98h18.02v-18.02h17.87v-17.83h18.05v-18.06h18v-17.95h38.62v-19.16h58.4V0h133.97v15.98h53.01v19.11h37.53v17.93h17.56v18.11h18.61v17.96h19.03v17.94h17.98v35.98h17.97v37.03h18.01v35.95h18.22v37.15h18.77v53.9h18.01v37.02h17.84v52.74ZM71.95,307.23h18.19v71.69c-6.01.34-11.74.67-17.39.99v16.85h36.33v-125.17h17.55v17.78h17.82v6.09c0,37.49,0,74.98,0,112.47q0,6.85-6.74,6.86c-9.6,0-19.21,0-28.98,0v55.48h17.83v54.01h18v36.01h19v17.99h37v18.05h18.89c0,4.64.33,8.66-.08,12.59-.51,4.89,1.26,6.32,6.08,6.13,9.24-.36,18.51-.11,28.21-.11v17.72h54.98v17.87h160.02c0-4.88.16-9.38-.05-13.85-.15-3.09,1.13-4.2,4.04-4.16,4.57.07,9.15.02,13.65.02v-18.9h-123.95v-17.98h-36.15c-.28-6.21-.54-11.82-.8-17.42l-.12.12c12.15-.38,24.31-1.05,36.46-1.08,51.33-.13,102.67-.07,154-.08,1.92,0,3.85,0,6.18,0v-35.79h18.05v-36.3h17.97v-35.02h18.02v-37.01h18.12v-18.19h18.76v-35.57h17.44v-18.29h-357.53v-17.27h-34.92v-18.65h355.62v-54.5h-17.81v-36.03h-18.03v-17.39h-249.34v17.71h-106.63v17.88h-111.26v18.02c-4.94,0-9.27.28-13.55-.08-4.19-.36-5.1,1.5-5.07,5.2.08,10.33-.1,20.66-.18,30.99h-18.21v18.02h-17.58v36.47h17.76v18.41h18.41v-72.57ZM375.88,35.12h-134.62v17.91h-58.74v17.93h-18.82v18.7h-37.48v36.31h-17.91v36.01h-17.56v72.79h18.09v-18.6h92.86v-18.14h106.22v-17.9h213.65v-18.45h-17.84v-35.47c-6.47-.54-12.52-1.05-19.13-1.61v-17.91h-18.34v-18.12h-18.61v-17.79h-18.1v-18.11h-53.69v-17.55ZM540.55,723.71v-17.72h17.02v-18.91h-35.89v-17.96h-35.3v18.2h-36.04v17.16h-34.65v-17.47h-107.86v-18.23h-70.39v-18.49h-35.97v-18.53h-18.38v-18.05h-19.41v-17.66h-55.35v17.88h-35.99v17.87c-5.43,0-10.25-.19-15.05.13-1.3.09-3.5,1.67-3.57,2.68-.36,5.25-.17,10.54-.17,16.43h37.11v18.27h35.92v18.11h56.17v17.94h36.87v17.91h52.03v18.6h54.7v17.34h53.27v17.65h107.45v-17.9h16.96v-17.45h18.04v-17.8h18.49Z"/> <path class="cls-1" d="M71.95,307.23v72.57h-18.41v-18.41h-17.76v-36.47h17.58v-18.02h18.21c.13.11.26.22.39.33Z"/> <path d="M255.2,270.5v35.91h-34.99v-35.91h34.99Z"/> <path d="M307.97,541.38v-35.75h35.44v35.75h-35.44Z"/> <path d="M451.22,505.44h34.95v35.94h-34.95v-35.94Z"/> <path d="M308.13,397.46h35.23v35.04h-35.23v-35.04Z"/> <path d="M557.17,288.57h-35.01v-35.2h35.01v35.2Z"/> <path d="M325.19,270.47v35.93h-34.51v-35.93h34.51Z"/> <path d="M451.14,397.44h34.94v35.03h-34.94v-35.03Z"/> <path d="M273.12,451.42h34.97v35.06h-34.97v-35.06Z"/> <path d="M380.24,505.48h33.93v35.89h-33.93v-35.89Z"/> <path d="M557.11,432.53h-34.01v-35.12h34.01v35.12Z"/> <path d="M522.13,486.48h-34.55v-34.97h34.55v34.97Z"/> <path d="M432.13,253.46h34.31v34.92h-34.31v-34.92Z"/> <path d="M380.3,397.32h33.75v35.11h-33.75v-35.11Z"/> <path d="M345.03,451.45h34v34.93h-34v-34.93Z"/> <path d="M450.01,486.66h-33.75v-35.1h33.75v35.1Z"/> <path d="M396.18,253.65v34.74h-33.94v-34.74h33.94Z"/> <path d="M182.2,433.3h-37.05v-17.98h37.93c-.35,6.27-.67,12.16-1,18.05l.12-.06Z"/> <path d="M238.04,487.65c5.57.29,11.13.58,17.94.93-.59,11.96-1.19,23.87-1.77,35.77,0,0,.14-.11.14-.11-5.43-.25-10.86-.49-16.22-.74v-35.93l-.08.08Z"/> <path d="M325.39,578.24c-8.96-.15-17.91-.31-26.87-.45-2.13-.03-4.26,0-6.76,0,0-6.21,0-11.96,0-17.71,0,0-.16.17-.16.17h34.76c-.38,6.36-.73,12.24-1.08,18.12,0,0,.11-.12.11-.12Z"/> <path d="M272.7,542.05h18.9c0,6.45,0,12.32,0,18.19,0,0,.16-.17.16-.16-6.07,0-12.13,0-18.89,0v-18.2l-.17.17Z"/> <path d="M220.04,469.54h-18.56v-17.43h17.63c.28,5.75.57,11.64.84,17.53,0,.01.08-.1.08-.1Z"/> <path d="M182.08,433.37h19.1v17.95h-17.74c0-4.61.08-9.36-.05-14.11-.04-1.32-.74-2.62-1.16-3.91-.02.01-.14.07-.14.07Z"/> <path d="M272.88,541.88h-17.67c-.28-5.94-.56-11.8-.85-17.65-.01,0-.14.11-.15.12,5.93,0,11.88,0,18.49,0,0,5.94,0,11.82,0,17.7,0,0,.17-.17.17-.17Z"/> <path d="M238.13,487.57h-18.1c0-5.96,0-11.99,0-18.03,0,0-.08.1-.08.09,5.67.29,11.33.6,17.13.91.32,5.81.62,11.47.94,17.11.01,0,.1-.09.1-.09Z"/> </g> </g></symbol>
<symbol id="ag-lauburu" viewBox="0 0 674.92 675.13"><g id="Layer_1-2" data-name="Layer_1"> <path d="M302.04,325.36h-24.84v-25.06h-24.67v-23.88h-25.59v-51.89h-24.9V76.8h24.55v-25.03h25.77v-25.78h42.16V0h116.7v25.61h40.01v25.99h24.83v98.54h-24.58v25.01h-99.1v24.32h-24.67v100.91h23.87v-24.58h26.01v-25.02h25.38v-25.15h49.08v-25.7h147.28v25.44h25.88v25.26h25.17v24.83h24.53v150.79h-24.45v24.97h-25v24.71h-98.97v-24.59h-25.03v-100.82h-24.73v-24.93h-99.64v25.58h24.17v25.36h24.79v24.79h25.22v50.27h24.68v149.56h-24.45v25.01h-25v25.01h-49.44v23.99h-113.55v-23.54h-36.6v-25.11h-24.78v-100.55h24.46v-24.5h100.41v-24.79h24.47v-100.05h-23.88v24.46h-26.01v25.08h-24.94v25h-50.09v24.72H73.19v-24.44h-25.34v-24.93h-24.05v-25.88H0v-149.83h23.42v-25.25h24.15v-25.68h103.23v25.45h25.35v100.3h25.06v25.33h100.83v-25.57Z"/> </g></symbol>
<symbol id="ag-mirror" viewBox="0 0 560.2 858"><!-- Generator: Adobe Illustrator 28.7.1, SVG Export Plug-In . SVG Version: 1.2.0 Build 142) --> <g> <g id="Layer_2"> <g id="Layer_1-2"> <g> <path d="M32.9,571.6c-.3-.8-.9-1.5-.9-2.3,0-20,0-39.9,0-60.5h32.7v-130.3h-32.5v-64.1H0v-64.2h31.7v-33h32.5v64.3h-31.3v32.9h31.9v-31.6h34v-33.1h32.6v-32.6h32.3v-30.2h34.1v-63.4l-.2.2h31.9v31.6h31v-32c-7.3,0-14.7,0-22.1,0-9.8,0-8.4,1.4-8.5-8.5,0-25.2,0-50.3,0-75.5v-8.4h31.9V0h35.6v30.6h32.2v92.7h-32c0,10.3,0,19.7.1,29.2,0,1.1,1.4,3.1,2.1,3.1,9.9.2,19.8.1,30,.1v-32.1l32.3.6h0c-.2.7-.6,1.5-.6,2.3,0,19.8,0,39.6,0,60.1h33.8v31h32v32h33v33.5h34.6,0c0,0,0,31.7,0,31.7h31.2v63.6h-31.4v130.4h31.7v62.4h-31.7v33h-34.1v33.1h-32.9v31h-31v31h-35.2v65.4l.2-.2h-31.9v-31.7h-32v31.8h31.2v63.6h-31.3v29.9h-35.7v-30.5h-31.4v-62.7h31v-32.2h-31.7v31.2h-31.9v-64.3h-34v-31h-32.9v-31h-32v-33h-34.4v.2c.1,0,.1-33.1.1-33.1h-32.1l.2.2h0ZM330.6,636.6h31.5v-32.1h33.4v-32.8h32.8v-257.6h-33.5v-32.3c-8.4,0-16.4,0-24.4,0-9.5,0-8.4,1.5-8.4-8.5,0-7.6,0-15.2,0-23.2h-32.2v-32.3h-100.1v31.7h-32.2v32.3h-33.8v32.7h-32.6v257.3h33.7v33h33v31.9h32.1v31.5h100.7v-31.7h0Z"/> <path d="M361.6,764.5h33.8v-32.1c9.9,0,19.4-.1,28.8,0,3.4,0,4.7-.7,4.5-4.4-.3-9.1,0-18.2,0-27.6h31.6v63.4h-32.3v32h-66.2v-31.6l-.2.2h0Z"/> <path d="M198,123.5h-34.2v31.6h-32.8v30.9h-31.7v-62.2h31.4v-32h67v31.8l.2-.2h0Z"/> <path d="M197.1,795.9h-66v-32h-31.8v-63.5h31.2v31.8h32.8v32.3h33.8v31.3h0Z"/> <path d="M362.2,124.2v-32.3h66.3v31.6h31.7v62.4h-31.4v-31.3h-33v-32.4h-20.6c-3.2,0-6.3-.2-9.5,0-1.2,0-2.4,1.1-3.6,1.7,0,0,0,0,0,0h0Z"/> <path d="M527,637v30.9h-31.5v-63.2h18.2c3.2,0,6.3-.2,9.5,0,3.6.3,4.5-1.2,4.5-4.6-.2-9.3,0-18.6,0-28.1h32.7v65h-33.3Z"/> <path d="M64.7,604.4v63.6h-32.7v-31.2H0v-65.2h32.9l-.2-.2v33.1h32.1v-.2q-.1,0-.1,0Z"/> <path d="M495.1,283.1v-65.8h31.7v33.3h33.5v63.4h-32.5v-32.5c-9.2,0-17.7,0-26.3,0-2.1,0-4.3.9-6.4,1.3,0,0,0,.1,0,.1h0Z"/> </g> </g> </g> </g></symbol>
<symbol id="ag-moon" viewBox="0 0 401.26 583.02"><g id="Layer_1-2" data-name="Layer_1"> <path d="M182.38,583.02c-.5-9.87-.98-19.12-1.52-29.78-9.23,0-18.16.04-27.09-.01-8.66-.06-17.33-.39-25.98-.25-3.78.06-4.89-1.23-4.8-4.9.22-8.8.07-17.6.07-26.98h-31.47v-31.94h-31.94v-30.23h-30.12v-58.26H0v-217.23h29.12v-61.8h28.72v-28.4h31.64v-31.28h32.79v-30.93h60.25V0h160.31v31.3h58.43v31.1h-123.5v29.12h-62.47v30.5h-30.49v60.96h-30.28v184.66h28.44v62.73h31.56v31.95c21.15.58,41.87,1.16,63.14,1.75v28.52h64.8v29.08h58.73v30.23h-28.56v31.13h-190.25Z"/> </g></symbol>
<symbol id="ag-orthodox" viewBox="0 0 475.12 774.17"><g id="Layer_1-2" data-name="Layer_1"> <path d="M378.16,69.42v74.74h-85.55v52.43h182.51v78.24h-182.62v217.31h30.86v32.12h54.64v65.92h-85.85v183.99h-107.42v-250.48h-53.86v-30.13h-31.72v-67.56h85.17v-151.06H0v-78.04h184.31v-52.41h-85.31v-74.8h85.72V0h107.33v69.42h86.11Z"/> </g></symbol>
<symbol id="ag-prayer" viewBox="0 0 689.82 925.47"><defs> <style> .cls-1 { fill: #fff; } </style> </defs> <g id="Layer_1-2" data-name="Layer_1"> <g> <path d="M209.64,597.72h-38.69v-13.76h12.52v-13.42h-25.48v-12.61h12.34v-13.74h-25.59v-13.37h12.49v-13.04h-26.32v-12.99h13.47v-13.97h-13.52v-11.94h-13.09v-27.11h-12.92v-14.11h-25.99v-12.86h24.53v-13.92h-10.45v-11.86c3.62-.18,7.35-.36,11.62-.56-.24-4.57-.47-8.83-.72-13.56h-11.81v-12.87h11.39v-38.13h-11.48v-40.86h-14.31c0,12.46-.1,24.89.16,37.32.02,1.15,2.15,2.97,3.54,3.23,2.73.51,5.62.15,8.85.15v24.77h-11.57v-12.71h-12.87v-25.96h-13.89v-27.15h-12.92v-52.24h13.27v-78.47h-13.58v38.58h-12.8v38.97h-12.25v-91.65h12.98v-67.01h11.94V26.77h13.57v-12.34h13.55V0h37.84v13.96h12.86v12.52h41.08v13.29h13.08v13.9h12.81v14.11h-12.47v-12.89h-12.48c-.27-4.76-.5-9.03-.76-13.6h-13.01v26.55h-12.94v-13h-13.74v-13.77h-13.23v-14.18h-12.85v-12.95h-13.03v12.59c4.17.23,8.24.46,12.26.68v12.71h12.4v28.07h13.04v12.48h14.9v26.71h12.96v13.39h13.16v27.14l.16-.16h-12.88v-13.55h-13.13v-13.17h-13.85v-26.94h-12.93v-13.13h-13.09v-12.39c-4.42-.26-8.48-.49-13.05-.76v-26.72h-13.21c0,7.16-.22,14.13.08,21.06.19,4.46-1.05,6.63-5.85,6.04-2.42-.3-4.9-.05-7.56-.05v26.64h25.25v12.32c4.59.29,8.8.56,13.43.85v12.7h12.58v26.66h12.9v26.37h14.92v27.1h13.22v12.69h12.79v13.24h13.19v40.08h12.93v25.93h12.92v40.97h12.41v25.85c-4.11-.18-7.84-.35-11.95-.53v-12.1h-12.95v-39.89h-13.06v-27.31h-13.11v-26.34h-12.87v-26.42h-13.12v-13.91h-14.82v-25.85h-12.51v-24.99c-8.64-.46-16.87-.9-25.58-1.37v-12.92c-4.72,0-8.97,0-13.22,0,0-9.03.02-18.06.03-27.09,4.24,0,8.47,0,12.62,0v-12.65h-12.51v12.75h-12.68v26.89h12.65v39.99h12.68v38.99h12.74v26.02h12.32v26.9h13.03v39.81h13.24v53.68h13.83v51.7h13.07v26.91h13.86v26.95h12.98v25.88h13.1v13.15h12.86v13.08h13.14v13.92h13.91v12.99h12.89v12.91h26.14v13.07h12.92v12.98h26.98v13.85h12.92v12.07h12.86v12.15h25.19v13.79h14.08v-13.48h13.28v-23.92h13.6v23.85c-4.69.23-9.42.46-14.59.71v26.93h-11.89v26.08h-12.98v39.28h12.57v-12.74h12.05v25.69h-11.44v26.63h12.5c0,4.74,0,8.99,0,13.24-4.24,0-8.48,0-12.54,0v25.82h12.39v-25.93h13.29v-25.88h13.89v-26.56h13.01v-12.17h13.5v25h-13.32v39.5h-12.76v52.51h11.52v13.34h-11.5v40.07h11.61v-27.06h14.18v-25.67l-.18.18h12.96v-12.93h13.87v-27.09h12.59v-12.91h13.56v-26.08h12.92v-25.9h12.98v-26.94h12.94v-13.13h13.19v-26.58h11.94v-13.18h12.91v-12.17h14.11v-13.33h13.42v-12.82h25.29v-26.87h-25.58v12.95h-25.92v13.01h-13.1v12.82h-13.49v12.6h-12.16v-24.53h12.41v-13.9h12.09v-12.42h12.75v-13.67h-25.39v12.64h-12.21v-12.68h-13.43v13.05h-12.59v13.51h-13.28v25.18h-12.71v25.9h-12.67v-38.62h12.14v-25.38h13.42v-13.66h12.91v-12.86h12.98v-13.2h25.39v-13.65h-38.19v13.09h-25.96v13.45h-27.16l.18.18v-26.98h-12.91v-13h-12.82v-26.91h-13.22v-25.98h-12.74v-12.58h12.29v-80.28h-12.55v-52.16h-12.87v-27.08h-13.09v-26.9h-12.05v-25.96h-14.01v-26.94h-13.17v-64.97h-13.73l.15.15v-13.1h26.48v65.46h13.36v26.18h13.14v25.99h12.38v27.02h13.16v27.74h13.6v26.18h12.55v91.87h13.77v53.19h12.13v25.78h13.49v25.99h26.43v-12.17h65.01v12.36h25.59v13.86h13.39v13.05h13.06v12.53h56.85v13.43h16.5v40h-8.23v12.98h-12.23v13.04h-13.15v12.98h-13.36v13.01h-13.11v12.9h-13.03v26.46h-12.95v13.37h-13.15v12.55h-12.79v12.75h-13.09v26.88h-13.16v13.07h-12.88v14.02h-13.36v12.63h-12.61v26.46h-12.9v12.86h-13.15v27.2h-13.44v12.81h-13.59v12.47h-12.91v13.56h-24.97v-13.45h-14.05v-12.27h-13.82v-28.07h-12.28v-12.86h-13.92v-12.89h-13.66v-38.24h-13.54v-40.13h-12.8v12.97h-13v12.94h-12.88v13.18h-13.2v13.31h-12.88v12.63h-26.75v12.65h-91.22v-12.42h-12.96v-12.46h-13.11v-12.9h-13.98v-13.71h-12.89v-12.93h-12.91v-13.5h-13.19v-13.39h-12.86v-25c-4.06-.18-7.78-.34-11.88-.52v-92.48h11.62v-25.13h12.9v-27.92h13.79v-25.08h-13.52v-39.92h-12.9v-53.06h-13.28c0-17.78,0-34.9,0-52.02,0,0-.15.17-.15.17h13v38.72h13.15v38.83h12.48v41.08h12.41v25.99h13.91v13.58c4.43.22,8.36.41,12.58.61v25.91h14.44v12.83h12.05v12.89h14.08v13.08h52.91v-12.98h11.79v-13.33h-12.45v12.69h-38.72v-12.03h25.49c0-4.73,0-8.97,0-13.21,4.57,0,9.15,0,13.71,0v-13.65h-13.61v13.75ZM314.63,728.73h-13.26v12.28h-12.8v12.79h-12.92v13.94h-26.62v13.09h-26.72v12.97h-26.91v13.55h-12.11c-.25-5.03-.49-9.76-.72-14.4h-11.66v13.8c-4.68,0-9,0-13.33,0v-13.03h-13.03v-13.15h-12.58v-12.47h25.3v12.38h39.54v-13h26.99v-13.02h25.89v-12.91h13.11v-13.23h12.84v-26.7h13.24v-13.09h13.01v-24.99h13.38v-15.15h-12.94v-12.95h-13.87v40.3h-13.4v12.14h-12.7v14h-13.88v13.39h-26.23v13.58h-12.83v12.39h-39.07v13.12h-25.89v-13.18h-25.93v-14.46h-13.26v-25.15h-13.31v-52.25h13.43v-25.91h11.94v-26.39h-13.03v12.99h-12.83v25.67h-12.41v106.09h12.56v13.21h13.07v12.89h13.1v13.26h13.57v12.49c4.68,0,9,0,13.32,0v12.99h13.08v13.78h65.95v-13.71h26.04v-13.22h13.08v-12.85h12.73c0-4.68,0-8.82,0-12.96h13.3v-13.47h12.86v-12.61h12.84c0-4.71,0-8.82,0-12.93h11.77v-13.64h-11.67v13.74ZM157.73,688.35c-4.26.21-8.53.43-12.85.64v12.87h11.77v13.42h27.22v-13.69h39.32v-13.07h-52.21v-12.95h64.98v-12.64h-78.36v25.58s.14-.16.14-.16ZM366.23,793.65v-65.84c-4.04.18-7.75.34-11.29.49v65.35h11.29ZM78.09,279.51v-39.34h-12.4v39.34h12.4ZM326.84,675.8v37.6h12.99v-37.6h-12.99ZM131.77,675.34h12.58v-26.67c-4.34.4-8.34.77-12.58,1.16v25.51ZM249.28,610.46v-12.63h-12.4v12.63h12.4Z"/> <path d="M262.31,120.49v13.96h13.1v26.23h13.02v25.7h13.12v-25.39h13.8v52.43h13.13v26.73h13.18v12.68h14.04v26.74h12.74v27.15h13.04v39.61h-12.4v-26.64h-13.42v-13.05h-13.36v-27h-13.49v-13.85h-12.97v-12.68h-14.16v-26.37h-12.89v-26.02h-12.95v-13.62h-13.69v-26.17h-12.43v-27.05h-13.88v-13.06h-12.22v-13h-13.66v-12.92h26.23v12.28h12.51v13.32h13.58Z"/> <path d="M250.23,200.14h11.83v13.21h13.3v26.51c4.48.22,8.42.4,12.87.62v25.14h13.39v13.08h13.79v13.83h12.83v40.73h-12.44v-13.4h-13.03v-25.94c-4.82-.57-9.17-1.09-14-1.66v-12.53h-12.89v-13.99h-13.21v-25.73h-13.36c0-11-.06-21.57.04-32.13.02-2.59.58-5.18.89-7.77v.04Z"/> <path d="M170.42,160.92h12.99v12.66h12.92v13.48h12.69v39.52h13.34v26.09h14.08v26.99h12.65v26.83h12.12v24.31h-11.57v-23.14c-4.61-.51-8.92-.98-13.81-1.52v-13.44h-12.16v-38.75h-13.86v-26.59h-13.26v-26.39h-12.82v-13.98h-13.15c0-9.03,0-17.63,0-26.23,0,0-.15.16-.15.16Z"/> <path d="M0,240.67h12.51v78.45h12.78v40.26h-12.67v-26.13H0v-92.57Z"/> <path d="M250.23,200.1c-4.61.24-9.22.48-14.42.76v-27.09h-11.98v-25.66h12.16v12.54h13.03c0,11.09-.07,21.67.05,32.24.03,2.42.74,4.84,1.15,7.25,0,0,0-.04,0-.04Z"/> <path d="M446.74,833.64h-12.74v-39.84h12.63l-.17-.17c.03,13.39.06,26.79.09,40.18,0,0,.18-.18.18-.18Z"/> <path d="M38.95,384.14c4.24.31,8.49.61,13.47.97,0,9.13,0,18.48,0,27.83,0,0,.15-.17.15-.17-4.45,0-8.9,0-13.56,0v-28.73l-.06.1Z"/> <path d="M459.5,557.53v12.97h-11.81v12.75h-13.76v-12.4h12.6v-13.13c4.66,0,8.91,0,13.16,0,0,0-.18-.18-.18-.18Z"/> <path d="M421.41,609.71h-12.84v-12.95h11.95v-12.22h12.71v12.99h-11.82v12.19Z"/> <path d="M446.64,793.81v-25.8h12.63v25.63c-4.28,0-8.53,0-12.79,0,0,0,.16.17.16.17Z"/> <path d="M183.87,120.76v-12.87h12.58v12.56h12.11v12.95h-12.04c-.26-4.05-.52-8.13-.81-12.63h-11.85Z"/> <path d="M196.15,80.77h12.46v12.72h-12.72v-12.81h-11.98v-11.7h12.24v11.79Z"/> <path d="M39.01,384.05c-4.24.66-8.48,1.33-13.11,2.06v-25.12h13.04c0,7.75,0,15.47,0,23.17,0,0,.06-.1.06-.1Z"/> <path d="M209.99,134.71h12.2v12.64h-12.2v-12.64Z"/> <path d="M157.5,147.71h12.93c0,4.52,0,8.86,0,13.2,0,0,.15-.16.15-.16-4.12,0-8.24,0-12.91,0,0-4.72,0-8.96,0-13.2,0,0-.16.16-.16.16Z"/> <path d="M157.22,80.38h-12.28v-12.08h12.28v12.08Z"/> <path d="M328.8,147.97v11.64h-12.85v-12.58c4.34.35,8.66.71,12.99,1.07,0,0-.14-.14-.14-.14Z"/> <path d="M182.77,107.13h-11.87v-12.32h11.87v12.32Z"/> <path d="M170.2,93.46h-12.29v-11.46h12.29v11.46Z"/> <path class="cls-1" d="M157.59,806.75h13.32v-13.8h11.66c.23,4.63.47,9.37.72,14.4h12.11v-13.55h26.91v-12.97h26.72v-13.09h26.62l-.1-.1v12.96h-12.73v12.85h-13.08v13.22h-26.04v13.71h-65.95c0-4.61,0-9.2,0-13.78,0,0-.15.15-.15.15Z"/> <path class="cls-1" d="M275.65,767.74v-13.94h12.92v-12.79h12.8v-12.28h13.26l-.1-.1v12.93h-12.84v12.61h-12.86v13.47c-4.79,0-9.04,0-13.3,0,0,0,.1.1.1.1Z"/> <path class="cls-1" d="M326.84,675.8h12.99v37.6h-12.99v-37.6Z"/> <path class="cls-1" d="M65.62,147.63h-12.65v-26.89h12.68l-.11-.1c0,9.03-.02,18.06-.03,27.09,0,0,.1-.1.1-.1Z"/> <path class="cls-1" d="M314.63,728.73v-13.74h11.67v13.64c-3.93,0-7.85,0-11.77,0,0,0,.1.1.1.1Z"/> <path d="M157.59,688.5c4.09.38,8.17.77,12.59,1.18v11.58h-12.46c0-4.36,0-8.64,0-12.92,0,0-.14.15-.14.15Z"/> </g> </g></symbol>
<symbol id="ag-shackles" viewBox="0 0 783.92 794.44"><defs> <style> .cls-1 { fill: #fff; } </style> </defs> <g id="Layer_1-2" data-name="Layer_1"> <g> <path d="M499.92,36.1v-19.26h41.43V0h127.15v16.47h35.17v18.92h31.67v18.82h15.79v20.14h18.02v36.01h14.78v123.06h-13.46v24.04c-4.76,0-9.01.11-13.26-.04-2.57-.09-3.61.81-3.54,3.44.12,5.3.04,10.61.04,16.5h15.81v20.88h-20.08v89.7h-14.9v14.86c-2.53.22-4.47.38-7.08.6v12.03h-12.01v10.56h-27.98v12.01h-28v13.02h-35.25c1.51,2.92,2.58,4.76,3.43,6.69.5,1.13.91,2.41.94,3.62.1,5.16.18,10.34,0,15.5-.12,3.28,1.29,4.62,4.39,4.45,4.26-.24,8.52-.53,13.14-.82.13,2.45.24,4.39.37,6.71,1.48.19,2.9.38,4.53.59.12,1.22.24,2.48.38,4.02h5.63c.19,2.21.35,4.15.55,6.43,2.1.19,4.2.37,6.64.59v47.69c-1.33.26-2.87.57-4.76.94v19.25c-11.21.29-4.54,9.3-7.34,14.11-1.59.18-3.37.39-5.56.64v10.13c-2.1.33-3.83.6-5.82.91-.57,3.98-1.15,8.02-1.8,12.53-1.91.12-3.97.25-6.37.41-.14,2.77-.26,5.37-.41,8.42-2.45.17-4.85.34-7.59.54-.13,2.79-.26,5.4-.41,8.52-2.23.26-4.44.52-6.85.8-.34,1.68-.67,3.28-1.09,5.36h-12.55c-.2,2.38-.36,4.31-.52,6.24-7.35,2.12-28.66,1.06-31.35-1.29-1.65,2.89-3.31,5.85-5.01,8.78-.32.56-.73,1.14-1.25,1.49-1.34.92-2.76,1.73-4.14,2.58,1.21,1.91,2.47,3.8,3.63,5.74.53.88.97,1.83,1.29,2.81.36,1.07.16,2.6.85,3.23,4.36,4.03,3.12,9.23,3.16,14.13.07,8.83.03,17.67,0,26.5,0,1.89.5,3.72-2.57,4.43-1.18.27-1.84,3.7-2.33,5.79-.36,1.56-.07,3.28-.07,5.45-2.45.11-4.88.23-7.75.36-.18,2.84-.35,5.57-.53,8.54-1.84.2-3.45.39-5.61.63-.88,2.77-1.85,5.82-3,9.43-1.41.12-3.51.3-5.93.51-.17,2.18-.33,4.29-.52,6.79h-9.01c-.26,2.31-.48,4.24-.77,6.72-4.36.77-11.34-1.92-10.48,7.03-3.13.21-5.9.4-8.61.58-.26.34-.6.58-.62.84q-.65,7.7-8.25,7.72c-3.15,0-6.31,0-9.9,0-.29,2.99-.55,5.71-.84,8.73h-55.43c-.2-1.96-.41-4.02-.63-6.22-3.77-1.26-5.35.15-4.98,4.19-4.38-.4-5.91,1.84-5.13,5.93-1.87.29-3.29.5-4.81.74-.14,1.67-.26,3.14-.41,5.04-2.07.31-4.15.63-6.45.98-.21,1.33-.43,2.76-.71,4.52h-13.25c-.23,2.26-.42,4.17-.65,6.45h-89.02c-.19-2.03-.38-4.14-.64-7h-15.29c-.19-3.85-.34-6.93-.5-10.25h-10.63c-.16-2.61-.3-4.99-.46-7.68-1.9-.23-3.65-.44-5.83-.7v-10.2c-2.08-.3-3.79-.55-5.95-.87,0-8.07-.68-16.1.22-23.96.68-5.94-3.39-8.15-6.25-11.49-3.65-4.26-9.79-5.67-12.43-11.36-.88-1.89-4.05-2.71-6.96-4.51v10.39h-45.53c-.22-1.67-.44-3.39-.74-5.64h-12.05c-.17-2.47-.3-4.41-.48-6.93h-9.54c-.16-2.5-.29-4.45-.44-6.82-2.48-.17-4.89-.33-7.64-.51-.17-2.6-.33-5.01-.54-8.07-6.73,1.81-8.89-1.42-7.61-7.41q-7.48-1.25-8.48-9.01c-1.69-.17-3.45-.35-5.79-.58-.21-3.04-.42-6.09-.65-9.42-10.74.74-5.11-7.85-7.23-12.65h-7.88c0-4.71.01-9.01,0-13.32-.02-4.45-.03-4.45-4.45-5.66,0-15.23-.03-30.53.06-45.84,0-1.12.88-3.19,1.36-3.19,5.45-.03,5.33-3.75,5.06-8.09h8.72c.16-3.16.29-5.76.43-8.68,1.77-.25,3.51-.5,5.24-.74-.24-.31-.48-.62-.72-.93,1.61-1.54,3.29-3.02,4.79-4.66.69-.75,1.45-1.82,1.46-2.75.11-8.98.07-17.97.07-27.6h-42.89v-15.03h-34.04v-11.02h-12.12v-12.31h-11.86v-15.62h-13.97v-92.01h-11.65c-.3-2.13-.55-3.87-.87-6.13h-13.56v-20.93c3.51,0,7.14.26,10.69-.15,1.19-.14,3.04-1.93,3.11-3.05.33-5.28.15-10.6.15-16.56h-12.95v-28.11H0v-121.63h14.52v-31.03h16.13v-21.77h17.89v-18.25h23.13v-21.91h40.81v-17.9h125.74v17.63h40.99v21.67h27.1v18.84h16.85v20.37h15.02v30.97h15.98v122.64h-12.65v27.64c-3.85,0-6.98.13-10.09-.04-2.91-.15-4.22.62-4.07,3.91.28,5.78.08,11.58.08,17.83h13.48v19.7h-15.33c-.31,2.14-.54,3.74-.85,5.88h-12.27v91.2h-11.72v15.81c-4.42.24-8.5.47-13.13.72v12.47h-11.24v9.78h-35.82v16.03h-40.82v24.54h16.59c.24,3.08.43,5.66.62,8.09,6.66,1.11,13.1,2.18,19.62,3.26v6.22c2.24.14,4.36.26,6.75.41.17,1.49.34,2.92.56,4.87h9.22c.6,4.64,1.13,8.82,1.71,13.32,1.17.29,2.56.64,4.17,1.04.19,1.73.38,3.5.59,5.52,8.54-.12,4.6,6.91,6.17,11.1,1.66.15,3.27.3,5.25.48v11.05c1.67.47,3.04.85,4.54,1.28.17,2.7.34,5.32.51,8.07,1.68.17,3.13.32,5.06.52v13.09c1.84.32,3.24.57,4.92.87v37.13c-1.36.11-2.9-.19-3.83.42-1.38.91-2.33,2.48-3.47,3.77,1.01.87,1.98,1.78,3.03,2.59,1.77,1.37,3.52,2.8,5.43,3.96,1.13.68,2.54.9,4.18,1.44.22-2.32.38-3.95.58-6.09,3.57-.52,7.28-1.07,11.31-1.66.27-1.65.54-3.39.91-5.7h12.34c.19-2.53.33-4.49.48-6.58h79.79c.23,2.46.44,4.71.69,7.35h10.1c.97,3.84,2.02,6.7,5.06,1.38,1.85-3.24,4.39-6.08,6.02-9.58,3.18-1.59,6.37-3.17,4.94-7.9q8.62-1.6,9.59-9.79c2.32-.15,4.72-.3,7.42-.48.13-2.73.25-5.3.4-8.36h10.82c.2-2.72.36-4.97.54-7.48,4.96-.25,9.75-.49,15.15-.76.13-2.71.26-5.44.42-8.75h16.55c.17-2.52.3-4.46.49-7.37,3.3,0,6.55,0,9.8,0,5.67,0,11.35.31,16.99-.1,5.18-.37,8.79,1.66,12.23,5.24,1.66,1.73,4.38,2.43,7.41,4.01.24-3.8.38-6.08.52-8.36.26.19.53.38.79.57,1.32-1.71,2.64-3.42,4.64-6.01-3.36-.32-5.13-.49-7.26-.7-.47-3.07,1.44-8.15-5.27-6.82v-13.47c-2.05-.3-3.77-.56-5.78-.86v-35.98c2.17-.15,4.11-.28,6.63-.45v-33.5c2.17-.19,3.79-.33,5.93-.52v-13.61c2.39-.26,4.3-.47,6.76-.73.21-2.53.42-5.09.66-8.07,2-.2,4.07-.4,6.45-.64.16-2.38.31-4.65.49-7.36,2.05-.19,4.12-.39,6.44-.61.21-1.5.42-2.93.65-4.58h7.28c.23-2.28.45-4.36.73-7.07h24.68c0-6.4-.03-12.19.02-17.97.02-1.85-.7-4.02,2.54-4.4.77-.09,1.25-2.72,2.21-5.01h-35.77v-13.96h-28.93v-11.91h-25.73c-.21-3.78-.4-7.17-.62-11.12h-11.33v-11.73c-2.48-.14-4.57-.26-7.21-.4v-14.95h-13.67v-86.89h-18.2c-.19-2.83-.35-5.23-.54-7.94-2.44-.16-4.72-.3-7.38-.47v-15.16h15.19v-20.07h-15.37v-24.32h-16.07v-122.76h15.73v-35.96h19.12v-20.12h16.35v-18.42h23.88ZM514.53,74.44h20.62c.31-3.05.54-5.3.8-7.89,6.18,0,11.98,0,17.79,0q10.47,0,11.05-10.14c.02-.31.21-.61.41-1.16h71.81c.22,3.25.42,6.14.65,9.49h33.26c.16,3.43.29,6.36.46,9.95h17.86v17.95h13.29v15.11h13.01v25.02h13.02v30.21c3.52.15,6.43.28,9.83.43v62.79h8.32v-14.39c2.92-.24,5.17-.43,7.43-.62v-47.8c-2.58-.18-4.85-.33-7.78-.53v-44.45h-14.79v-26.48h-12.19v-17.79h-16.84v-11.2h-19.73v-19.73h-21.91c-.15-3.25-.28-5.99-.42-8.79h-104c-.15,3.31-.28,6.36-.43,9.81h-22.9v12.07h-18.54c0,6.4,0,12.33,0,18.25-6.81-.3-13.61-.6-20.77-.92v19.69h-10.11v16.84h17.08v-16.76h13.71v-18.98ZM506.76,225.74c0,5.88.16,11.21-.06,16.53-.13,3.14,1.1,4.17,4.06,4.01,2.74-.15,5.49-.03,8.72-.03v16.2h18.85v13.33h26.21v13.49h79.22v-12.99c8.84,0,17.14-.19,25.42.08,4.02.13,5.84-.89,5.36-5.22-.34-3.05-.07-6.17-.07-9.74h13.18v-13.64c3.29-.16,5.9-.29,9.06-.44v-20.7h13.69v-61.22c-3.68-.18-7.07-.35-10.87-.53v-27.79h-13.2v-15.89h-15.8v-14.26h-23.16c0-3.84-.04-7.16.01-10.48.04-2.67-1.01-3.82-3.86-3.81-25.49.07-50.99.07-76.48-.02-3.06-.01-3.64,1.4-3.55,3.98.12,3.41.03,6.83.03,9.79-8.87.95-16.91,1.81-25.41,2.72v12.18h-12.92v16.01h-14v27.06h-13.01v60.98c2.88.13,5.49.26,8.58.4ZM107.52,355.31h33.85v12.81h70.57v-14.82h29.94v-18.08h12.99v-15.63h13.84v-21.71c2.87-.25,5.27-.45,7.66-.66v-48.6c-2.63-.16-4.9-.3-7.86-.48v-26.88h-12.95v-20.19h-14.95v-12.66h-19.3v-16.59h-91.7v17.06h-21.31v12.38h-13.07v22.02h-14.08v25.01c-4.07.19-7.65.36-11.17.52v47.23h11.24v25.29h13.22v14.22c2.68,0,4.84.22,6.95-.04,4.69-.59,6.71.98,6.22,5.99-.42,4.27-.09,8.61-.09,13.81ZM43.33,250.06c2.12-.41,3.65-.71,5.64-1.1v-25.84h9.86v-26.72h14.08v-23.8h12.85v-15.29h22.19v-13.9h30.85v-11.22h90.02v11.43h22.97v14h17.67v16.27h14.9v23.7h11.49v18.03h10.58v80.62h7.15v-13.4c2.22-.25,4.12-.47,6.08-.69v-82.1h-12.1v-18.36c-3.27-.15-6-.28-9.22-.44v-29.3h-20.72v-11.88h-20.02v-17.95h-32.24v-12.55h-98.23v19.76h-32.03v12h-19.98v12.83c-4.4,0-8.38.17-12.34-.05-3.48-.2-4.76,1.03-4.58,4.58.26,5.08.07,10.18.07,15.68h-12.14v29.01h-12.53v87.84h9.74v-41.15ZM541.79,696.26c.56-6.35,1.13-12.4,1.61-18.46.19-2.46-1.03-4.49-3.41-2.88-3.33,2.25-6.19,5.27-9.01,8.2-3.98,4.14-7.71,7.66-14.42,7.32-4.59-.23-4.74-4.49-7.87-5.72-1.7-.67-4-2.54-4.14-4.04-.83-9.08-1.23-18.15,7.11-24.8,1.47-1.18,1.77-3.84,2.82-6.32h-23.45c-.33,1.96-.62,3.66-.99,5.82h-8.39c-.31,2.09-.55,3.65-.83,5.55h-10.24c-.2,3.32-.38,6.25-.58,9.47h-8.07c-.27,1.64-.49,3.03-.73,4.49-2.54.21-4.8.4-7.08.58-.37,2.04-.68,3.76-.98,5.41-2.44.23-4.53.43-6.32.6-.56,3.22-.78,6.05-1.62,8.68-.38,1.19-2.02,2.87-3.02,2.82-3.46-.16-4.84,1.4-5.2,4.54-.4,3.5-.87,7-1.36,10.93h16.26c2.51,2.98,3.83,5.54,5.93,6.79,3.46,2.07,4.7,4.56,4.49,8.51-.23,4.24.9,8.8-4.89,10.34-.5.13-.89.97-1.18,1.56-1.95,3.95-5.18,5.09-9.35,4.56-1.05-.13-2.18.33-3.15.5v5.85c6.2,0,12.01,0,17.82,0s11.9,0,17.83,0c.32-2.67.56-4.73.86-7.19h14.76v-9.02h11.52c.19-2.81.36-5.21.55-7.98h9.85v-8.58c2.87-.19,5.15-.34,7.62-.51.15-2.22.28-4.16.34-5.04,3.75-3.01,6.73-5.4,10.56-8.47.03-.16.25-1.56.48-3.01,1.8-.15,3.27-.28,5.92-.5ZM158.31,594.38c0,8.01,0,15.48,0,22.96,0,1.16-.31,2.99.27,3.37,5.02,3.31,2.88,8.3,2.97,12.6.07,3.43.41,5.93,4.58,5.64.14,3,.26,5.6.39,8.39,2.76.18,5.16.34,7.94.53v10.41c2.52.22,4.62.39,7.07.6v5.86c3.15,1.02,7.13,1.14,8.13,2.93,1.32,2.38.33,6.05.33,9.7h10.87c.35,1.92.61,3.32.76,4.14,2.31.79,4.48.94,5.76,2.08,5.16,4.6,14.77,6.11,21.02,3.22-3.55-3.93-9.66-7.62-10.29-12.08-1.06-7.52-3.53-16.17,4.8-22.9,6.67-5.39,17.26-6.2,23.53.1,3.14,3.15,6.61,5.96,10.75,9.65v-13.92c-1.56-.36-2.93-.67-4.73-1.09v-13.89c-2.12-.24-3.72-.42-5.55-.63-.16-2.99-.31-5.75-.46-8.69-3.4,0-6-.16-5.84-4.72.25-7.33-1.06-8.41-8.68-9.27-.13-2.86-.27-5.79-.41-8.87-2.49-.25-4.69-.47-7.09-.71v-5.55c-2.3-.15-4.36-.28-6.36-.41-.29-1.96-.52-3.54-.73-5.02-3.28-.33-7.77.43-8.82-1.13-2.82-4.18-5.83-1.92-9.2-2.11,0,5.72.08,11.03-.06,16.34-.04,1.36-.45,2.96-1.26,3.99-1.69,2.15-3.66,4.14-5.73,5.93-1.21,1.04-2.81,2.14-4.31,2.25-4.29.3-8.62.11-11.86.11-5.23-6.2-11.38-11.17-8.66-19.76-2.42-.12-3.74-.22-5.05-.23-1.14,0-2.28.12-4.07.22ZM307.59,714.44c2.58.96,4.84,1.1,5.41,2.15,1.78,3.26,4.49,3.22,7.26,2.6,3.22-.73,4.19.8,5.23,3.46,1.14,2.91,2.76,5.77,4.74,8.19,3.04,3.73,3.37,6.86.38,10.61-2.17,2.72-3.76,6.64-6.57,7.91-3.57,1.61-8.84,2.58-12.03,1.04-3-1.45-5.25-2.53-9.18-1.68.76,1.86.99,4.31,2.1,4.8,6.21,2.79,8.61,12.2,17.57,10.14.44-.1,1.5.53,1.52.88.28,3.77,3.12,2.77,5.23,2.78,19.48.05,38.95.04,58.43.01,1.27,0,2.53-.21,3.73-.32.25-1.95.45-3.55.69-5.46,2.07,0,3.89-.15,5.68.03,4.93.49,8.44-2.09,10.58-5.9,1.22-2.17,1.25-5.43.71-7.96-.19-.89-3.67-1.44-5.66-1.5-3.64-.1-7.34-.04-10.92.56-5.52.93-10.21.81-13.7-4.66-1.95-3.04-4.51-14.69-2.89-17.82.19-.37.75-.52,1.05-.85,2.3-2.61,4.57-5.25,7.75-8.9,3.13,0,7.96-.13,12.77.04,3.51.12,4.19-2.02,4.22-4.72.03-2.71-.67-4.96-4.13-4.87-1.46.04-2.92-.18-4.48-.29-.28-1.85-.51-3.44-.79-5.31h-68.77c-.16,2.38-.29,4.34-.46,6.83-7.68-2.07-9.93,4.89-15.45,8.2ZM116.63,379.05h-24.03v-15.03h-12.04v-13h-14.02v-11.14h-11.83v13.83h11.61c-.38,6.23-.73,12.01-1.12,18.34h12.7v18.68h28.71c0,4.1.29,7.77-.07,11.37-.46,4.51,1.29,5.56,5.62,5.55,42.5-.16,84.99-.09,127.49-.09h5.27v-16.49h24.84v-11.9c1.68,0,2.86-.14,3.99.03,4.91.74,6.69-1.22,5.85-6.13-.4-2.34-.07-4.8-.07-7.72h13.37c-.7-5.19-1.32-9.75-2.02-14.87h11.73v-17.34c7.82-.08,8.77-1.94,6.33-12.38h-13.63v19.51h-12.19v14.27h-13.94v12.72c-3.33.16-6.08.3-8.7.43-.5,3.72-.94,6.93-1.44,10.6h-24.1v13.53h-118.3v-12.76ZM582.39,606.33h15.06c.23-2.55.4-4.49.58-6.56,1.9-.15,3.51-.27,5.13-.39-.21-.28-.43-.56-.64-.84,1.78-1.79,3.56-3.57,5.33-5.36.34.19.67.39,1.01.58v-9.09c7.92.8,7.7-4.89,8.21-10.06,6.17,1.09,5.72-2.83,5.67-6.71-.1-7.76-.02-7.76,6.97-8.95,0-1.88-.36-3.93.07-5.79.98-4.22-3.16-10.01,3.66-12.53.16-.06.21-.61.21-.93.01-9.09,0-18.17,0-27.21h-10.36c0,3.63.1,6.94-.05,10.23-.05,1.19-.36,2.64-1.1,3.49-4.8,5.46-9.99,9.53-18.24,8.35-6.48-.93-14.13-7.74-14.19-14.38-.04-4.25,0-8.5,0-12.8-3.97,0-7.25-.55-10.24.16-2.87.67-5.86,2.19-8.01,4.18-1.91,1.76-2.75,4.68-4.07,7.08l-1.3-.46v7.64c-2.51.22-4.74.42-7.53.66,0,3.51.1,6.81-.05,10.09-.05,1.19-.46,3.21-1.11,3.39-3.71,1.03-3.08,3.87-3.09,6.46-.03,7.77-.01,15.54-.01,23.18-3.26.56-5.84,1.01-9,1.56,0,4.64.16,9.11-.05,13.57-.19,3.94,2.01,5.34,5.35,5.63,2.24.19,4.51.04,7.12.04,0-3.53-.05-6.33.02-9.14.05-1.97-.49-4.94.55-5.72,2.99-2.27,6.51-4.61,10.09-5.16,5.19-.8,10.62-.16,15.93.13,1.16.06,2.41,1.07,3.35,1.94,1.37,1.25,2.5,2.75,4.5,5.01.1,1.13-.63,4.74.7,5.83,5.22,4.28,1.62,6.69-1.02,9.89-3.14,3.8-5.83,7.97-9.45,13ZM540.93,329.65h131.05v-11.36h14.84v-15.87h18.05v-17.05h15.5v-15.94h-17.11v12.6h-9.82c-.15,3.31-.28,6.06-.43,9.22h-13.85v12.17h-16.21v10.44h-111.28v-10.96h-27.17v-14.58c-3.19-.16-5.95-.29-8.81-.43-.18-2.33-.34-4.27-.54-6.9h-12.67v-11.58h-13.89v16.29h13.81v14.08h13.21v15.87h25.32v14ZM627.71,431.31c0-6.74.02-12.89-.02-19.04,0-.95-.06-2.52-.58-2.76-3.34-1.52-2.29-4.4-2.37-6.89-.09-2.99.17-6.01-.04-8.99-.23-3.21.9-5,3.87-6.57,9.29-4.91,9.2-5.07,8.94-15.9-.07-2.66-.25-5.33-.12-7.99.6-11.97-7.24-19.24-16.7-20.88-6.95-1.21-14.34-1.85-21.24-.81-8.02,1.21-14.3,6.82-17.43,14.23-1.69,4-1.03,9.22-.58,13.81.4,4.1-3.08,9.71,3.68,11.91.22,6.06,5.51,8.06,8.94,11.65,1.22,1.28,1.55,5.76.85,6.14-5.49,2.99-2.03,9.03-4.96,13.45-2.89,4.36-.63,12.13-.63,18.63h38.38ZM198.1,507.28c2.11-9.57-.04-18.46-2.62-27.3-.12-.41-.77-.66-.94-1.08-.64-1.55-1.98-3.38-1.6-4.67,1-3.4,2.22-6.97,4.31-9.77,9.96-13.39,6.53-33.82-7.34-41.97-9.17-5.39-18.74-4.66-27.87,2.12-8.02,5.95-12.35,17.24-9.09,27.08,1.99,6.03,5.91,11.42,9.23,17.59-3.14,11.53-7.96,24.03-5.29,38.01h41.22ZM457.31,133.21c0,2.52,0,4.34,0,6.15,0,21.16,0,42.31,0,63.47q0,8.22,7.96,8.91c.27.02.5.37,1.2.92v12.64h7.29v-90.49c3.2-.18,5.8-.33,8.68-.49v-23.54h-13.5v22.43h-11.63ZM720.57,248.38v17.53h12.07v-17.53h-12.07ZM488.5,248.45h-12.09v17.68h12.09v-17.68ZM43.3,336.19h12.12v-13.62h-12.12v13.62Z"/> <path class="cls-1" d="M514.53,74.44v18.98h-13.71v16.76h-17.08v-16.84h10.11v-19.69c7.16.32,13.96.62,20.77.92,0,0-.09-.13-.09-.13Z"/> <path d="M603.81,390.42c-2.3-.19-3.92-.33-6.06-.51,0-7.77-.08-15.5.1-23.22.02-1.03,1.33-2.87,2.1-2.9,4.78-.19,9.63-.28,14.36.31,1.44.18,3.63,2.58,3.71,4.06.39,7.23.17,14.5.17,22.06h-6.35v29.69h-8.03v-29.5Z"/> <path d="M184.62,494.92h-14.91c0-9.96.13-19.73-.08-29.5-.06-2.83,1.63-6.1-3-8.27-1.53-.72-1.07-7.16-.42-10.79,1.03-5.77,5.79-8.97,11.6-8.8,5.57.16,9.74,3.47,10.82,9.15.55,2.9.35,5.95.39,8.94,0,.78-.32,2.22-.62,2.25-5.79.61-3.56,5.2-3.65,8.05-.33,9.47-.12,18.96-.12,28.98Z"/> </g> </g></symbol>
<symbol id="ag-trunk" viewBox="0 0 204.66 177.44"><defs> <style> .cls-1 { fill: #fff; } </style> </defs> <g id="Layer_1-2" data-name="Layer_1"> <g> <path d="M0,158.1c.92-.12,1.79-.18,2.64-.37.27-.06.66-.45.66-.69.03-8.67.03-17.33.03-26,0-27.61,0-55.22,0-82.83v-1.76h3.08v-13.17h3.39v-10.06h3.34v-6.75h3.36v-6.38h3.58v-3.4h3.59v-3.39h6.65c0-.91,0-1.69,0-2.48,0-.58.26-.89.88-.82.28.03.56,0,.84,0,48.07,0,96.13,0,144.2,0,.48,0,.95,0,1.6,0,.05,1.08.09,2.09.14,3.23h6.74v3.31c1,.04,1.89.08,2.91.13v3.49h3.83v3.15h3.35v3.06h3.35v6.75h3.11v10.06h3.4v144.24h-23.64v-3.24h-6.42v-3.52h-20.95v3.46h-3.59v3.28h-39.49v-3.15h-22.46v3.16h-35.34v-3.19h-12.32v3.2H0v-19.34ZM133.97,160.83H3.09v13.56h20.48v-3.51h3.33v-3.27h83.07v3.32h3.37v3.49h20.65v-13.59ZM26.74,140.6v-70.64H9.6v70.64h17.14ZM127.02,49.88H33.54v13.63h13.85v6.6h6.85v-13.27h27.21v13.27h7.27c0-1.71,0-3.34,0-4.97,0-1.59.01-1.61,1.54-1.61,11.78-.02,23.57-.04,35.35-.06.46,0,.92,0,1.4,0v-13.6ZM40.49,33.15h66.46v-6.67h3.62v-6.45h3.25v-3.79H47.09v3.27h-3.57v6.75h-3.03v6.88ZM103.52,127.2v-17.01H36.91v17.01h66.61ZM126.97,140.6v-70.65h-16.92v70.65h16.92ZM47.49,73.22v20.72h3.27v3.35h3.39v3.23h27.87v-3.27h2.95c.16-1.16.31-2.21.48-3.37h2.92v-20.68h-10.26v-13.09h-20.85v13.11h-9.77ZM140.7,73.24v67.37h57.76v-67.37h-57.76ZM113.5,26.42v9.88h-3.23v10.33h16.83v-10.1h3.4v-6.63h3.08v-6.72h3.37v-6.72h3.37v-3.13h3.13v-3.13h3.56v-3.33h10.22v-3.61h-26.46v3.06h-3.84v3.37h-3.37v6.48h-3.61v3.56h-3.08v6.68h-3.36ZM36.88,140.74h66.61v-10.41H36.88v10.41ZM103.45,46.72v-10.31H36.92v10.31h66.54ZM50.53,13.06h66.51v-2.98h3.6v-3.47h3.46v-3.36H56.9v3.33h-3.36v3.12h-3.01v3.36ZM37.16,20.11v-7.02h3.47v-3.09h3.3v-3.38h3.3v-3.06h-14.06v3.02h-6.48v3.12h-3.56c0,.91.04,1.67,0,2.42-.05.84.3,1.1,1.12,1.08,1.91-.05,3.81-.02,5.79-.02v3.16c-2.89,0-5.72,0-8.54,0-1.66,0-1.69.02-1.73,1.72-.04,1.62,0,3.24,0,4.97h-3.35v6.55h-3.25v3.73h9.67v2.96h-9.9v10.32h14v-6.63h3.32v-13.43h3.36v-6.43h3.56ZM140.71,36.28v10.33h3.46v-6.67h3.36v-6.68h3.57v-6.48h3.61v-3.61h3.37v-3.13h3.13v-3.46h19.98v3.54h3.37v3.13h3.37v6.72h3.61v10.04h3.32v6.86h3.61v-10.64h-3.52v-9.75c-1.1-.14-2.07-.26-3.15-.39v-6.46h-3.56v-3.54h-3.38v-3.36h-6.24v-2.99h-14.28v3.31h-6.72v3.13h-3.37v3.53h-3.79v3.17h-3.38v6.72h-3.12v6.68h-3.22ZM201.6,50.01h-64.71v13.4h64.19v-3.45h-60.23v-7.07h60.75v-2.88ZM36.77,144.03c0,1.87,0,3.5,0,5.13,0,1.55-.02,1.58,1.59,1.59,7.34.02,14.69.02,22.03.01,13.9,0,27.79,0,41.69-.01.32,0,.66.06.95-.03.21-.06.51-.32.52-.5.04-2.09.02-4.19.02-6.19H36.77ZM6.44,49.99v13.4h23.71v-13.4H6.44ZM95.56,83.34v13.41h-4.11v3.58h-3.35v3.38h-3.07c0,.59,0,1.07,0,1.54q0,1.59,1.56,1.59c5.19,0,10.39,0,15.58,0,.42,0,.85,0,1.31,0v-23.5h-7.92ZM36.88,83.32v23.48h17.22v-3.19c-.7,0-1.29,0-1.89,0-.83,0-1.22-.37-1.14-1.25.06-.66.01-1.33.01-2.14h-3.41v-3.56h-3.55v-13.34h-7.23ZM26.83,154.09c0-3.23-.02-6.3.01-9.37,0-.88-.54-.81-1.11-.81-5.07,0-10.15.02-15.22-.01-.82,0-1.01.3-1,1.05.03,3.88.01,7.75.02,11.63,0,.26.08.53.11.74h13.94v-3.23h3.27ZM127.05,157.37c0-4.31.02-8.54-.04-12.76,0-.23-.61-.65-.94-.65-4.27-.05-8.55-.06-12.82-.05-1.03,0-2.5-.29-2.97.25-.55.63-.28,2.02-.29,3.09-.03,2.26,0,4.52,0,6.89h3.35v3.23h13.72ZM103.54,69.9h-7.91v10.04h7.91v-10.04ZM36.91,69.88v10.08h7.14v-10.08h-7.14ZM153.7,153.93v3.44h20.74v-3.44h-20.74Z"/> <path class="cls-1" d="M153.7,153.93h20.74v3.44h-20.74v-3.44Z"/> <path d="M16.59,133.57v-6.27h6.27v6.27h-6.27Z"/> <path d="M16.59,77.19h6.27v6.03h-6.27v-6.03Z"/> <path d="M119.93,59.95h-6.44v-6.2h6.44v6.2Z"/> <path d="M119.97,127.3v6.27h-6.27v-6.27h6.27Z"/> <path d="M113.7,83.22v-6.03h6.51v6.03h-6.51Z"/> <path d="M74.41,79.93h-3.2v7h3.19v9.95h-13.17v-9.89h3.17v-7h-3.21v-9.8h3.24v-3.28h6.64v3.22h3.34v9.8Z"/> <path d="M144.19,77.11h50.56v59.76h-50.56v-59.76ZM157.25,100.37v3.27h23.78v-3.3h2.99v-13.63h-6.94v6.3h-13.63v-6.27h-6.28v3.27h-3.48v10.36h3.57Z"/> <path d="M22.8,59.96h-6.16v-6.24h6.16v6.24Z"/> <path d="M163.56,100.24v-3.2h13.46v3.2h-13.46Z"/> </g> </g></symbol>
<symbol id="ag-vinyl" viewBox="0 0 829 839"><g id="Layer_1-2" data-name="Layer_1"> <g> <path d="M829,576h-50v106h-51v52h-54v52h-104v53h-311v-53h-104v-52h-53v-52h-52v-107H0v-310c14.56,0,29,0,43.45,0q6.77,0,6.77-6.87c0-31.85,0-63.7,0-96.13h50.78v-54h54v-53h104V0h311v55h103.81c0,4.15,0,7.74,0,11.33,0,11.63-.07,23.25,0,34.88.06,8.49-1.65,7.77,8.04,7.81,13.12.04,26.24,0,39.36,0,1.8,0,4.44,0,6.78,0v53h51v103h50v311ZM206,160h-52v51h-52v157h53v-103h50v103h53v157h52v51h209v56h51v49h-51v52h104v-51h52v-52h53v-157h-54v102h-47v-56h-56v-202h-51v-53h-210v-53h-51v-50h51v-54h-104v53Z"/> <path d="M368,460v-91h93v91h-93Z"/> <path d="M257.58,211.63v51.85h-51.08v-51.85h51.08Z"/> <path d="M259.39,265.05h49.6v50.79h-49.6v-50.79Z"/> <path d="M622.63,578.57v46.06h-48.09v-46.06h48.09Z"/> <path d="M565.52,572.56h-44.94v-47.03h44.94v47.03Z"/> </g> </g></symbol>
<symbol id="ag-willow-tree" viewBox="0 0 662.14 687.42"><g id="Layer_1-2" data-name="Layer_1"> <g> <path d="M73.63,687.42v-25.09h144.3v-21.8c8.84-.68,17.37-1.33,26.47-2.02.45-7.68.88-15.11,1.35-23.23h26.31v-50.75c7.64-.39,14.89-.76,22.72-1.16v-121.68h-23.99v-73.33c-9.48-.6-18.2-1.16-27.5-1.75.6-16.01,1.18-31.56,1.78-47.51-9.06-.59-17.6-1.14-26.62-1.72v-23.58h-23.73v96.74h-24.13v-119.45h-25.01v170.33h-23.58v-149h-23.96v26.89h-24.42v194.1h-24.82v-71.53h-22.96v-49.82h22.48v-96.92h25.01c.5-8.22.96-15.91,1.49-24.52h22.3v-24.72h98.08v24.24h50.26v23.75h24.29v26.64h25.64v-98.85h-23.05v-24.43h-25.51c-.49-9.24-.93-17.49-1.37-25.79h-26.33v71.92h-24.44v-119.67h-24.39v72.62h-23.64v-48.21h-25.75v72.82h-24.4v-73.44h-23.55v24.05h-25.66v73.67h-23.08c-.72,32.63-1.42,64.35-2.13,96.39H0v-142.11c6.9-.36,14.62-.77,23.1-1.22v-51.18c8.14-.47,15.54-.89,23.04-1.33.34-7.35.67-14.72,1.04-22.84h99.52v-24.5h73.18v24.65h26.02v24.02h23.85v22.64c8.61.6,16.79,1.17,25.22,1.75.17-1.13.39-1.92.39-2.71.26-28.14.5-56.29.74-84.43,0-.83-.03-1.67-.07-2.5-.38-7.7-.63-7.83-8.26-8.19-5.27-.25-10.53-.86-16.34-1.36v-22.8h-49.85v-24.03h-51.54v47.88h-23.56v-23.96h-25.8v-24.01h48.38V.58h77.84v25.38h49.16v23.76c8.03.57,15.71,1.11,23.82,1.68v20.4h24.01V26.63c16.45-.62,32.98-1.25,49.59-1.88V0h119.4v23.74h-49.12v48.42h-22.99V23.27h-23.64v25.61h-49.56v74.79h-23.96v73.11h24.03v-50.45h24.53v-22.3h25.12c.52-7.95,1-15.22,1.55-23.69h68.9v23.59h76.15v22.94h49.99v22.92c8.48.99,16.36,1.9,24.87,2.89v95.63c8.07.59,15.6,1.14,23.38,1.71v71.39h-24.82c-.71-23.48-1.4-46.73-2.12-70.65h-22.06v-72.68c-7.85-.63-14.92-1.19-22.95-1.83-.38-7.94-.77-15.96-1.2-24.82-15.83.55-31.53,1.09-48.17,1.67v-25.11h-52.64v24.77c-7.4-.33-14.27-.63-22.03-.97v-47.94h-25.16v23.42h-24.85v24.12h-24.32v48.42c4.17,0,8.95.03,13.72,0,10-.07,20-.42,29.99-.14,4.29.12,5.05-1.57,4.92-5.22-.2-5.49-.05-10.99-.05-16.88h75.27v22.26h46.83v25.09h25.94v72.74h27.77c-.51,8.48-.96,16-1.46,24.25h-24.45v49.09h23.86v123.3h-25.09v-73.15h-24.01v-171.29h-24.31c-.84-7.66-1.72-14.71-2.32-21.78-.28-3.23-1.35-4.67-4.89-4.49-5.95.29-11.93.08-18.36.08v74.59h-24.88v-96.25h-24.83v168.26h-23.89v-146.15h-25.32v146.31h-24.36v-146h-24.27v48.24h-25.01c-.17,1.57-.37,2.53-.36,3.49.29,63.32.62,126.65.81,189.97.01,4,2.55,3.85,4.87,3.93,6.13.19,12.26.07,19.46.07v124.5h23.66v24.75h50.65v23.07h98.98v24.97H73.63Z"/> <path d="M540.7,345.14v121.17h-25.98v-121.17h25.98Z"/> <path d="M540.15,96.38h-24.43c-.68-23.53-1.36-47.07-2.06-71.41h25.06v25.68h50.39c.26,5.19.61,10.61.78,16.04.22,6.99.16,7-6.66,7.01-12.49.01-24.99,0-37.48,0-1.77,0-3.55,0-5.6,0v22.68Z"/> <path d="M193.95,489.34h-23.36v-74.22c7.51.34,15.18.69,23.36,1.06v73.16Z"/> <path d="M415.63,416.45v49.48h-24.25v-49.48h24.25Z"/> <path d="M97.16,48.46c6.76.6,13.18,1.07,19.56,1.83,1.12.13,2.99,1.49,3,2.31.18,15.57.13,31.15.13,47.04h-22.69v-51.18Z"/> <path d="M588.85,75.09h24.98v45.86h-24.98v-45.86Z"/> <path d="M121.41,467.43h23.89v45.7h-23.89v-45.7Z"/> <path d="M218.69,51.74v22.55h-24.54v-22.55h24.54Z"/> </g> </g></symbol>
</svg>