<?xml version="1.0" encoding="UTF-8"?>
<svg id="Layer_2" xmlns="http://www.w3.org/2000/svg" viewBox="0 0 527.32 869.14">
  <g id="Layer_1-2" data-name="Layer_1">
    <g>
      <path d="M519.35,788.44h-20.12v22h28.08v58.7H0v-58.38h27.44v-22.12H8.08v-52.88h19.42v-24.09h22.11v-20.93h21.92v-17.92h23.44v-33.03h-22.85v-32.07h22.44v-27.95h32.94v-41.93h22.08v-59.08h20.74v-91.1h-44.5v-19.91h-28.86v-48.98h21.6v-20.91h44.85v-35.26h-22.81v-20.04h-21.56v-109.81h23.38v-22.95h20.15v-18.07h22.93v-17.92h20.94V27.73h22.1V0h69.9v27.36h22.39c0,2.27,0,4.01,0,5.75,0,12.17.07,24.33-.08,36.49-.04,3.02.85,4.16,3.95,4.06,5.95-.19,11.91-.06,18.28-.06v17.91h21.49v17.97h21.72v23.04h22.18v109.88h-21.66v19.9h-22.8v35.17h44.5v20.92h21.79v49.13h-28.44v19.87h-43.88v90.92h19.96v59.16h20.67v42.01h33.93v27.93h22.76v32.06h-23.33v32.9h22.65v19.11h22.92v19.93h21.93v24.11h19.98v52.93ZM341.34,110.31h-21.83v-18.98h-21.93v-17.93h-22.08v-17.48h-23.12v17.78h-22.94v17.94h-21.94v18.95h-21.36v21.25h-21.67v29.06h-18.83v53.01h19.12v28.17h21.06v18.76h21.96v15.09c.52.36.65.53.79.53,36.16.07,72.32.11,108.48.2,2.93,0,3.69-1.4,3.59-4.06-.15-3.91-.04-7.83-.04-12.17h20.67v-18.83h22.57v-28.07h17.46v-52.8h-17.88v-29.11h-22.09v-21.29ZM88.56,736.7h-18.61v25.58h346.77c0-3.45-.25-6.61.04-9.72,1.3-13.78-4.01-24.79-14.19-33.6-5.07-4.38-10.29-7.81-17.94-7.67-27.15.52-54.31.2-81.47.2-1.75,0-3.49,0-5.12,0v-25.12h59.39v-23.61h-222.92v24.98h-21.9c0,6.56-.25,12.57.08,18.54.24,4.32-1.44,5.47-5.48,5.29-6.09-.27-12.19-.07-18.66-.07v25.2ZM159.82,579.23h207.58v-22.3h-14.87v-19.57h-19.99v-59.81h-17.72v-89.77h-103.31v28.96h-15.15v97.26h-18.05v42.89h-18.49v22.33ZM45.85,833.23h434.81v-22.72h-15.02v-21.65H60.87v21.75h-15.02v22.62ZM120.82,633.31h285.57v-24.51H120.82v24.51ZM143.81,347.03h240.89v-28.22h-240.89v28.22Z"/>
      <path d="M303.26,241.51c-1.73-8.82.35-16.09,4.43-23.47,3.56-6.44,5.41-13.83,7.98-20.81.56-1.52,1.05-3.07,1.49-4.64,1.21-4.33,1.32-8.06-2.47-11.74-12.95-12.58-25.55-25.52-39.01-39.06h20.01v-22.83c7.95,8.02,14.84,15.14,21.92,22.08,8.77,8.6,17.77,16.97,26.45,25.65,1.42,1.42,2.4,3.95,2.43,5.98.21,14.33.15,28.66.06,42.99,0,1.54-.26,3.56-1.23,4.52-6.45,6.43-13.02,12.77-19.82,18.83-1.63,1.45-4.29,2.24-6.54,2.39-5.13.35-10.31.11-15.71.11Z"/>
      <path d="M273.99,416.74h20.44v84.65h14.76v55.15h-22.3v-33.61h-12.9v-106.19Z"/>
    </g>
  </g>
</svg>