<?xml version="1.0" encoding="UTF-8"?>
<svg xmlns="http://www.w3.org/2000/svg" version="1.1" viewBox="0 0 747.3 886.8">
  <!-- Generator: Adobe Illustrator 28.7.1, SVG Export Plug-In . SVG Version: 1.2.0 Build 142)  -->
  <g>
    <g id="Layer_1">
      <g id="Layer_2">
        <g id="Layer_1-2">
          <g>
            <path d="M76.5,25V.1h659.1c1.7,0,3.4-.2,5,.1,4.2.7,6.7,2.2,6.7,7.6-.5,60.3-.9,120.6-.9,181,0,102.2.2,204.3.3,306.4v283.8h-27.4v5.2c0,24,.2,48,0,72,0,4.2,1.5,5.1,5.2,5,7.3-.2,14.6,0,22.2,0v25.8H53.3c-.7-8.2-1.4-16.2-2.2-25-8.3-.6-16.6-1.2-25.7-1.8v-27.9H0V82.1h19c4.3,0,6.7-1.2,6.4-6.3-.5-6.8-.1-13.6-.1-21,8.5-.6,16.5-1.2,25.5-1.8v-26.5c9-.5,17.1-1,25.8-1.6h0ZM720.3,752.3V26.6H116.1v712.9c0,2.8.7,5.6.7,8.4s1.9,4.5,5.4,4.5c17.5,0,35,.6,52.4.5,38.5,0,77-.6,115.4-.5,59,0,117.9.9,176.9.9s119-.6,178.4-.9c23,0,46,0,69,0h6ZM693.2,778c-203.9,1-407.2,1.9-611.5,2.9v25.7h-25v29.8h21c2.4,0,4.2.4,4.3,3.5,0,4,.7,7.9,1,11.9.4,7.4.4,7.7,7.6,7.8,19.3.4,38.6.6,58,.7,66.6.2,133.3.4,199.9.5h344.6v-82.7h0ZM23.8,660.6h53.4v-25.3c0-3.3-2.1-3.5-4.7-3.5-14.5-.2-29-.4-43.4-.7h-5.3v29.5h0ZM77.5,161c0-7.8-.2-15.1,0-22.4,0-3.7-1-4.8-4.8-4.8-15.1-.1-30.2-.6-45.4-.9-1.3,0-2.5.2-3.7.3v27.8h53.9Z"/>
            <path d="M234.4,683.7v13.9h-22.5v-101.7h22.4v57.8h11v-13.8h11.3v13.9h11.1v-57.8h22.4v101.6h-22.1v-13.9c-3.8-.2-7.2-.4-11.3-.6v-14.1h-11.1v14.1c-4,.2-7.4.4-11.3.5h.1Z"/>
            <path d="M485.7,212.1v14c3.9.2,7.3.4,11,.6v28.8h-10.5v29.4h10.7v14.5h11.2v14.5h-21.9v-14c-4-.2-7.6-.4-11.7-.6v-14.3h-10.9v-14.4h-11.1v28.5h10.5v14.6h-44.3v-14.1c3.4-.1,6.8-.3,10.6-.5v-72.8h-10.7v-14.2h67.1,0ZM474.1,226.7h-21.6v28.6h21.6v-28.6Z"/>
            <path d="M484.6,610.3h-10.6v-14.3h55.9v14.1h11.2v14.8h11.1v43.7c-3.5.2-7,.3-10.9.5v14.5h-11.2v14.2h-56.1v-14.1c3.5-.2,6.9-.3,10.6-.5v-72.8h0ZM518.6,683.2v-14.3h11v-44h-11.2v-14.2h-10.5v72.6h10.7Z"/>
            <path d="M512.9,171.1v-13.9h22.2v28.5h-78.2v-14.1c3.5-.2,7-.4,10.8-.6v-72.7h-10.7v-14.4h78.3v28.8h-22.4v-14.2h-22v29h21.8v14.6h-21.8v28.9h22Z"/>
            <path d="M535.3,541.3v28.5h-78.3v-14.1c3.4-.2,6.8-.3,10.6-.5v-72.9h-10.7v-14.2h78.3v28.6h-22.1v-14h-22.1v28.9h21.8v14.6h-21.9v28.8h21.8v-13.6h22.7-.1Z"/>
            <path d="M425.6,468h22.5v101.7h-22.1v-43.1h-22.3v43.1h-22.2v-101.7h21.8v43.3h22.3v-43.3h0Z"/>
            <path d="M448.2,185.8h-22.3v-43.3h-22.3v43.2h-22.1v-101.7h21.8v43.2h22.5v-43.3h22.5v101.7h0v.2Z"/>
            <path d="M265.5,226.1h-10.6v-14.1h67.3v14c3.9.2,7.3.3,11,.5v28.6c-3.5.2-6.9.3-10.8.5v14.5h-33.6v29.1h10.4v14.5h-44.4v-14.2h10.6v-73.4h0ZM289,226.5v29.2c6.6,0,13.2,0,19.8-.1.7,0,2-1.4,2-2.1.1-8.9,0-17.9,0-27h-21.9.1Z"/>
            <path d="M359.1,354.1v-14h33.8v14h11.3v14.6h10.9v43.9h-10.5v14.6c-3.9.2-7.3.3-11.4.5v14.1h-33.8v-14c-3.8-.2-7.2-.4-11.2-.6v-14.1c-4-.2-7.5-.3-11.2-.5v-43.6h10.9v-14.4c3.9-.2,7.3-.3,11.3-.5h0ZM392.6,369h-11.1v-14.4h-11.2v14.6h-10.8v43.8h11v14h11.1v-14.2h11v-43.8h0Z"/>
            <path d="M321.1,697.7v-14c-3.8-.2-7.2-.4-11.1-.6v-14c-3.9-.2-7.3-.4-11-.6v-43.4c3.4-.2,6.8-.3,10.9-.5v-14.2h11.2v-14.4h33.8v14.1h11.2v14.8h11.1v43.7c-3.5.2-7,.3-10.9.5v14.5h-11.2v14.2h-34ZM321.7,625.1v44h11v13.8h11.1v-13.8c3.9-.2,7.3-.3,10.8-.5v-43.7h-11.1v-14.2h-11.2v14.4h-10.6,0Z"/>
            <path d="M409.2,683.5h-11.2v-14.6h-10.9v-43.9h10.8v-14.5h11.1v-14.4h34v14.3h11.3v14.4h11v43.8c-3.4.2-6.8.3-10.8.5v14.4h-11.2v14.2h-34v-14.2h0ZM409.6,669.2h11.2v13.9h11v-14.2h10.8v-44h-11.2v-14.3h-10.8v14.5h-11v44.1Z"/>
            <path d="M424.2,340h78v28.8h-22.3v-14.2h-22.1v29h21.8v14.6h-21.7v29.2h10.6v14.4h-44.5v-14.3h10.7v-72.8h-10.5v-14.6h0Z"/>
            <path d="M179.4,226.4h10.8v-14.4h44.9v14.2h11.1v14.6h-22.2v-14.2h-22.1v14.1h10.8v14.9h11.3v14.3h22.2v29.3c-3.6.2-7,.3-10.7.5v14h-44.9v-14c-3.8-.2-7.1-.3-10.9-.5v-14h21.8v13.7h22.3v-13.8c-3.5-.2-6.8-.3-10.7-.5v-14.2h-22.5v-14.6c-3.9-.2-7.3-.3-11-.5v-28.8h-.2Z"/>
            <path d="M561.4,639.2v-28.6c3.6-.2,7-.3,10.8-.5v-14h45v14c3.9.2,7.3.3,11,.5v14.1h-22.2v-14.1h-22.1v14.1h10.6v14.6c4,.2,7.4.4,11.3.6v14h22.5v29.3c-3.5.2-6.9.3-10.7.5v13.9h-45v-13.9c-3.9-.2-7.3-.3-11-.5v-13.9h21.9v13.7h22.3v-14c-3.4-.2-6.8-.3-10.7-.5v-14.1h-22.3v-14.7c-3.9-.2-7.3-.3-11.2-.5h-.2Z"/>
            <path d="M342.4,226.5v-14.5h66.8v14.2h-21.8v72.9h21.8v14.6h-66.7v-14.4h21.6v-72.9h-21.7Z"/>
            <path d="M584.3,212v14.1h-21.8v73.1h21.7v14.5h-66.7v-14.3h21.5v-73.1h-21.5v-14.4h66.8Z"/>
            <path d="M637.2,313.9h-22.7v-87.2h-11v14.1h-11v-28.7h66.6v28.7h-10.7v-14.2h-11.2v87.3h0Z"/>
            <path d="M351.2,569.9h-22.7v-87.2h-11v14.1h-11v-28.7h66.6v28.7h-10.7v-14.2h-11.2v87.3h0Z"/>
            <path d="M351.1,185.9h-22.7v-87.2h-11v14.2h-11v-28.7h66.7v28.8h-10.6v-14.3h-11.4v87.3h0Z"/>
          </g>
        </g>
      </g>
    </g>
  </g>
</svg>