<?xml version="1.0" encoding="UTF-8"?>
<svg id="Layer_2" xmlns="http://www.w3.org/2000/svg" viewBox="0 0 519.71 914.32">
  <g id="Layer_1-2" data-name="Layer_1">
    <g>
      <path d="M232.09,406.65v18.07h-18c-.53,13.51-1.03,26.39-1.55,39.55-5.7.59-11.41,1.18-17.4,1.81-.51,18.06-1.01,35.98-1.54,54.53-6.53-.32-13.05-.65-20.05-1v78.02h-18.11v58.88h-18.36v75.16h-20v76.95h-20.96v78.86h-18.98v26.77H18.25v-29.32H0v-76.82c6.02-.65,11.57-1.26,17.79-1.94v-74.1h20.1v-75.75c6.27-.45,11.98-.86,18.62-1.34v-58.7c7.31-.4,13.7-.75,20.54-1.13v-77.74h17.51v-92.59h18.97c0-11.14,0-21.74,0-32.33.02-19.66.14-39.33,0-58.99-.02-3.13,1.28-3.67,3.83-3.63,5.13.07,10.25.02,15.57.02v-132.78c-6.07-.55-12.1-1.09-18.07-1.63v-98.26c6.4-.65,11.98-1.22,18.02-1.83v-34.31h20.21c-.33-6.72-.62-12.76-.93-19.21,6.67-.43,12.93-.84,19.84-1.29v-18.24c6.08-.52,11.49-1.27,16.91-1.34,3.59-.05,4.14-1.77,4.1-4.65-.07-4.96-.02-9.92-.02-15.6h56.64v94.69h18.89V1.95c19.84-.66,38.85-1.3,58.42-1.95v20.65h18.91v20.28c6.86.43,13.15.82,20.02,1.25v18.6h18.67c0,5.19.04,9.95,0,14.7-.06,6.16-.12,12.32-.3,18.48-.08,2.78,1.04,3.88,3.83,3.79,4.46-.14,8.93-.04,13.69-.04v96.9h-17.58v131.95c6.26.35,12.32.68,18.33,1.02v95.1h20.61c0,2.48,0,4.54,0,6.61-.02,27.66.05,55.32-.17,82.98-.04,4.42,1.18,5.93,5.61,5.58,4.59-.37,9.24-.08,13.77-.08v77.91h19.08v59.92c5.8.47,11.53.93,18.11,1.47v73.88c6.75.31,12.69.59,19.16.89v74.83h21.03v77.92h-20.52v29.75h-57.02v-27.46h-21.79c.53-26.5,1.05-52.41,1.57-78.7-5.48-.66-11.01-1.32-16.84-2.02v-74.39h-22.88v-74.91h-18.56v-60.12h-18.39v-76.81h-18.93v-55.24c-3.59,0-6.68,0-9.78,0-7.95,0-8.26-.33-8.26-8.54,0-9.33,0-18.66,0-27.99,0-.96-.09-1.92-.16-3.32-6.32.33-12.35.65-18.86.99v-17.76c-6.1-.6-11.8-1.16-18.25-1.79,0-3.74,0-7.65,0-11.57q0-7.01-6.77-7.01c-4.33,0-8.66.06-12.99.12-.29,0-.57.25-1.2.55v18.45c-6.24,0-12.15,0-18.06,0-.85-6.19-1.69-12.38-2.62-19.19h-36.02v-38.43c6.62-.51,12.98-1,19.35-1.49v-18.15h-78.73v96.53c-4.61.23-8.94.86-13.2.54-4.61-.35-5.79,1.65-5.74,5.72.33,26.14.58,52.28.85,78.43.02,2.25,0,4.5,0,6.64-6.3.55-11.9,1.04-18.35,1.61-.5,24.44-.96,48.69-1.53,72.94-.08,3.44,2.02,3.74,4.49,3.77,7.83.07,15.66.09,23.49.12,3.93.01,7.86,0,12.32,0v-18.67c6.45.29,12.37.55,19.38.87v-77.52c5.2.46,9.27.82,13.35,1.19,3.64.33,5.36-.77,5.36-4.98.01-16.16.41-32.31.68-48.47.02-1.45.17-2.89.29-4.66h17.81v-36.67c2.62,0,4.6.01,6.58,0,10.77-.08,21.55-.18,32.32-.27ZM366.07,518.81v57.28h16.73c.43,6.17.86,12.45,1.3,18.68.9.32,1.52.72,2.15.72,10.33.08,20.66.11,30.98.16,2.8.01,3.05-1.72,3.04-3.99-.07-11-.02-21.99-.02-32.99,0-12.46,0-24.92,0-38.11h-17.89v-95.24h-19.55v-95.72h-17.86c0-5.37.24-10.34-.13-15.26-.13-1.75-1.65-4.73-2.75-4.84-5.37-.51-10.81-.23-16.28-.23v17.44h-35.49c-.52,20.57-1.03,40.6-1.55,61.18h-18.39v16.53c12.38,1.31,24.32,2.58,36.78,3.9v34.5c4.57,0,8.72.22,12.84-.06,3.97-.28,5.21,1.18,5.18,5.13-.14,15.66-.07,31.33.1,46.99.09,7.92.58,15.84.89,23.93h19.9ZM135.41,115.91v58.68h17.77v-39.51h37.57v40.35h-36.46v18.11h56.67v-18.34h97.17v17.95h54.74v-18.87h-35.55v-39.12h36.59c0,12.12.09,23.92-.07,35.72-.04,2.55.46,4.23,3.08,4.66,3.09.51,6.21.81,9.31,1.31,4.35.7,5.87-1.05,5.83-5.46-.15-17.82-.02-35.65-.01-53.48,0-.62-.26-1.23-.43-1.99h-246.21ZM214.01,308.54h17.14v-18.38h57.61v-38.5h-18.17c.6-18.95,1.19-37.52,1.77-56.13h-41.29v36.51c-3.84.24-7.31.76-10.75.59-4.13-.21-5.41,1.26-5.43,5.43-.06,13.64-.64,27.28-.85,40.92-.15,9.77-.03,19.55-.03,29.56ZM325.03,41.89v-19.86h-36.72v73.44h74.47v-31.77c-6.36-.41-12.43-.8-18.26-1.17v-20.64h-19.48ZM154.56,97.58c25.12-.11,50.03-.55,74.71-2.79V22.08h-37.48v19.89h-16.93v23.05h-20.29v32.56ZM362.79,290.56v-77.15h-72.2v18.62h19.3v37.09c5.82.42,11.33.81,17.22,1.23v20.2h35.68ZM212.33,213.25h-58.73v76.19h39.96v-56.65c5.72-.44,11.44-.88,17.22-1.32.52-6.14,1.02-12.03,1.55-18.22ZM271.7,347.57h-21.69v-20.04c-6.5-.35-12.53-.68-18.15-.99v41.9h57.99v-58.82h-39.87c0,4.72.15,8.85-.05,12.96-.15,3.14,1.21,4.07,4.13,4.01,5.78-.12,11.57-.04,17.64-.04v21.01ZM307.67,308.82v-17.84h-18.33c0,5.21-.17,10.29.16,15.33.06.9,2.12,2.32,3.31,2.39,4.8.28,9.62.11,14.86.11Z"/>
      <path d="M344.45,348.97h20.16v19.52h-20.16v-19.52Z"/>
      <path d="M174.31,349.67v20.76h-20.83v-20.76h20.83Z"/>
    </g>
  </g>
</svg>