<?xml version="1.0" encoding="UTF-8"?>
<svg xmlns="http://www.w3.org/2000/svg" version="1.1" viewBox="0 0 783.9 794.4">
  <!-- Generator: Adobe Illustrator 28.7.1, SVG Export Plug-In . SVG Version: 1.2.0 Build 142)  -->
  <g>
    <g id="Layer_2">
      <g id="Layer_1-2">
        <g>
          <path d="M499.9,36.1v-19.3h41.4V0h127.2v16.5h35.2v18.9h31.7v18.8h15.8v20.1h18v36h14.8v123.1h-13.5v24c-4.8,0-9,.1-13.3,0-2.6,0-3.6.8-3.5,3.4.1,5.3,0,10.6,0,16.5h15.8v20.9h-20.1v89.7h-14.9v14.9c-2.5.2-4.5.4-7.1.6v12h-12v10.6h-28v12h-28v13h-35.2c1.5,2.9,2.6,4.8,3.4,6.7.5,1.1.9,2.4.9,3.6,0,5.2.2,10.3,0,15.5-.1,3.3,1.3,4.6,4.4,4.5,4.3-.2,8.5-.5,13.1-.8.1,2.5.2,4.4.4,6.7,1.5.2,2.9.4,4.5.6.1,1.2.2,2.5.4,4h5.6c.2,2.2.3,4.1.5,6.4,2.1.2,4.2.4,6.6.6v47.7c-1.3.3-2.9.6-4.8.9v19.2c-11.2.3-4.5,9.3-7.3,14.1-1.6.2-3.4.4-5.6.6v10.1c-2.1.3-3.8.6-5.8.9-.6,4-1.2,8-1.8,12.5-1.9.1-4,.2-6.4.4-.1,2.8-.3,5.4-.4,8.4-2.5.2-4.8.3-7.6.5-.1,2.8-.3,5.4-.4,8.5-2.2.3-4.4.5-6.8.8-.3,1.7-.7,3.3-1.1,5.4h-12.5c-.2,2.4-.4,4.3-.5,6.2-7.3,2.1-28.7,1.1-31.3-1.3-1.7,2.9-3.3,5.8-5,8.8-.3.6-.7,1.1-1.2,1.5-1.3.9-2.8,1.7-4.1,2.6,1.2,1.9,2.5,3.8,3.6,5.7.5.9,1,1.8,1.3,2.8.4,1.1.2,2.6.8,3.2,4.4,4,3.1,9.2,3.2,14.1,0,8.8,0,17.7,0,26.5,0,1.9.5,3.7-2.6,4.4-1.2.3-1.8,3.7-2.3,5.8-.4,1.6,0,3.3,0,5.5-2.5.1-4.9.2-7.8.4-.2,2.8-.3,5.6-.5,8.5-1.8.2-3.5.4-5.6.6-.9,2.8-1.8,5.8-3,9.4-1.4.1-3.5.3-5.9.5-.2,2.2-.3,4.3-.5,6.8h-9c-.3,2.3-.5,4.2-.8,6.7-4.4.8-11.3-1.9-10.5,7-3.1.2-5.9.4-8.6.6-.3.3-.6.6-.6.8-.4,5.1-3.2,7.7-8.2,7.7h-9.9c-.3,3-.5,5.7-.8,8.7h-55.4c-.2-2-.4-4-.6-6.2-3.8-1.3-5.4.2-5,4.2-4.4-.4-5.9,1.8-5.1,5.9-1.9.3-3.3.5-4.8.7-.1,1.7-.3,3.1-.4,5-2.1.3-4.1.6-6.5,1-.2,1.3-.4,2.8-.7,4.5h-13.2c-.2,2.3-.4,4.2-.6,6.5h-89c-.2-2-.4-4.1-.6-7h-15.3c-.2-3.8-.3-6.9-.5-10.2h-10.6c-.2-2.6-.3-5-.5-7.7-1.9-.2-3.6-.4-5.8-.7v-10.2c-2.1-.3-3.8-.5-6-.9,0-8.1-.7-16.1.2-24,.7-5.9-3.4-8.2-6.2-11.5-3.6-4.3-9.8-5.7-12.4-11.4-.9-1.9-4.1-2.7-7-4.5v10.4h-45.5c-.2-1.7-.4-3.4-.7-5.6h-12.1c-.2-2.5-.3-4.4-.5-6.9h-9.5c-.2-2.5-.3-4.5-.4-6.8-2.5-.2-4.9-.3-7.6-.5-.2-2.6-.3-5-.5-8.1-6.7,1.8-8.9-1.4-7.6-7.4-5-.8-7.8-3.8-8.5-9-1.7-.2-3.4-.3-5.8-.6-.2-3-.4-6.1-.6-9.4-10.7.7-5.1-7.8-7.2-12.7h-7.9c0-4.7,0-9,0-13.3q0-4.5-4.4-5.7c0-15.2,0-30.5,0-45.8,0-1.1.9-3.2,1.4-3.2,5.4,0,5.3-3.8,5.1-8.1h8.7c.2-3.2.3-5.8.4-8.7,1.8-.2,3.5-.5,5.2-.7-.2-.3-.5-.6-.7-.9,1.6-1.5,3.3-3,4.8-4.7.7-.8,1.4-1.8,1.5-2.8.1-9,0-18,0-27.6h-42.9v-15h-34v-11h-12.1v-12.3h-11.9v-15.6h-14v-92h-11.6c-.3-2.1-.5-3.9-.9-6.1h-13.6v-20.9c3.5,0,7.1.3,10.7-.1,1.2-.1,3-1.9,3.1-3,.3-5.3.1-10.6.1-16.6h-12.9v-28.1H0v-121.6h14.5v-31h16.1v-21.8h17.9v-18.2h23.1v-21.9h40.8v-17.9h125.7v17.6h41v21.7h27.1v18.8h16.9v20.4h15v31h16v122.6h-12.6v27.6c-3.9,0-7,.1-10.1,0-2.9-.1-4.2.6-4.1,3.9.3,5.8,0,11.6,0,17.8h13.5v19.7h-15.3c-.3,2.1-.5,3.7-.9,5.9h-12.3v91.2h-11.7v15.8c-4.4.2-8.5.5-13.1.7v12.5h-11.2v9.8h-35.8v16h-40.8v24.5h16.6c.2,3.1.4,5.7.6,8.1,6.7,1.1,13.1,2.2,19.6,3.3v6.2c2.2.1,4.4.3,6.8.4.2,1.5.3,2.9.6,4.9h9.2c.6,4.6,1.1,8.8,1.7,13.3,1.2.3,2.6.6,4.2,1,.2,1.7.4,3.5.6,5.5,8.5-.1,4.6,6.9,6.2,11.1,1.7.2,3.3.3,5.2.5v11c1.7.5,3,.8,4.5,1.3.2,2.7.3,5.3.5,8.1,1.7.2,3.1.3,5.1.5v13.1c1.8.3,3.2.6,4.9.9v37.1c-1.4.1-2.9-.2-3.8.4-1.4.9-2.3,2.5-3.5,3.8,1,.9,2,1.8,3,2.6,1.8,1.4,3.5,2.8,5.4,4,1.1.7,2.5.9,4.2,1.4.2-2.3.4-4,.6-6.1,3.6-.5,7.3-1.1,11.3-1.7.3-1.7.5-3.4.9-5.7h12.3c.2-2.5.3-4.5.5-6.6h79.8c.2,2.5.4,4.7.7,7.3h10.1c1,3.8,2,6.7,5.1,1.4,1.9-3.2,4.4-6.1,6-9.6,3.2-1.6,6.4-3.2,4.9-7.9,5.7-1.1,8.9-4.3,9.6-9.8,2.3-.2,4.7-.3,7.4-.5.1-2.7.2-5.3.4-8.4h10.8c.2-2.7.4-5,.5-7.5,5-.2,9.8-.5,15.1-.8.1-2.7.3-5.4.4-8.8h16.5c.2-2.5.3-4.5.5-7.4h9.8c5.7,0,11.4.3,17,0,5.2-.4,8.8,1.7,12.2,5.2,1.7,1.7,4.4,2.4,7.4,4,.2-3.8.4-6.1.5-8.4.3.2.5.4.8.6,1.3-1.7,2.6-3.4,4.6-6-3.4-.3-5.1-.5-7.3-.7-.5-3.1,1.4-8.2-5.3-6.8v-13.5c-2-.3-3.8-.6-5.8-.9v-36c2.2-.2,4.1-.3,6.6-.5v-33.5c2.2-.2,3.8-.3,5.9-.5v-13.6c2.4-.3,4.3-.5,6.8-.7.2-2.5.4-5.1.7-8.1,2-.2,4.1-.4,6.5-.6.2-2.4.3-4.6.5-7.4,2-.2,4.1-.4,6.4-.6.2-1.5.4-2.9.7-4.6h7.3c.2-2.3.5-4.4.7-7.1h24.7c0-6.4,0-12.2,0-18,0-1.9-.7-4,2.5-4.4.8,0,1.2-2.7,2.2-5h-35.8v-14h-28.9v-11.9h-25.7c-.2-3.8-.4-7.2-.6-11.1h-11.3v-11.7c-2.5-.1-4.6-.3-7.2-.4v-15h-13.7v-86.9h-18.2c-.2-2.8-.4-5.2-.5-7.9-2.4-.2-4.7-.3-7.4-.5v-15.2h15.2v-20.1h-15.4v-24.3h-16.1v-122.8h15.7v-36h19.1v-20.1h16.4v-18.4h23.9,0ZM514.5,74.4h20.6c.3-3.1.5-5.3.8-7.9h17.8c7,0,10.7-3.4,11-10.1,0-.3.2-.6.4-1.2h71.8c.2,3.2.4,6.1.7,9.5h33.3c.2,3.4.3,6.4.5,9.9h17.9v17.9h13.3v15.1h13v25h13v30.2c3.5.1,6.4.3,9.8.4v62.8h8.3v-14.4c2.9-.2,5.2-.4,7.4-.6v-47.8c-2.6-.2-4.8-.3-7.8-.5v-44.4h-14.8v-26.5h-12.2v-17.8h-16.8v-11.2h-19.7v-19.7h-21.9c-.2-3.2-.3-6-.4-8.8h-104c-.2,3.3-.3,6.4-.4,9.8h-22.9v12.1h-18.5v18.2c-6.8-.3-13.6-.6-20.8-.9v19.7h-10.1v16.8h17.1v-16.8h13.7v-19h0ZM506.8,225.7c0,5.9.2,11.2,0,16.5-.1,3.1,1.1,4.2,4.1,4,2.7-.1,5.5,0,8.7,0v16.2h18.8v13.3h26.2v13.5h79.2v-13c8.8,0,17.1-.2,25.4,0,4,.1,5.8-.9,5.4-5.2-.3-3,0-6.2,0-9.7h13.2v-13.6c3.3-.2,5.9-.3,9.1-.4v-20.7h13.7v-61.2c-3.7-.2-7.1-.4-10.9-.5v-27.8h-13.2v-15.9h-15.8v-14.3h-23.2c0-3.8,0-7.2,0-10.5,0-2.7-1-3.8-3.9-3.8-25.5,0-51,0-76.5,0-3.1,0-3.6,1.4-3.5,4,.1,3.4,0,6.8,0,9.8-8.9.9-16.9,1.8-25.4,2.7v12.2h-12.9v16h-14v27.1h-13v61c2.9.1,5.5.3,8.6.4h0ZM107.5,355.3h33.8v12.8h70.6v-14.8h29.9v-18.1h13v-15.6h13.8v-21.7c2.9-.2,5.3-.5,7.7-.7v-48.6c-2.6-.2-4.9-.3-7.9-.5v-26.9h-12.9v-20.2h-14.9v-12.7h-19.3v-16.6h-91.7v17.1h-21.3v12.4h-13.1v22h-14.1v25c-4.1.2-7.7.4-11.2.5v47.2h11.2v25.3h13.2v14.2c2.7,0,4.8.2,6.9,0,4.7-.6,6.7,1,6.2,6-.4,4.3,0,8.6,0,13.8h0ZM43.3,250.1c2.1-.4,3.7-.7,5.6-1.1v-25.8h9.9v-26.7h14.1v-23.8h12.8v-15.3h22.2v-13.9h30.8v-11.2h90v11.4h23v14h17.7v16.3h14.9v23.7h11.5v18h10.6v80.6h7.1v-13.4c2.2-.2,4.1-.5,6.1-.7v-82.1h-12.1v-18.4c-3.3-.1-6-.3-9.2-.4v-29.3h-20.7v-11.9h-20v-17.9h-32.2v-12.6h-98.2v19.8h-32v12h-20v12.8c-4.4,0-8.4.2-12.3,0-3.5-.2-4.8,1-4.6,4.6.3,5.1,0,10.2,0,15.7h-12.1v29h-12.5v87.8h9.7v-41.1h0ZM541.8,696.3c.6-6.3,1.1-12.4,1.6-18.5.2-2.5-1-4.5-3.4-2.9-3.3,2.2-6.2,5.3-9,8.2-4,4.1-7.7,7.7-14.4,7.3-4.6-.2-4.7-4.5-7.9-5.7-1.7-.7-4-2.5-4.1-4-.8-9.1-1.2-18.2,7.1-24.8,1.5-1.2,1.8-3.8,2.8-6.3h-23.5c-.3,2-.6,3.7-1,5.8h-8.4c-.3,2.1-.5,3.7-.8,5.5h-10.2c-.2,3.3-.4,6.2-.6,9.5h-8.1c-.3,1.6-.5,3-.7,4.5-2.5.2-4.8.4-7.1.6-.4,2-.7,3.8-1,5.4-2.4.2-4.5.4-6.3.6-.6,3.2-.8,6-1.6,8.7-.4,1.2-2,2.9-3,2.8-3.5-.2-4.8,1.4-5.2,4.5-.4,3.5-.9,7-1.4,10.9h16.3c2.5,3,3.8,5.5,5.9,6.8,3.5,2.1,4.7,4.6,4.5,8.5-.2,4.2.9,8.8-4.9,10.3-.5.1-.9,1-1.2,1.6-2,4-5.2,5.1-9.4,4.6-1-.1-2.2.3-3.1.5v5.8h35.6c.3-2.7.6-4.7.9-7.2h14.8v-9h11.5c.2-2.8.4-5.2.5-8h9.8v-8.6c2.9-.2,5.2-.3,7.6-.5.2-2.2.3-4.2.3-5,3.8-3,6.7-5.4,10.6-8.5,0-.2.2-1.6.5-3,1.8-.2,3.3-.3,5.9-.5h0ZM158.3,594.4v23c0,1.2-.3,3,.3,3.4,5,3.3,2.9,8.3,3,12.6,0,3.4.4,5.9,4.6,5.6.1,3,.3,5.6.4,8.4,2.8.2,5.2.3,7.9.5v10.4c2.5.2,4.6.4,7.1.6v5.9c3.1,1,7.1,1.1,8.1,2.9,1.3,2.4.3,6,.3,9.7h10.9c.4,1.9.6,3.3.8,4.1,2.3.8,4.5.9,5.8,2.1,5.2,4.6,14.8,6.1,21,3.2-3.6-3.9-9.7-7.6-10.3-12.1-1.1-7.5-3.5-16.2,4.8-22.9,6.7-5.4,17.3-6.2,23.5,0,3.1,3.2,6.6,6,10.7,9.7v-13.9c-1.6-.4-2.9-.7-4.7-1.1v-13.9c-2.1-.2-3.7-.4-5.6-.6-.2-3-.3-5.8-.5-8.7-3.4,0-6-.2-5.8-4.7.2-7.3-1.1-8.4-8.7-9.3-.1-2.9-.3-5.8-.4-8.9-2.5-.2-4.7-.5-7.1-.7v-5.5c-2.3-.2-4.4-.3-6.4-.4-.3-2-.5-3.5-.7-5-3.3-.3-7.8.4-8.8-1.1-2.8-4.2-5.8-1.9-9.2-2.1,0,5.7,0,11,0,16.3,0,1.4-.4,3-1.3,4-1.7,2.2-3.7,4.1-5.7,5.9-1.2,1-2.8,2.1-4.3,2.2-4.3.3-8.6.1-11.9.1-5.2-6.2-11.4-11.2-8.7-19.8-2.4-.1-3.7-.2-5.1-.2-1.1,0-2.3.1-4.1.2h0ZM307.6,714.4c2.6,1,4.8,1.1,5.4,2.2,1.8,3.3,4.5,3.2,7.3,2.6,3.2-.7,4.2.8,5.2,3.5,1.1,2.9,2.8,5.8,4.7,8.2,3,3.7,3.4,6.9.4,10.6-2.2,2.7-3.8,6.6-6.6,7.9-3.6,1.6-8.8,2.6-12,1-3-1.5-5.2-2.5-9.2-1.7.8,1.9,1,4.3,2.1,4.8,6.2,2.8,8.6,12.2,17.6,10.1.4,0,1.5.5,1.5.9.3,3.8,3.1,2.8,5.2,2.8,19.5,0,39,0,58.4,0,1.3,0,2.5-.2,3.7-.3.2-2,.5-3.5.7-5.5,2.1,0,3.9-.2,5.7,0,4.9.5,8.4-2.1,10.6-5.9,1.2-2.2,1.2-5.4.7-8-.2-.9-3.7-1.4-5.7-1.5-3.6,0-7.3,0-10.9.6-5.5.9-10.2.8-13.7-4.7-2-3-4.5-14.7-2.9-17.8.2-.4.8-.5,1-.8,2.3-2.6,4.6-5.2,7.8-8.9,3.1,0,8-.1,12.8,0,3.5.1,4.2-2,4.2-4.7,0-2.7-.7-5-4.1-4.9-1.5,0-2.9-.2-4.5-.3-.3-1.8-.5-3.4-.8-5.3h-68.8c-.2,2.4-.3,4.3-.5,6.8-7.7-2.1-9.9,4.9-15.5,8.2h0ZM116.6,379h-24v-15h-12v-13h-14v-11.1h-11.8v13.8h11.6c-.4,6.2-.7,12-1.1,18.3h12.7v18.7h28.7c0,4.1.3,7.8,0,11.4-.5,4.5,1.3,5.6,5.6,5.5,42.5-.2,85,0,127.5,0h5.3v-16.5h24.8v-11.9c1.7,0,2.9-.1,4,0,4.9.7,6.7-1.2,5.9-6.1-.4-2.3,0-4.8,0-7.7h13.4c-.7-5.2-1.3-9.8-2-14.9h11.7v-17.3c7.8,0,8.8-1.9,6.3-12.4h-13.6v19.5h-12.2v14.3h-13.9v12.7c-3.3.2-6.1.3-8.7.4-.5,3.7-.9,6.9-1.4,10.6h-24.1v13.5h-118.3v-12.8h0ZM582.4,606.3h15.1c.2-2.5.4-4.5.6-6.6,1.9-.2,3.5-.3,5.1-.4-.2-.3-.4-.6-.6-.8,1.8-1.8,3.6-3.6,5.3-5.4.3.2.7.4,1,.6v-9.1c7.9.8,7.7-4.9,8.2-10.1,6.2,1.1,5.7-2.8,5.7-6.7,0-7.8,0-7.8,7-9,0-1.9-.4-3.9,0-5.8,1-4.2-3.2-10,3.7-12.5.2,0,.2-.6.2-.9,0-9.1,0-18.2,0-27.2h-10.4c0,3.6,0,6.9,0,10.2,0,1.2-.4,2.6-1.1,3.5-4.8,5.5-10,9.5-18.2,8.3-6.5-.9-14.1-7.7-14.2-14.4,0-4.2,0-8.5,0-12.8-4,0-7.2-.5-10.2.2-2.9.7-5.9,2.2-8,4.2-1.9,1.8-2.8,4.7-4.1,7.1l-1.3-.5v7.6c-2.5.2-4.7.4-7.5.7,0,3.5,0,6.8,0,10.1,0,1.2-.5,3.2-1.1,3.4-3.7,1-3.1,3.9-3.1,6.5,0,7.8,0,15.5,0,23.2-3.3.6-5.8,1-9,1.6,0,4.6.2,9.1,0,13.6-.2,3.9,2,5.3,5.3,5.6,2.2.2,4.5,0,7.1,0,0-3.5,0-6.3,0-9.1,0-2-.5-4.9.5-5.7,3-2.3,6.5-4.6,10.1-5.2,5.2-.8,10.6-.2,15.9.1,1.2,0,2.4,1.1,3.3,1.9,1.4,1.2,2.5,2.8,4.5,5,0,1.1-.6,4.7.7,5.8,5.2,4.3,1.6,6.7-1,9.9-3.1,3.8-5.8,8-9.5,13h0ZM540.9,329.6h131v-11.4h14.8v-15.9h18v-17h15.5v-15.9h-17.1v12.6h-9.8c-.2,3.3-.3,6.1-.4,9.2h-13.8v12.2h-16.2v10.4h-111.3v-11h-27.2v-14.6c-3.2-.2-6-.3-8.8-.4-.2-2.3-.3-4.3-.5-6.9h-12.7v-11.6h-13.9v16.3h13.8v14.1h13.2v15.9h25.3v14h0ZM627.7,431.3c0-6.7,0-12.9,0-19,0-1,0-2.5-.6-2.8-3.3-1.5-2.3-4.4-2.4-6.9,0-3,.2-6,0-9-.2-3.2.9-5,3.9-6.6,9.3-4.9,9.2-5.1,8.9-15.9,0-2.7-.2-5.3-.1-8,.6-12-7.2-19.2-16.7-20.9-7-1.2-14.3-1.9-21.2-.8-8,1.2-14.3,6.8-17.4,14.2-1.7,4-1,9.2-.6,13.8.4,4.1-3.1,9.7,3.7,11.9.2,6.1,5.5,8.1,8.9,11.6,1.2,1.3,1.5,5.8.8,6.1-5.5,3-2,9-5,13.5-2.9,4.4-.6,12.1-.6,18.6h38.4ZM198.1,507.3c2.1-9.6,0-18.5-2.6-27.3-.1-.4-.8-.7-.9-1.1-.6-1.5-2-3.4-1.6-4.7,1-3.4,2.2-7,4.3-9.8,10-13.4,6.5-33.8-7.3-42-9.2-5.4-18.7-4.7-27.9,2.1-8,6-12.4,17.2-9.1,27.1,2,6,5.9,11.4,9.2,17.6-3.1,11.5-8,24-5.3,38h41.2,0ZM457.3,133.2v69.6c0,5.5,2.7,8.5,8,8.9.3,0,.5.4,1.2.9v12.6h7.3v-90.5c3.2-.2,5.8-.3,8.7-.5v-23.5h-13.5v22.4h-11.6ZM720.6,248.4v17.5h12.1v-17.5h-12.1ZM488.5,248.4h-12.1v17.7h12.1v-17.7h0ZM43.3,336.2h12.1v-13.6h-12.1v13.6Z"/>
          <path d="M603.8,390.4c-2.3-.2-3.9-.3-6.1-.5,0-7.8,0-15.5,0-23.2,0-1,1.3-2.9,2.1-2.9,4.8-.2,9.6-.3,14.4.3,1.4.2,3.6,2.6,3.7,4.1.4,7.2.2,14.5.2,22.1h-6.3v29.7h-8v-29.5h0Z"/>
          <path d="M184.6,494.9h-14.9c0-10,.1-19.7,0-29.5,0-2.8,1.6-6.1-3-8.3-1.5-.7-1.1-7.2-.4-10.8,1-5.8,5.8-9,11.6-8.8,5.6.2,9.7,3.5,10.8,9.1.6,2.9.4,6,.4,8.9,0,.8-.3,2.2-.6,2.2-5.8.6-3.6,5.2-3.6,8-.3,9.5-.1,19-.1,29h0Z"/>
        </g>
      </g>
    </g>
  </g>
</svg>