<?xml version="1.0" encoding="UTF-8"?>
<svg id="Layer_2" xmlns="http://www.w3.org/2000/svg" viewBox="0 0 741.01 801.86">
  <g id="Layer_1-2" data-name="Layer_1">
    <g>
      <path d="M675.38,182.46v46.1h22.78v183.91h21.66v22.71h-21.48v113.79h-22.98v23.15c-7.02,0-13.31.19-19.57-.19-1.06-.06-2.74-2.57-2.81-4.02-.32-5.97-.13-11.96-.13-18.35h-69.26v68.76h92.26c0-6.02,0-11.97,0-17.91,0-8.17.14-16.34-.06-24.5-.08-3.33,1.09-4.36,4.32-4.24,5.81.21,11.62.06,17.97.06v70.24h42.9v67.98h-204.29v23.57h46.45v23.07h22.89v22.89h91.91v22.28h-181.67v-21.91h44.16v-22.56h-91.23v-23.38h45.29v-23.34H228.59v22.95h89.36v23.39h-136.25v22.57h45.14v22.37H47.17v-22h109.31c.36-7.81.69-14.98,1.04-22.65h-65.35v-23.41h113.37v-23.29H46.35v22.29H.22v-22.02h23.24v-46.39H.16v-22.57h46.38v-161.4h-22.49v-22.05H.23v-23.55h46.22v-68.57h-22.29v-22.39h22.52v-115.08c7.06,0,13.66-.17,20.24.2.85.05,2.2,2.85,2.21,4.39.15,18.83.1,37.67.1,56.5,0,1.99,0,3.98,0,6.42h68.35v-22.4h22.91v-45.57h-22.65c0-7.1-.15-13.55.17-19.99.05-.92,2.35-2.42,3.66-2.48,6.13-.26,12.27-.12,18.89-.12v-22.83h22.07v-23.07h23.07v-22.89h22.89v-22.07h90v-47.94c7.31,0,14.06-.11,20.79.18.67.03,1.73,2.5,1.77,3.86.18,6.64.08,13.29.08,20.35h59.47v-24.05h22.15v47.47h5.98c26.67,0,53.33.11,80-.11,4.53-.04,5.79,1.32,5.49,5.65-.36,5.26-.09,10.57-.09,16.33h22.79v23.13c6.19,0,11.96.27,17.69-.09,4.48-.27,5.87,1.36,5.61,5.71-.33,5.47-.08,10.98-.08,17.13h22.84v22.99h22.67v22.61h-22.14v45.41h22.46v22.84h69.43v-44.98h-22.45v-46.2c-3.12,0-5.89,0-8.65,0-11.17,0-22.33-.07-33.5.05-2.93.03-4.23-.77-4.12-3.93.19-5.96.06-11.93.06-18.21h22c0-13.22-.02-26.36.02-39.49,0-2.13.32-4.26.49-6.39,0,0-.1.1-.1.1h23.91v45.36h22.39l-.17-.17ZM536.54,687.49V228.03h-20.89v-23.07h-24.07v-22.89h-22.89v-22.07h-67.85v-22.54h-59.74v22.9h-68.06v22.06h-21.89v22.9h-24.07v23.07h-21.52v458.88h23.05v-138.12h285.86v138.35h22.08ZM675.59,320.48h-91.92v91.92h91.92v-91.92ZM69.49,412.4h90.93v-69.4h-22.82v-22.51h-68.11v91.91ZM605.91,435.38v22.84h-22.31v67.08h91.91v-89.92h-69.6ZM160.51,525.48v-67.48h-22.77v-22.77h-68.14v90.26h90.91ZM69.54,618.35h91.01v-68.83h-91.01v68.83ZM583.57,642.4v44.92h91.94v-44.92h-91.94ZM160.52,687.48v-45h-90.88v45h90.88ZM250.97,571.35v93.06h22.49v-93.06h-22.49ZM341.52,664.55v-93.03h-22.87v93.03h22.87ZM400.52,571.4v92.99h22.95v-92.99h-22.95ZM491.55,664.47v-92.98h-22.94v92.98h22.94Z"/>
      <path d="M206.49,45.47v45.1h20.35v23.14h-20.87v-22.17h-67.56v45.56c-7.05,0-13.65.15-20.23-.18-.84-.04-2.22-2.52-2.24-3.88-.18-12-.1-24-.11-35.99,0-1.78,0-3.56,0-5.82h-23.66v-23.38h22.53v-22.76h45.38v23.31h23.56V21.85h111.05V0h151.37v22.32h22.56V.13h46.56v21.33h90.65v23.55h-45.17v23.56h22.55c0,7.06.11,13.66-.14,20.24-.03.81-1.92,2.21-2.95,2.22-13.33.15-26.66.04-39.99.14-3.74.03-3.28-2.4-3.28-4.72,0-13.49,0-26.97,0-40.89h-90.39v21.53c-7.06,0-13.65.17-20.22-.2-.88-.05-2.27-2.81-2.29-4.33-.19-11.5-.11-22.99-.11-34.49v-5.64h-105.58c0,2.83,0,5.59,0,8.35,0,10.67-.09,21.33.05,31.99.04,3.14-.77,4.54-4.18,4.42-6.15-.21-12.31-.06-19.13-.06v-21.67h-88.5Z"/>
      <path d="M676.06,45.22h-23.05v-22.88h-22.88V.09h110.69v44.9h-42.39v45.86h-22.37v-45.63Z"/>
      <path d="M409.01,780.31h-44.54v21.53h-90.25v-22.05h67.36v-22.63h91.53v22.4h34.86v22.24h-58.96v-21.49Z"/>
      <path d="M91.62,137.48h23.44v44.98h22.17c0,6.97.18,13.43-.18,19.85-.06,1.02-2.53,2.68-3.92,2.71-11.65.22-23.31.13-34.97.13-1.78,0-3.56,0-5.81,0v22.95c-7.05,0-13.65.12-20.23-.16-.81-.03-2.18-2.24-2.19-3.45-.13-21.31-.1-42.62-.1-64.58h21.79v-22.44Z"/>
      <path d="M69.43,66.89H24.1v-19.98h22.31v-24.55H.23V.01h92.46v22.08h-23.26v44.79Z"/>
      <path d="M675.54,182.62v-45.6h22.63v22.58h42.72v45.11h-20.9v-22.26c-15.18,0-29.9,0-44.62,0,0,0,.16.17.16.17Z"/>
      <path d="M653.07,756.86v-22.84h66.78v22.84h-66.78Z"/>
      <path d="M629.24,137.26s.1-.1.1-.1c-7.29,0-14.59,0-22.35,0v-22.82h-23.14c0-7.08-.13-13.52.15-19.95.04-.93,2.02-2.53,3.11-2.54,13.8-.17,27.6-.11,42.13-.11v45.52Z"/>
      <path d="M.06,159.85v-22.81h45.77v22.81H.06Z"/>
      <path d="M740.95,365.92h-20.82v-45.79h20.82v45.79Z"/>
      <path d="M741.01,526.07v45.73h-20.76v-45.73h20.76Z"/>
      <path d="M0,571.7v-22.61h22.97v22.61H0Z"/>
      <path d="M23.03,318.9H.11v-21.82h22.91v21.82Z"/>
      <path d="M536.22,113.89h-20.53v-22.08c6.09,0,12.42-.07,18.73.11.62.02,1.7,1.57,1.72,2.43.15,6.43.08,12.86.08,19.54Z"/>
      <path d="M273.83,251.14c-6.63,0-12.44-.05-18.26.03-2.32.03-3.82-.39-3.76-3.23.13-6.15.04-12.3.04-19.11h21.89v-22.9h44.9v-22.89h104.39v22.46h45.07v23.08h23.14c0,6.94-.08,13.22.03,19.51.05,2.98-1.73,3.08-3.91,3.07-6.13-.04-12.27-.02-19.1-.02v6.24c0,26.83-.08,53.66.08,80.5.03,4.1-1.06,5.46-5.28,5.36-11.33-.28-22.67-.27-33.99,0-4.17.1-5.33-1.16-5.31-5.31.16-34.5.09-69,.09-103.49,0-1.82,0-3.63,0-5.86h-23.58v5.87c0,34.33-.09,68.66.11,102.99.03,4.62-1.27,5.89-5.85,5.81-15.83-.27-31.67-.25-47.49,0-4.24.06-5.27-1.29-5.25-5.37.15-34.33.09-68.66.09-102.99,0-1.98,0-3.96,0-6.33h-23.61v114.6c-4.87,0-9.13,0-13.38,0-8.67,0-17.34-.18-26,.08-3.88.12-5.12-.96-5.09-5.01.17-26.83.08-53.66.07-80.5,0-1.96,0-3.93,0-6.57Z"/>
      <path d="M400.24,457.79c0,20.99-.09,41.98.08,62.97.03,3.93-.74,5.55-5.14,5.48-16.16-.26-32.32-.25-48.47,0-4.15.06-4.95-1.42-4.94-5.17.11-42.48.13-84.96-.02-127.44-.01-4.11,1.35-5,5.15-4.96,16.16.18,32.32.22,48.48-.02,4.15-.06,4.97,1.41,4.94,5.17-.15,21.32-.07,42.65-.07,63.97Z"/>
      <path d="M514.22,388.74c0,14.97.06,29.27-.13,43.56-.01.95-1.91,2.64-2.99,2.69-6.14.26-12.3.13-19.01.13v-23.27h-23.81v23.23h-21.68v68.55h21.61c0,6.9.13,13.34-.14,19.76-.04.95-1.98,2.6-3.06,2.61-12.66.18-25.32.2-37.98-.02-1.08-.02-2.88-1.92-3.04-3.12-.43-3.28-.15-6.64-.15-9.98,0-39.48.08-78.96-.1-118.45-.02-4.62,1.27-5.85,5.84-5.81,26.49.21,52.98.1,79.46.1h5.18Z"/>
      <path d="M273.84,456.97c0-21.16.08-42.31-.08-63.47-.03-3.68.95-4.92,4.76-4.84,11.82.23,23.65.18,35.48.02,3.24-.04,4.31.95,4.3,4.25-.09,42.98-.1,85.95.02,128.93.01,3.75-1.52,4.37-4.76,4.33-11.66-.14-23.32-.19-34.98.02-3.72.07-4.84-1.03-4.81-4.78.16-21.49.08-42.98.08-64.46Z"/>
      <path d="M513.92,365.89h-45.04c0-6.61-.15-13.05.17-19.46.05-.96,2.29-2.52,3.57-2.57,6.13-.27,12.27-.12,19.22-.12,0-2.25,0-4.17,0-6.08,0-26.96.07-53.92-.08-80.88-.02-3.83.89-5.37,4.98-5.12,5.6.35,11.25.09,17.18.09v114.15Z"/>
      <path d="M251.01,343.73c6.36,0,12.16.14,17.95-.06,3.19-.11,4.48.84,4.34,4.21-.23,5.81-.06,11.63-.06,17.85h-44.55v-113.64h22.32v91.64Z"/>
      <path d="M228.67,388.98h21.88v136.72h-21.88v-136.72Z"/>
      <path d="M474.09,491.84v-14.42c-1.45-.16-3.05-.33-4.95-.54v-27.75h21.83v27.64c-1.74.22-3.34.42-5.56.71v14.36h-11.32Z"/>
      <path d="M491.87,503.75c6.93,0,13.07-.16,19.19.15,1.1.05,2.96,1.98,3.02,3.11.3,6.11.14,12.25.14,19.09-6.83,0-13.4.09-19.97-.11-.82-.02-2.26-1.52-2.28-2.37-.19-6.43-.11-12.87-.11-19.87Z"/>
    </g>
  </g>
</svg>