<?xml version="1.0" encoding="UTF-8"?>
<svg id="Layer_2" xmlns="http://www.w3.org/2000/svg" viewBox="0 0 602.9 885.35">
  <g id="Layer_1-2" data-name="Layer_1">
    <g>
      <path d="M261.72,146.66h-20.7v-79.21h19.62v-33.61h20.28V0h20.64v32.84h19.95v33.94h20.45v79.68h-19.33v20.09h-19.68v19.9h38.94v20.06h21.47v99.93h-18.47v100.5h19.48v20.66h-20.46v37.05c-7.03.44-13.9.86-21.03,1.31v19.64h41.57v19.84h20.96v20.89h20.02v17.97h58.1v-18.65h20.05v-39.02h19.85v-39.91h-19.74c0-5.33-.32-10.13.09-14.88.4-4.61-1.49-5.71-5.7-5.64-4.94.09-9.89-.52-15.22-.85v-18.35c-6.43-.55-12.49-1.06-18.84-1.6v-20.5h39.07v-39.17h-20.07v-98.87h40.39v-20.68h-18.89c-.43-7.52-.82-14.2-1.19-20.87,5.49.09,10.98.04,16.45.29,3.13.14,3.99-1.12,3.94-4.09-.14-8.49-.03-16.98-.01-25.47,0-3.07,0-6.14,0-9.06h21.12v38.19h19.47v-58.84h-19.74v-19.5h-20.98v19.83h-19.71c0,2.28.01,4.08,0,5.87-.13,17.63-.26,35.27-.4,52.9h-20.28v-78.59h20.34v-38.97h20.01v-20.64h20.76v39.19h21.09v39.89h18.85v59.13h-18.42v19.78h-20.9v21.33h58.67v137.99h19.31v21.06c-6.19.44-12.41.89-19.05,1.36v18.19c-6.48.47-12.57.91-19.15,1.38v19.48h-39.93v59.36h-19.06v39.4c-7.2.39-13.91.74-21.11,1.13,0,5.56-.08,11.02.03,16.47.05,2.59-.59,4.13-3.55,4.13-32.16-.06-64.32-.08-96.48-.12-.13,0-.25-.19-.88-.71v-19.43h-20.02v-19.6h-20.19c0-5.66.22-10.92-.15-16.14-.09-1.31-2.09-3.54-3.22-3.54-5.77-.01-11.55.56-17.65.96v17.19h-19.72c0,6.07-.19,11.51.18,16.91.07.95,2.44,2.39,3.82,2.48,4.78.31,9.6.12,14.68.12v20.77h-13.77v38.14h15.01v103.48h-19.78v37.65h19.53v19.78h18.97v20.95h-18.45v38.17h59.53v21.1h39.72v19.8h20.02v20.91H142.17v-20.44h20.32v-20.07h37.93v-21.17h5.89c16.66,0,33.33-.1,49.99.08,3.98.04,5.63-.89,5.51-5.25-.29-10.65-.1-21.31-.1-32.59h-18.71v-21.11h17.63v-19.26h20.06v-38.5h-19.69v-103.19h14.27v-38.16h-13.35v-19.94h19.1v-18.92h-19.17v-18.97h-19.27v17.93h-20.85v20.7h-20.51v19.67h-100.23v-19.32h-21.17v-40.24h-19.43v-59.88h-20.03v-19.92h-20.13v-19.12H0v-21.92h20.34v-59.06H.97v-79.86h59.31v-20.49h-19.51v-19.75l-.14.12h20.01v-39.78h20.75v39.41h19.26v19.3h-18.78v20.79h40.66v138.09h18.74v22.06h-18.55v19.93h-19.83v19.82h-20.96v39.31h19.56v39.76h21.09v20.1h56.85v-19.36h20.15v-19.48h21.09v-20.53h41.72v-20.49h-21.56v-37.45h-19.85v-20.83h19.36v-39.59h-19.22v-180.96h59.83v-20.02h-19.32v-20.24c6.45,0,12.89,0,19.99,0v-39.51h21.19v39.32h18.61v-58.98h-18.84v-20.38h-21.03v21.7h-19.81v57.94ZM503.84,326.83l-.12-.14v57.88h58.66v-116.95h-78.36v59.2h19.82ZM261.26,343.15l-.05-.08c.14.96.39,1.92.39,2.87.05,18.33.06,36.66.1,55,0,1.75.15,3.5.23,5.12h60.83v-119.49h18.52v-60.19h-18.75v-19.47h-20.09v20.39h-21.49v-20.4h-37.94v136.24h18.26ZM60.24,285.94v40.74h-18.66v57.71h59.44v-116.84H21.99c0,12.46-.05,24.25.09,36.04.01.97,1.25,2.72,1.98,2.76,5.41.24,10.83.13,16.76.13v-20.54h19.42Z"/>
      <path d="M41.11,147.02v-39.15h19.46v-40.64h20.97v20.41h19.46v38.89h21.08v79.02h-21.32v-58.74h-18.98v-19.25h-21.07v19.37c-6.87,0-13.29,0-19.72,0,0,0,.12.09.12.09Z"/>
      <path d="M40.77,206.59c-6.72-.4-13.45-.8-20.47-1.21v-58.37c6.98,0,13.89,0,20.81,0,0,0-.12-.1-.11-.09-.08,17.94-.17,35.87-.26,53.81-.01,1.99-.07,3.99-.11,5.98,0,0,.14-.12.14-.12Z"/>
      <path d="M261.26,343.15c.13-1.63.38-3.27.38-4.9,0-28.8-.02-57.61-.03-86.41,0-1.48,0-2.96,0-4.8h20.51v97.17c-7.18-.38-14.04-.75-20.91-1.12,0,0,.05.07.05.07Z"/>
      <path d="M503.84,326.83v-40.71h20.33v40.57c-6.66,0-13.56,0-20.46,0,0,0,.13.14.13.14Z"/>
    </g>
  </g>
</svg>