<?xml version="1.0" encoding="UTF-8"?>
<svg id="Layer_2" xmlns="http://www.w3.org/2000/svg" viewBox="0 0 610.74 899.23">
  <g id="Layer_1-2" data-name="Layer_1">
    <path d="M314.02,385.12h-18.43v53.37h-18.73v56.15h-18.13v55h-19.04v54.85h-18.21v55.94c-6.46.29-12.51.57-18.8.85v53.15h-18.37v54.91h-18.6v19.11c-6.19.38-11.92.73-18.11,1.11v17.93c-6.37.35-12.3.68-18.56,1.03v17.5c-6.17.28-12.03.54-18.26.82v17.85h-36.35v18.53c-6.28.42-12.19.81-18.77,1.25v17.13H18.93v17.6H0v-54.46c5.53-.36,10.95-.72,16.81-1.1v-18h18.65v-17.88h18.54v-18.15c5.54,0,10.51-.16,15.47.06,3.36.15,4.36-1.21,4.21-4.39-.21-4.3-.05-8.62-.05-13.62,4.07,0,7.84,0,11.61,0q8.2,0,8.19-7.96c0-9.49,0-18.97,0-29.22h18.23v-37.67h17.91v-55.93h18.1v-54.1h17.87v-54.18h19v-56.6h18.87v-55.38h18.11v-55.72h18.13v-54.08h16.94v-55.91h18.9v-53h18.85v-57.51h17.51v-53.65h19.04v-36.88h18.68v-19.08h19.01v-18.18h37.23V0h111.09c0,3.17,0,6.42,0,9.66,0,6.74,0,6.78,6.9,6.82,9,.05,18,0,27,.02,1.12,0,2.24.1,3.85.18v17.9h18.38v18.8h18.66v35.54c6.4.34,12.34.66,18.72,1,.08,1.66.23,3.26.23,4.86.01,38.33-.07,76.66.11,114.99.02,4.63-1.23,6.29-5.89,5.87-4.12-.38-8.3-.08-12.99-.08v54.88h-18.41v38.08h-18.68v21.89h-17.99v33.74h-18.8v-54.47h17.47v-38.68h-17.42v20.21h-18.37v36.07h-18.44v-77.31h18.54v-35.11h17.75v-35.12h17.97v-71.89h-17.62v-18.1h-19.03v-17.79h-73.97v17.54h-19.1v18.12h-18.08v53.83h-17.86v57.17h-18.13v56.73h-18.88v54.01h-18.8v55.75Z"/>
  </g>
</svg>