<svg xmlns="http://www.w3.org/2000/svg" fill="currentColor" shape-rendering="crispEdges" viewBox="0 0 64 64"><path d="M31 10h1v1h-1zm0 1h1v1h-1zm-1 1h3v1h-3zm-10 1h1v1h-1zm9 0h2v1h-2zm3 0h2v1h-2zm10 0h1v1h-1zm-22 1h2v1h-2zm9 0h1v1h-1zm4 0h1v1h-1zm8 0h2v1h-2zm-22 1h3v1h-3zm10 0h1v1h-1zm2 0h1v1h-1zm2 0h1v1h-1zm8 0h3v1h-3zm-22 1h1v1h-1zm2 0h2v1h-2zm8 0h1v1h-1zm2 0h1v1h-1zm2 0h1v1h-1zm7 0h2v1h-2zm3 0h1v1h-1zm-25 1h1v1h-1zm4 0h1v1h-1zm8 0h3v1h-3zm10 0h1v1h-1zm4 0h1v1h-1zm-26 1h1v1h-1zm2 0h1v1h-1zm2 0h1v1h-1zm9 0h1v1h-1zm9 0h1v1h-1zm2 0h1v1h-1zm2 0h1v1h-1zm-26 1h1v1h-1zm2 0h1v1h-1zm2 0h1v1h-1zm6 0h6v1h-6zm12 0h1v1h-1zm2 0h1v1h-1zm2 0h1v1h-1zm-25 1h3v1h-3zm9 0h1v1h-1zm3 0h1v1h-1zm2 0h2v1h-2zm8 0h3v1h-3zm-21 1h1v1h-1zm8 0h1v1h-1zm6 0h1v1h-1zm8 0h1v1h-1zm-25 1h6v1h-6zm11 0h1v1h-1zm2 0h1v1h-1zm4 0h1v1h-1zm6 0h6v1h-6zm-23 1h1v1h-1zm5 0h1v1h-1zm6 0h1v1h-1zm2 0h1v1h-1zm4 0h1v1h-1zm6 0h1v1h-1zm5 0h1v1h-1zm-28 1h1v1h-1zm2 0h1v1h-1zm3 0h1v1h-1zm6 0h1v1h-1zm2 0h1v1h-1zm3 0h2v1h-2zm7 0h1v1h-1zm2 0h1v1h-1zm3 0h1v1h-1zm-28 1h3v1h-3zm5 0h1v1h-1zm6 0h1v1h-1zm2 0h1v1h-1zm3 0h1v1h-1zm7 0h1v1h-1zm2 0h1v1h-1zm3 0h1v1h-1zm-27 1h1v1h-1zm4 0h1v1h-1zm6 0h1v1h-1zm2 0h1v1h-1zm3 0h1v1h-1zm7 0h2v1h-2zm5 0h1v1h-1zm-27 1h1v1h-1zm4 0h1v1h-1zm6 0h2v1h-2zm5 0h1v1h-1zm8 0h1v1h-1zm4 0h1v1h-1zm-27 1h1v1h-1zm4 0h1v1h-1zm7 0h1v1h-1zm4 0h1v1h-1zm8 0h1v1h-1zm4 0h1v1h-1zm-28 1h7v1h-7zm12 0h1v1h-1zm4 0h1v1h-1zm6 0h8v1h-8zm-21 1h5v1h-5zm10 0h7v1h-7zm12 0h6v1h-6zm-21 1h3v1h-3zm10 0h5v1h-5zm12 0h4v1h-4zm-21 1h1v1h-1zm9 0h5v1h-5zm13 0h1v1h-1zm-22 1h1v1h-1zm10 0h3v1h-3zm12 0h1v1h-1zm-22 1h2v1h-2zm8 0h7v1h-7zm13 0h2v1h-2zm-20 1h1v1h-1zm6 0h2v1h-2zm3 0h3v1h-3zm4 0h2v1h-2zm7 0h1v1h-1zm-20 1h2v1h-2zm5 0h2v1h-2zm5 0h1v1h-1zm4 0h2v1h-2zm5 0h2v1h-2zm-18 1h5v1h-5zm8 0h3v1h-3zm6 0h5v1h-5zm-5 1h1v1h-1zm0 1h1v1h-1zm-1 1h3v1h-3zm0 1h3v1h-3zm0 1h3v1h-3zm0 1h3v1h-3zm0 1h3v1h-3zm1 1h1v1h-1zm0 1h1v1h-1zm-1 1h3v1h-3zm-1 1h5v1h-5zm1 1h3v1h-3zm0 1h3v1h-3zm-3 1h9v1h-9zm-2 1h13v1H25zm-1 1h15v1H24z"/></svg>