<?xml version="1.0" encoding="UTF-8"?>
<svg id="Layer_2" xmlns="http://www.w3.org/2000/svg" viewBox="0 0 719.84 722.61">
  <g id="Layer_1-2" data-name="Layer_1">
    <g>
      <path d="M28.55,589.09v37.52h96.84v-37.02c-1.97,0-3.9,0-5.83,0-28,0-56-.15-84,.14-5.18.05-6.78-1.7-6.66-6.43.14-5.5-.01-11-.01-16.5,0-31.17,0-62.33,0-93.5,0-1.94.18-3.89.29-6h28.79v-64.44h-28.81v-120.14c7.65,0,15.11-.29,22.52.1,4.95.27,6.59-1.07,6.54-6.31-.26-27.5-.12-55-.12-82.5q0-7.01,6.78-7.01c8.48,0,16.96,0,26.21,0,0-2.08,0-3.83,0-5.59,0-15.67.09-31.33-.06-47-.04-3.97.96-5.65,5.32-5.51,9.26.31,18.55.1,28.25.1v59.45h64.49c0-7.67,0-15.41,0-23.15q0-8.3,8.11-8.3c7.12,0,14.24,0,21.79,0v-32.91h53.16v-60.46h-84.04c0-9.99-.14-19.44.21-28.87.04-.97,2.99-2.62,4.61-2.63,16.16-.2,32.33-.12,48.5-.12,9.98,0,19.96,0,30.73,0,0-8.21,0-16.13,0-24.04Q272.17,0,279.93,0c54,0,108,0,162,0,1.99,0,3.98,0,6.64,0v31.96h82.68v31.42h-82.2v60.43h51.65v33.2c6.95,0,13.37-.08,19.77.02,12.92.2,10.84-1.24,11.22,11.26.17,5.49.31,10.98.55,16.47.06,1.29.46,2.56.73,3.95h63.58v-60.34h32.36v60.49h31.77c0,2.27,0,4.19,0,6.11,0,26.17.01,52.33.02,78.5,0,6.83,2.05,9.06,8.97,9.22,6.8.16,13.6.03,20.71.03v119.66h-29.25v63.76c9.56.62,19.12,1.24,29.37,1.9v120.85h29.35v133.7c-1.9,0-3.68,0-5.47,0-235.66,0-471.32,0-706.98-.02-7.94,0-7.29,1.01-7.29-7.15-.01-40,.07-80-.1-120-.02-4.87.99-6.84,6.32-6.46,7.24.52,14.55.13,22.24.13ZM158.09,279.57v347.04h95.74V186.99h-34.42v30.01h-30.84v62.57h-30.48ZM531.35,279.55v-62.73h-31.59v-29.96h-33.49v439.73h96.53v-347.04h-31.46ZM287.14,158.07v467.55h57.28V158.07h-57.28ZM433.98,625.82V158.15h-56.96v467.68h56.96ZM508.9,658.56H206.02v34.05h302.88v-34.05ZM417.51,96.37V30.89h-112.41v65.48h112.41ZM691.79,658.66h-150.69v34.03h150.69v-34.03ZM28.93,692.65h144.73v-34.2H28.93v34.2ZM125.89,497.93H57.94v62.19h67.95v-62.19ZM661.77,560.11v-62.11h-65.77v62.11h65.77ZM125.52,372.04v-60.47H57.77v60.47h67.75ZM661.89,311.92h-66.92v59.62h66.92v-59.62ZM596.12,589.71v37h94.62v-37h-94.62ZM91.09,217.33v65.07h34.62v-29.25h32.21v-35.82h-66.83ZM628.89,217.43h-65.88v35.73h32v29.08h33.88v-64.8ZM125.42,468.79v-65.08h-34.35v65.08h34.35ZM595.87,403.76v62.82h32.91v-62.82h-32.91Z"/>
      <path d="M124.13,96.77h31.55v30.75c-9.8,0-19.52.07-29.22-.14-.8-.02-2.2-1.98-2.23-3.07-.18-8.95-.1-17.9-.1-27.54Z"/>
      <path d="M187.35,95.58h-29.99v-31.28h29.99v31.28Z"/>
      <path d="M532.15,95.52c0-9.75-.07-19.35.13-28.95.02-.85,1.83-2.36,2.84-2.38,8.96-.19,17.92-.11,27.22-.11v31.44h-30.19Z"/>
      <path d="M594.92,96.66v30.8h-30.55v-30.8h30.55Z"/>
      <path d="M529.66,379.03h26.74v58.14h-25.42v-28.19h-31.11v28.17h-25.45v-58.03h23.85v-29.41c10.03,0,19.16-.15,28.27.2,1.1.04,2.92,2.83,2.98,4.4.31,7.96.14,15.94.14,24.72Z"/>
      <path d="M500.68,467.33v-28.88h29.52v28.88h-29.52Z"/>
    </g>
  </g>
</svg>