<?xml version="1.0" encoding="UTF-8"?>
<svg xmlns="http://www.w3.org/2000/svg" version="1.1" viewBox="0 0 679.4 809.9">
  <!-- Generator: Adobe Illustrator 28.7.1, SVG Export Plug-In . SVG Version: 1.2.0 Build 142)  -->
  <g>
    <g id="Layer_2">
      <g id="Layer_1-2">
        <g>
          <path d="M266.8,722.9h-24v-19.3h-21.2v21.9h15.4v20.3h-31.2v-20.3h-19.3v42.8h-21.6v22.4h-47.1v19.1H41.4v-19.3h-21.6v-19.3H.7v-97.2h20.8c.4-7.9.8-14.8,1.2-22.3h17.7v-21h20.9v-34.5c-4.5-.4-9-.9-14-1.3v19.1c-6.2,0-12,.2-17.7-.2-1,0-2.8-2.2-2.8-3.5-.3-7.7-.1-15.3-.1-23.6h13.6v-14.8h21.2v-17.2h16.3v-92.2h-12.3v10.7c-.9.5-1.2.7-1.5.8-11.4.6-17.2-4.6-17.2-15.6v-5h-16.7v-26h-14.1v-40.6h13.7v-33.4h16c0-5.1,0-9.7,0-14.3,0-11.4-.8-9.2,9.7-9.4,2.5,0,4.9,0,7.8,0v12.4h14.6v-84.6h-14.8c-.5-7.1-.9-13.7-1.3-20.4h-21.7c-.2-4.3-.5-8.7-.8-13.6h-12.9v-13.7c0-4.7.2-9.3,0-14-.1-3.1.8-4.6,4.2-4.4,5.4.2,10.9,0,16.8,0v20.9h14.1v-34.1h-21.9v-20.5c-6-.6-11.6-1.1-17.8-1.7v-18.7H0V40.1h20.5v-20.2h21V0h75.1v19.4h48.6v21.3h21.1v39.6h19.4v-20.2h31.7v19.9h-15.6v21.2h20.9v-20.5h24v-41.6h28.6v-17.6c7.9-.4,15.3-.7,23.4-1V0h43.6v21.9h25.9v17.5h23.7v40.7h24.5v21.3h22.2v-22h-16.4v-20.3h33.2v21h19.3v-39.2h20.9v-21.5h44.8V0h77.1v19.8c7,.3,13.5.7,20.4,1v20.2h21.3v97h-20.8c0,5.1-.1,9.5,0,13.9.1,2.9-.6,4.2-3.8,4.3-4.5,0-9,.7-14,1.2v20.6h-21.4v34.4h13.5v-21.6h19.5v30c-3.9.3-7.7.5-11.8.8v14.4h-21.7v20.8h-17v84.8h12.8v-11.9h19v22.6h15.9c0,3.9,0,7.5,0,11,0,6.3.3,12.7.3,19,0,2.9.9,4.3,4,4.1,3.3-.2,6.6,0,10.3,0v41.6c-3.1,0-6.2,0-9.4,0-3.6-.1-5.4.9-5.1,5.1.4,6.1.1,12.3.1,19h-16.1v20.7h-17.7v-10.5h-14.1v91.9h16.4v17h21v15.1c4.6.5,8.7.9,13.1,1.4v25.2h-19.4v-18.6h-14.1v36.4h19.8c.3,6.2.8,11.8.8,17.4s1.2,4.5,4.4,4.4c4.3-.1,8.7,0,13.3,0,.6,7.2,1.1,13.9,1.7,21,6.7.4,13.3.8,20.8,1.2v95.9h-19.2c-.3,6.4-.7,12.7-1,19.3h-20.7v19.8h-77v-19.3h-45.7v-22.2h-20.9v-42.8h-21.1v20.2h-31.8v-20.1h16.4v-22.2h-22v20.1h-24.7v43.5h-24.4v15.9h-24v21.7h-45.7v-21.4h-22.8v-14.6h-27.4c0-7.1,0-14,0-21,0-7.3.1-14.7.1-22,0-1.1-.6-2.1-.8-3.2,7.5.4,15,.8,22.5,1.2v-20.4h-21c0,5.2.1,10.2,0,15.1,0,1.4-.9,2.8-1.4,4.2h0ZM583.8,433.8h25.2v-16.7h20.4v-30.8h-20.8v-18.4h-24.6v-147.5h17.6v-20.7h-20.4v19.9h-13.5v154.4h15.7v17.8h15.6v20.8h-15.7v20.8h-16.2v153.9h15.4v19.5h19.9v-21h-18.3c-.2-1.4-.4-1.8-.4-2.3,0-49.8,0-99.7,0-149.5h0ZM97.7,586.7h15.6v-153.1h-15.7v-21.5h-16.6v-20.7h16.6v-17.2c5.5-.3,10.5-.6,15.6-.8v-154.3h-14.9v-19.4h-19.7v21.1h17.8v147.7h-25.3v18h-21v31.1h21.1v17.2c6,0,11.6,0,17.2,0,10.4,0,8.7-1,8.7,8.8,0,47.6.1,95.3.2,143h-18.8v22.1c6.3-.4,12.3-.7,19.1-1.1v-20.7h0ZM546,623.5V185.6h18.3v-28.5h-22.8v-35h-19.4v-21.1h19.5v-39.7h18.9v-19.3h-30.9v18.7h-15.4v38.7h-20.1v22.3h-124.5v-22.7c-6.3.4-12.1.7-18.5,1.1v20.8h-21.4v-21.1h-18.3v22.6h-124.9v-21.8c-6.5-.4-12.5-.8-19.4-1.3v-38.5h-16.7v-18.5h-33.5v19.5h21.7v39.3h19.2v21.4h-19.5v34.1h-22.4v29.4h18v438h-17.7v28h23.2v32.7h18.4v22.9h-18.8v41.2h-21.5v19.1h32.2v-18.7c5.9-.4,11.1-.7,16.9-1v-43.5h19.5v-23.7h124.3v22.5h19.4v-22.5c5.8,0,11.2.2,16.5,0,3.8-.2,5,1.2,4.8,4.8-.2,5.9,0,11.8,0,17.8h18.6v-22.7h123.7v24.7c7.1.4,13.7.7,20.9,1.1v42.6h15v18.7h31v-19.5h-18.9v-40.9h-19.5v-23.7h19.7v-32.1h22.7v-27c-6.2-.4-12.1-.7-18.5-1.1h0ZM583.7,770.2v19.2h36v-17.8c6.5-.4,12.6-.8,18.5-1.2v-20.9h17.1v-55.3h-19.1v-21.3h-20.7v-20.8h-23.2v-22.5c-3.1-.3-5.7-.6-8.9-1v44.6h-21v58h39.9v-22.4h-18.3v-27.7h22.5v16.8h17.5v51.5h-23.9c.5,7.2.9,13.8,1.3,20.8h-17.7ZM22.7,694.4v55.5h18.4c.4,7.6.8,14.6,1.2,22h18.2v17.5h35.9v-20c-6.3.3-12.3.6-19,.9v-20.5h-22.4v-52.2h17.8v-16.8h22.1v28.8h-17.4c0,6.6-.1,12.6.1,18.6,0,1.2,1.5,3.4,2.3,3.4,12.4.2,24.9.2,37.4.2v-58.9h-20.7v-43h-7.8v22.1h-24.8v21.2h-20v21.4h-21.4ZM563.2,79.9v55.8h20.2v43c3.4-.4,6.1-.7,9.3-1v-21.2h24.1v-20.6h19.2v-19.3h19.3v-55.5c-5.8.3-11.1.6-17.1.9v-20.7c-7.2-.5-13.7-1-20.7-1.5v-19.2h-33.7v21h16.2v18.5h24v53.3h-17.9v15.9h-22v-27.5h17.4v-21.9h-38.2ZM42.5,115.9v21.1h22v20.7h25v20.6h7.4v-42.9h19.3v-55h-38.5v21.6h17.4v27.4h-22.5v-16.3h-17.8v-52.6h23v-19.1h17.8c.4-7,.8-13.6,1.2-20.4h-36.5v18.1c-6.6.5-12.7.9-19,1.4v20.1c-6.4.6-12.4,1.2-18.6,1.8v53.4h19.8,0ZM268.7,80.2v20.8h21.2v-19.5h22.5v-20.6h-21.7c-.5,6.5-1,12.8-1.5,19.2h-20.5ZM410.5,80.7h-20.6v-19.2h-21.2v19.3c7.2.4,14.2.8,21.9,1.3v18.1h20v-19.5ZM330.6,21.5v39.9h19.6V21.5h-19.6ZM350.5,743.6h-19.8v38.8h19.8v-38.8ZM290.6,722.6v20.1c6.7,0,13,.2,19.3-.1,1.1,0,3.1-1.9,3.2-3,0-5.6-.4-11.2-.6-17h-21.8ZM367.5,741.6h22v-19h-22v19ZM410.5,703.7h-20v18.8h20v-18.8Z"/>
          <path d="M157.6,143.9h364.7v515.8H157.6V143.9ZM501.4,165.7H177.8v470.8h323.6V165.7h0Z"/>
        </g>
      </g>
    </g>
  </g>
</svg>