<?xml version="1.0" encoding="UTF-8"?>
<svg id="Layer_2" xmlns="http://www.w3.org/2000/svg" viewBox="0 0 582.48 798.73">
  <g id="Layer_1-2" data-name="Layer_1">
    <g>
      <path d="M551.72,286.57v127.7h-31.68v-97.33h-32.09v-30.14h-33.45v31.41h-31.43v-30.16h-36.27v31.3h-33.25v31.35h-32.4v-31.83c-10.91,0-21.51-.09-32.11.17-.89.02-2.43,2.39-2.46,3.69-.21,9.32-.11,18.64-.11,27.94h-31.47v-33.12h-31.77v-31.78h-31.14v-94.88c8.94,0,18.03.07,27.12-.03,3.73-.04,3.24,2.46,3.24,4.77,0,17.33,0,34.66,0,51.99,0,1.81,0,3.63,0,6.39h31.92v31.98h133.26v-30.16h131.76v-64.65h32.77v31.05h30.32v64.46c-10.33,0-20.6,0-30.87,0v-30.41h-31.69v30.29h31.8Z"/>
      <path d="M254.27,670.25c.27,14.31.57,28.63.78,42.94.1,6.82.02,13.65.02,21.11h-32.49v64.43h-61.39v-32.24h29.69v-193.67h-31.66v161.47h-30.08v30.83h-31.25v-58.35c8.13-.31,16.37-.71,24.62-.9,6.36-.15,6.38-.04,6.37-6.6-.09-49.81-.19-99.63-.29-149.44,0-1.83,0-3.66,0-5.98h31.19v-96.18h31.71v30.59h30.92v193.16c10.51,0,20.47.02,30.42-.05.52,0,1.03-.67,1.55-1.02,0,0-.11-.1-.11-.1Z"/>
      <path d="M387.98,670.81v-127.73h34.42v-31.99h-33.09v-31.82h-35.73v30.57h-31.64v-32.3h-35.41v192.72c-10.82,0-21.54,0-32.26,0,0,0,.11.1.1.09.09-5.63.27-11.26.28-16.88.09-67.81.15-135.62.23-203.42,0-1.3.13-2.6.23-4.47h132.83v-30.4h33.25v64.16h32.19v31.32h33.89v32.46l.09-.1h-33.53v63.28h-32.23v64.38c-11.65,0-22.72,0-33.8,0,0,0,.17.15.17.15Z"/>
      <path d="M487.29,543.11c1.73-.41,3.45-1.14,5.19-1.16,8.44-.12,16.88-.06,25.86-.06v66.07c11.42,0,22.31,0,33.2,0,0,0-.17-.17-.17-.17v60.23h-32.24v96.9h-32.15v33.17h-31.17v-63.31h31.75c.13-1.7.33-3.13.33-4.56.01-60.95.01-121.9-.02-182.84,0-1.47-.3-2.93-.47-4.39,0,0-.1.11-.1.11Z"/>
      <path d="M159.18,446.96h-30.66v-65.22h-31.27v-128.27H33.14v-63.16h31.17v32.7h94.84v29.76h-30.27v128.92h30.31v65.27Z"/>
      <path d="M64.69,30.79h31.85v33.4h123.52v31.77h-123.86v94.33c-10.18,0-19.46.08-28.73-.04-3.41-.05-2.55-2.89-2.56-4.89-.04-17.66-.02-35.31-.02-52.97,0-1.79,0-3.58,0-5.81h-31.63v-30.4h62.22v-32.04h-30.63V30.63l-.15.15Z"/>
      <path d="M255.19,190.1h-31.71c-.76-31.05-1.5-61.79-2.26-92.9h63.7V31.59h-31.64V.44h63.86v96.82h-31.11v29.52h-32.75c.64,21.3,1.27,42.02,1.91,63.32Z"/>
      <path d="M551.36,607.8s.17.17.17.17c-.22-2.13-.63-4.26-.63-6.38-.04-28.65-.03-57.3-.03-85.95,0-1.79,0-3.58,0-5.64h-31.9v-31.41h-30.7v-62.87h31v62.66h32.89v31.78h29.59v97.63h-30.39Z"/>
      <path d="M64.85,30.63H30.63v65.75H0V0h64.69c0,10.56,0,20.67,0,30.78,0,0,.15-.15.15-.15Z"/>
      <path d="M354.44,734.31v-63.5c11.48,0,22.51,0,33.54,0,0,0-.17-.15-.16-.15-.12,16.42-.26,32.84-.37,49.27-.03,4.78,0,9.56,0,14.24h-33.1l.1.15Z"/>
      <path d="M354.33,734.17v31.84h-32.08v-31.67c10.75,0,21.48,0,32.2-.01,0-.01-.11-.16-.11-.16Z"/>
      <path d="M387.42,510.58v30.85h-33.03c0-9.59-.1-18.85.15-28.11.02-.94,2.06-2.6,3.19-2.62,9.78-.21,19.57-.12,29.69-.12Z"/>
      <path d="M487.26,351.55v30.43h-32.04v-30.43h32.04Z"/>
      <path d="M319.04,414.23h-30.84v-30.82h30.84v30.82Z"/>
      <path d="M389.16,352.35h32.13v29.79h-32.13v-29.79Z"/>
      <path d="M221.28,32.05h30.4c0,9.51.08,18.6-.12,27.69-.02.91-1.71,2.53-2.65,2.55-9.07.19-18.15.12-27.62.12v-30.36Z"/>
      <path d="M159.1,158.4h-30.13v-29.24h30.13v29.24Z"/>
    </g>
  </g>
</svg>