<?xml version="1.0" encoding="UTF-8"?>
<svg xmlns="http://www.w3.org/2000/svg" version="1.1" viewBox="0 0 648.2 829.8">
  <!-- Generator: Adobe Illustrator 28.7.1, SVG Export Plug-In . SVG Version: 1.2.0 Build 142)  -->
  <g>
    <g id="Layer_2">
      <g id="Layer_1-2">
        <g>
          <path d="M648.2,396.8h-17.5v36.9h-18v17.9h-18.8v36.3h-18.3v35.4h-17.7v36.4h-17.9v36.2h-17.2v19.2h16.5v17h18v19h18v18.1h18.1v54.4h-17.8v17.1h-18v18.1h-17.8v17.9h-18.3v18.1h-18.4v18.2h-16.7v17h-54.4v-16.9h-51.6v-18.1h-54.4v-18.5h-53.1v-17.4h-53v-18h-36.3v-17h-55.6v-19h-37v-17.9h-55v-18.1H0v-54.7h18v-18h16.8v-18h19v-17.8h17.6c.2-1.7.5-2.9.5-4.2,0-15.3,0-30.7.1-46,0-3.9-1.2-5.5-5.1-5.2-4,.2-8,0-12.4,0v-71.6h-18.9v-36.5h-17.9v-107.7h17.5v-89.8h19v-56.1h18.5v-36h18v-18h17.9v-17.8h18v-18.1h18v-18h38.6v-19.2h58.4V0h134v16h53v19.1h37.5v17.9h17.6v18.1h18.6v18h19v17.9h18v36h18v37h18v35.9h18.2v37.2h18.8v53.9h18v37h17.8v52.7h0ZM71.9,307.2h18.2v71.7c-6,.3-11.7.7-17.4,1v16.9h36.3v-125.2h17.6v17.8h17.8v118.6c0,4.6-2.2,6.9-6.7,6.9h-29v55.5h17.8v54h18v36h19v18h37v18h18.9c0,4.6.3,8.7,0,12.6-.5,4.9,1.3,6.3,6.1,6.1,9.2-.4,18.5-.1,28.2-.1v17.7h55v17.9h160c0-4.9.2-9.4,0-13.8-.1-3.1,1.1-4.2,4-4.2,4.6,0,9.1,0,13.6,0v-18.9h-124v-18h-36.1c-.3-6.2-.5-11.8-.8-17.4h-.1c12.1-.3,24.3-.9,36.5-1,51.3-.1,102.7,0,154,0h6.2v-35.8h18v-36.3h18v-35h18v-37h18.1v-18.2h18.8v-35.6h17.4v-18.3h-357.5v-17.3h-34.9v-18.6h355.6v-54.5h-17.8v-36h-18v-17.4h-249.3v17.7h-106.6v17.9h-111.3v18c-4.9,0-9.3.3-13.6,0-4.2-.4-5.1,1.5-5.1,5.2,0,10.3,0,20.7-.2,31h-18.2v18h-17.6v36.5h17.8v18.4h18.4v-72.6h0ZM375.9,35.1h-134.6v17.9h-58.7v17.9h-18.8v18.7h-37.5v36.3h-17.9v36h-17.6v72.8h18.1v-18.6h92.9v-18.1h106.2v-17.9h213.6v-18.4h-17.8v-35.5c-6.5-.5-12.5-1.1-19.1-1.6v-17.9h-18.3v-18.1h-18.6v-17.8h-18.1v-18.1h-53.7v-17.5h0ZM540.5,723.7v-17.7h17v-18.9h-35.9v-18h-35.3v18.2h-36v17.2h-34.6v-17.5h-107.9v-18.2h-70.4v-18.5h-36v-18.5h-18.4v-18h-19.4v-17.7h-55.3v17.9h-36v17.9c-5.4,0-10.2-.2-15,.1-1.3,0-3.5,1.7-3.6,2.7-.4,5.2-.2,10.5-.2,16.4h37.1v18.3h35.9v18.1h56.2v17.9h36.9v17.9h52v18.6h54.7v17.3h53.3v17.7h107.4v-17.9h17v-17.5h18v-17.8h18.5,0Z"/>
          <path d="M255.2,270.5v35.9h-35v-35.9h35Z"/>
          <path d="M308,541.4v-35.8h35.4v35.8h-35.4Z"/>
          <path d="M451.2,505.4h35v35.9h-35v-35.9Z"/>
          <path d="M308.1,397.5h35.2v35h-35.2v-35Z"/>
          <path d="M557.2,288.6h-35v-35.2h35v35.2Z"/>
          <path d="M325.2,270.5v35.9h-34.5v-35.9h34.5Z"/>
          <path d="M451.1,397.4h34.9v35h-34.9v-35Z"/>
          <path d="M273.1,451.4h35v35.1h-35v-35.1Z"/>
          <path d="M380.2,505.5h33.9v35.9h-33.9v-35.9h0Z"/>
          <path d="M557.1,432.5h-34v-35.1h34v35.1Z"/>
          <path d="M522.1,486.5h-34.5v-35h34.5v35Z"/>
          <path d="M432.1,253.5h34.3v34.9h-34.3v-34.9Z"/>
          <path d="M380.3,397.3h33.8v35.1h-33.8v-35.1Z"/>
          <path d="M345,451.5h34v34.9h-34v-34.9Z"/>
          <path d="M450,486.7h-33.8v-35.1h33.8v35.1Z"/>
          <path d="M396.2,253.6v34.7h-33.9v-34.7h33.9Z"/>
          <path d="M182.2,433.3h-37.1v-18h37.9c-.4,6.3-.7,12.2-1,18h.1c0,0,0,0,0,0Z"/>
          <path d="M238,487.6c5.6.3,11.1.6,17.9.9-.6,12-1.2,23.9-1.8,35.8h.1c-5.4-.4-10.9-.6-16.2-.8v-35.9h0c0,0,0,0,0,0Z"/>
          <path d="M325.4,578.2c-9-.2-17.9-.3-26.9-.5-2.1,0-4.3,0-6.8,0v-17.7l-.2.2h34.8c-.4,6.4-.7,12.2-1.1,18.1h.1Z"/>
          <path d="M272.7,542h18.9v18.2s.2-.2.2-.2h-18.9v-18.2l-.2.2h0Z"/>
          <path d="M220,469.5h-18.6v-17.4h17.6c.3,5.8.6,11.6.8,17.5,0,0,0-.1,0-.1h0Z"/>
          <path d="M182.1,433.4h19.1v18h-17.7c0-4.6,0-9.4,0-14.1,0-1.3-.7-2.6-1.2-3.9,0,0-.1,0-.1,0h0Z"/>
          <path d="M272.9,541.9h-17.7c-.3-5.9-.6-11.8-.9-17.7,0,0-.1.1-.1.1h18.5v17.7l.2-.2h0Z"/>
          <path d="M238.1,487.6h-18.1v-18s0,.1,0,0c5.7.3,11.3.6,17.1.9.3,5.8.6,11.5.9,17.1,0,0,.1,0,.1,0h0Z"/>
        </g>
      </g>
    </g>
  </g>
</svg>