<?xml version="1.0" encoding="UTF-8"?>
<svg id="Layer_2" xmlns="http://www.w3.org/2000/svg" viewBox="0 0 674.92 675.13">
  <g id="Layer_1-2" data-name="Layer_1">
    <path d="M302.04,325.36h-24.84v-25.06h-24.67v-23.88h-25.59v-51.89h-24.9V76.8h24.55v-25.03h25.77v-25.78h42.16V0h116.7v25.61h40.01v25.99h24.83v98.54h-24.58v25.01h-99.1v24.32h-24.67v100.91h23.87v-24.58h26.01v-25.02h25.38v-25.15h49.08v-25.7h147.28v25.44h25.88v25.26h25.17v24.83h24.53v150.79h-24.45v24.97h-25v24.71h-98.97v-24.59h-25.03v-100.82h-24.73v-24.93h-99.64v25.58h24.17v25.36h24.79v24.79h25.22v50.27h24.68v149.56h-24.45v25.01h-25v25.01h-49.44v23.99h-113.55v-23.54h-36.6v-25.11h-24.78v-100.55h24.46v-24.5h100.41v-24.79h24.47v-100.05h-23.88v24.46h-26.01v25.08h-24.94v25h-50.09v24.72H73.19v-24.44h-25.34v-24.93h-24.05v-25.88H0v-149.83h23.42v-25.25h24.15v-25.68h103.23v25.45h25.35v100.3h25.06v25.33h100.83v-25.57Z"/>
  </g>
</svg>