<?xml version="1.0" encoding="UTF-8"?>
<svg xmlns="http://www.w3.org/2000/svg" version="1.1" viewBox="0 0 560.2 858">
  <!-- Generator: Adobe Illustrator 28.7.1, SVG Export Plug-In . SVG Version: 1.2.0 Build 142)  -->
  <g>
    <g id="Layer_2">
      <g id="Layer_1-2">
        <g>
          <path d="M32.9,571.6c-.3-.8-.9-1.5-.9-2.3,0-20,0-39.9,0-60.5h32.7v-130.3h-32.5v-64.1H0v-64.2h31.7v-33h32.5v64.3h-31.3v32.9h31.9v-31.6h34v-33.1h32.6v-32.6h32.3v-30.2h34.1v-63.4l-.2.2h31.9v31.6h31v-32c-7.3,0-14.7,0-22.1,0-9.8,0-8.4,1.4-8.5-8.5,0-25.2,0-50.3,0-75.5v-8.4h31.9V0h35.6v30.6h32.2v92.7h-32c0,10.3,0,19.7.1,29.2,0,1.1,1.4,3.1,2.1,3.1,9.9.2,19.8.1,30,.1v-32.1l32.3.6h0c-.2.7-.6,1.5-.6,2.3,0,19.8,0,39.6,0,60.1h33.8v31h32v32h33v33.5h34.6,0c0,0,0,31.7,0,31.7h31.2v63.6h-31.4v130.4h31.7v62.4h-31.7v33h-34.1v33.1h-32.9v31h-31v31h-35.2v65.4l.2-.2h-31.9v-31.7h-32v31.8h31.2v63.6h-31.3v29.9h-35.7v-30.5h-31.4v-62.7h31v-32.2h-31.7v31.2h-31.9v-64.3h-34v-31h-32.9v-31h-32v-33h-34.4v.2c.1,0,.1-33.1.1-33.1h-32.1l.2.2h0ZM330.6,636.6h31.5v-32.1h33.4v-32.8h32.8v-257.6h-33.5v-32.3c-8.4,0-16.4,0-24.4,0-9.5,0-8.4,1.5-8.4-8.5,0-7.6,0-15.2,0-23.2h-32.2v-32.3h-100.1v31.7h-32.2v32.3h-33.8v32.7h-32.6v257.3h33.7v33h33v31.9h32.1v31.5h100.7v-31.7h0Z"/>
          <path d="M361.6,764.5h33.8v-32.1c9.9,0,19.4-.1,28.8,0,3.4,0,4.7-.7,4.5-4.4-.3-9.1,0-18.2,0-27.6h31.6v63.4h-32.3v32h-66.2v-31.6l-.2.2h0Z"/>
          <path d="M198,123.5h-34.2v31.6h-32.8v30.9h-31.7v-62.2h31.4v-32h67v31.8l.2-.2h0Z"/>
          <path d="M197.1,795.9h-66v-32h-31.8v-63.5h31.2v31.8h32.8v32.3h33.8v31.3h0Z"/>
          <path d="M362.2,124.2v-32.3h66.3v31.6h31.7v62.4h-31.4v-31.3h-33v-32.4h-20.6c-3.2,0-6.3-.2-9.5,0-1.2,0-2.4,1.1-3.6,1.7,0,0,0,0,0,0h0Z"/>
          <path d="M527,637v30.9h-31.5v-63.2h18.2c3.2,0,6.3-.2,9.5,0,3.6.3,4.5-1.2,4.5-4.6-.2-9.3,0-18.6,0-28.1h32.7v65h-33.3Z"/>
          <path d="M64.7,604.4v63.6h-32.7v-31.2H0v-65.2h32.9l-.2-.2v33.1h32.1v-.2q-.1,0-.1,0Z"/>
          <path d="M495.1,283.1v-65.8h31.7v33.3h33.5v63.4h-32.5v-32.5c-9.2,0-17.7,0-26.3,0-2.1,0-4.3.9-6.4,1.3,0,0,0,.1,0,.1h0Z"/>
        </g>
      </g>
    </g>
  </g>
</svg>