<?xml version="1.0" encoding="UTF-8"?>
<svg id="Layer_2" xmlns="http://www.w3.org/2000/svg" viewBox="0 0 401.26 583.02">
  <g id="Layer_1-2" data-name="Layer_1">
    <path d="M182.38,583.02c-.5-9.87-.98-19.12-1.52-29.78-9.23,0-18.16.04-27.09-.01-8.66-.06-17.33-.39-25.98-.25-3.78.06-4.89-1.23-4.8-4.9.22-8.8.07-17.6.07-26.98h-31.47v-31.94h-31.94v-30.23h-30.12v-58.26H0v-217.23h29.12v-61.8h28.72v-28.4h31.64v-31.28h32.79v-30.93h60.25V0h160.31v31.3h58.43v31.1h-123.5v29.12h-62.47v30.5h-30.49v60.96h-30.28v184.66h28.44v62.73h31.56v31.95c21.15.58,41.87,1.16,63.14,1.75v28.52h64.8v29.08h58.73v30.23h-28.56v31.13h-190.25Z"/>
  </g>
</svg>