<?xml version="1.0" encoding="UTF-8"?>
<svg id="Layer_2" xmlns="http://www.w3.org/2000/svg" viewBox="0 0 613.31 893.45">
  <g id="Layer_1-2" data-name="Layer_1">
    <g>
      <path d="M421.85,475.04h17.13v33.04h87.41v18.87h35.05v16.79h18.2v17.07c5.77.38,11.17.73,16.83,1.1v16.96h16.83v51.32h-16.66v35.73h-17.83v17.15h-17.08v34.84h-17.09v34.71h-17.91v17.44h-18.05v35.88h-16.89v17.73h-18.09v17.44h-18.05v16.78h-17.81v17.1h-17.28v18.46h-69.79v-17.32h-17.09v-16.93h-17.95v-17.98h-17.94v-34.96h-16.83v-86.9h16.64v-35.28c5.02,0,9.47-.11,13.92.04,2.96.1,4.27-.95,4.15-4.04-.67-16.94,3.2-13.65-13.66-14.03-1.3-.03-2.59,0-4.43,0v17.06h-16.89v34.68h-18v36.01h-17.96v17.14h-17.25v17.03h-34.86v18.95h-34.9v16.88H52.34v-17.44h-17.47v-18.13h-17.62v-34.75H0v-138.64c4.25,0,8.53-.14,12.78.04,3.41.15,4.62-.96,4.52-4.59-.27-9.95-.09-19.92-.09-30.24h17.45v-35.06h16.8v-18.63h17.69v-52.75h-17.43v-87.45h-16.91v-51.9h-17.56v-105.05h17.16v-35.96h17.12v-51.95h17.95v-34.83h18.16v-36.13h16.85V18.37h18.94V0h69.17v18.11h17.73v17.69h35.24v17.54h17.87v17.66h17.57v18.03h17.36v17.5h18.19v33.47h17.03v18.71h17.92v-18.38h18.15c0-4.83-.27-9.13.16-13.36.13-1.29,2.14-3.4,3.33-3.43,10.28-.27,20.58-.16,31.3-.16v105.94c5.81-.33,11.17-.63,17.02-.97v52.76h17.49v140.73h-17.11v53.2ZM158.81,140.83h-19.2v-35.13h-16.13v-17.31h-17.53v35.97h16.72v68.93h16.98v88.09h18.12v104.98h17.84v52.88h16.2v35.75h18.97v33.33h16.88v18.07h17.04c0,4.33.19,8.17-.05,11.98-.22,3.53,1.43,4.79,4.62,4.79,4.29,0,8.57,0,13.43,0v18.54h17.86v16.54h17.42v36.09h17.76v34.47h17.93v-17.65h17.14v-17.32h18.11v-17.75h17.46v-17.99h17.31v-17.51h18.18v-16.16q18.87-1.5,17.71-17c-.02-.3-.25-.58-.65-1.43h-17.38v-34.92h-17.61v-86.9c4.2,0,8.18-.26,12.11.07,4.27.36,5.77-.89,5.74-5.47-.2-31.67-.1-63.33-.1-95v-5.1h-18.1v-52.64h-16.29v-88.58h-17.8v36.69h-17.54v35.18h17.23v51.43h-17.5c0-9.8-.2-19.28.09-28.74.14-4.48-.96-6.53-5.83-5.97-3.58.41-7.24.08-11.39.08v-53.26h-18.07v-34.97h-17.91v-33.91h-17.11v-18.59h-17.92v-16.49h-16.73v-18.01h-35.33v-18.91h-18.88v-16.28h-16.24v-17.35h-18.47v17.83h17.24v34.17h17.15v34.61h-15.91v-17.01h-17.81v-35.15h-18.07v-16.56h-17.43v35.04h16.65v17.98h18.97c0,17.5,0,34.62,0,51.75l.15-.17ZM68.85,368.2c0,2.76,0,4.9,0,7.05,0,25.16.12,50.33-.09,75.49-.04,4.49,1.28,5.89,5.64,5.5,3.91-.36,7.87-.08,12.36-.08v52.15h17.95v35.97h17.34v35.14h18.33v17.03c-6.04.3-11.93.59-17.83.89v51.82c22.48,0,44.6.05,66.72-.16,1.14-.01,3.13-2.22,3.24-3.53.4-4.57.16-9.2.16-14.42h17.13v-17.06h18.27v-33.93h17.8c0-5.57-.18-10.56.06-15.53.16-3.35-1.2-4.51-4.34-4.45-4.26.09-8.53.02-13.27.02v-17.36h-17.72v-16.75h-18.03v-34.83h-17.1v-35.33h-18.01v-52.97h-17.99v-104.42h-16.2v-70.17h-17.42v71.02h16.55v50.42h-17.78v-33.99h-16.57v-139.87h16.24v-34.39h-16.9v33.88h-17.93v35.92h-17.04v34.92h-17.53v70.69h17.74v51.35h16.23ZM509.13,579.33v-36.06h-52.7v16.95h-17.32v18.08h-17.66v17.82h-18.03v16.87h-17.08v17.37c-4.87,0-9.34.15-13.8-.05-3.05-.14-4.15.95-4.03,4.01.19,4.77.05,9.55.05,14.88h-18.12v16.99h-17.86v34.91h-17.16v35.04h-17.6v35.59h17.99v16.71h17.11v17.3h35.92v-17.78h17.8v-34.96h17.04v-51.79h18.13v-35.31h17.03v-17.84h18.12v-34.11h17.85v-17.96h17.95v-17.81c5.78.4,10.99.76,16.35,1.13ZM227.83,701.3v-17.35h17.47v-34.93h17.02v-17.61h-17.85v16.24c-5.86.58-11.4,1.13-17.36,1.72v16.74h-35.69v16.85h-83.79v-26.04h-20.21v-112.84h-18.7v18.15h-16.32v34.92h-17.57v105.14h16.82v33.87h17.34v17.5h71.88v-17.71h34.94v-17.93h33.97v-16.72h18.06ZM473.88,788.24v-35.36h17.94v-16.98h17.87v-34.58h16.12v-35.15c5.01,0,9.64-.14,14.26.05,3.47.14,4.8-1.16,4.64-4.66-.22-4.74-.05-9.5-.05-14.6h17.17v-33.65c4.84.28,9.12.75,13.39.64,1.26-.03,3.53-1.69,3.55-2.64.26-10.6.16-21.21.16-31.87h-34.52v17.73h-17.94v15.83h-17.52v17.24c-6.02.35-11.59.67-17.67,1.02v34.03h-17.89v17.69h-18.09v35.22h-16.92v34.76h-18.05v35.34h-17.92v36.12h-16.52c0,4.84.08,9.15-.03,13.45-.07,2.71,1.29,3.38,3.71,3.37,9.33-.05,18.66-.05,27.99.07,2.96.04,4.27-.97,4.15-4.05-.17-4.27-.04-8.55-.04-13.43h17.22v-17.86h17.02v-17.71h17.98Z"/>
      <path d="M210.56,124.22h17.58v16.7h17.58v35.02h16.67v34h18.05v36.3h17.9v34.51h-17.48v-16.62h-17.09v-36.03h-17.84v-34.9h-17.2v-35.01h-18v-34.14l-.17.17Z"/>
      <path d="M210.46,281.28h-17.52v-53.09h-17.14v-34.91h-16.99c0-17.89,0-35.16,0-52.44,0,0-.15.17-.15.16,5.32,0,10.63,0,16.57,0v34.96h17.3v34.05h17.78v71.43l.16-.16Z"/>
      <path d="M210.29,281.44c5.81-.61,11.62-1.21,17.79-1.85v35.45h-17.61c0-11.29,0-22.53,0-33.76,0,0-.17.16-.17.16Z"/>
      <path d="M210.73,124.05h-17.73v-17.98c4.96,0,9.89-.2,14.78.17,1,.08,2.55,2.25,2.63,3.54.32,4.8.13,9.63.13,14.44,0,0,.17-.17.17-.17Z"/>
    </g>
  </g>
</svg>