<?xml version="1.0" encoding="UTF-8"?>
<svg id="Layer_2" xmlns="http://www.w3.org/2000/svg" viewBox="0 0 622.69 591.44">
  <g id="Layer_1-2" data-name="Layer_1">
    <g>
      <path d="M609.23,367.71h-14.48v69.6h-13.76v28.14h13.35v42.52h14.02v28.58h14.34v41.86h-13.11v13.02h-42.91v-13.53h-42.92v-12.96h-70.18v12.65H169.62v-12.61h-86.07v12.92h-25.97v13.38H14.44v-12.77H.8v-70.4h13.16v-29.41h14.28v-83.01h-13.3v-240.02h12.42v-56.85h-13.55v-41.13H0V14.09h13.71V.01h55.67v14.11h41.16v14.17h83.78v-14.13h198.66v14.22h117.26v-14.26h41.16V0h56.97v13.92h14.29v43.61h-13.07v27.82h-14.81v56.08h14.44v226.29ZM29.4,184.38v154.59h14.21v55.76h12.63v42.1h13.79v28.06h-13.76v15.79h-12.98v29.07h-14.45v27.05c-4.97.25-9.54.47-14.02.7v26.8h27.83v-13.72h28.08v-14.08h26.85v-14.16h29.09v-14.39h28.24v14.44h42.22v14.35h42.58v13.59h141.04v-14.02h43.73v-14.05h42.19v-14.82h27.88v-13.56h15.24v28.76h13.87v14.2h29.01v13.39h28.36v-28.75h-14.75v-28.11h-13.6c-.1-1.65-.23-2.95-.24-4.25-.07-11.32-.16-22.64-.13-33.97,0-3.09-.94-4.6-4.34-4.35-3.58.26-7.19.06-11.36.06v-27.36h-12.82v-28.84h12.5v-27.51h15.27v-42.51h14.69v-28.18h-14.46v-27.87h14.83v-28.75h13.49v-83.96h-14.58c-.21,4.67-.4,9.04-.61,13.73h-13.45v14.34h-13.91v13.66h-14.09v13.02h-12.91v-27h13.1v-28.18h14.15v-27.9h13.88v-29h15.09v-28.09h14.95v-26.88h12.06V15.03h-41.73v13.81h-26.79c-.26,4.96-.49,9.53-.75,14.6h-29.14c-.26,4.71-.5,8.91-.73,13.08h-41.01c-.31-4.48-.6-8.68-.92-13.33h-74.23v-13.85h-169v14.12h-40.04v12.92h-43.58v-13.15h-28.51v-14.59h-28.16v-13.68H29.75v42.76h13.77v41.05h13.55v44.11h-15.23v41.5h-12.44Z"/>
      <path d="M295.82,506.58v-13.69h55.64v-14.1h28.93v-14.05h27.81v-13.88h30.13v-13.65h14.07v-13.19h14.79v13.45h-13.44v27.07h-14.63v14.91h-30.09v13.23h-27.79v13.91h-85.43Z"/>
      <path d="M437.42,155.61v13.77h-13.76v27.92h-15.97v14.2h-27.99v13.99h-27.48v14.77h-56.37v-14.47h27v-14.24h28.23v-13.61h27.23v-14.18h28.2v-13.86h15.21v-14.14h15.87l-.16-.16Z"/>
      <path d="M155.9,338.26h27.84v14.1h40.65v14.18h58.48v15.13h-72.12v-13.88h-41.01v-14.94h-13.75v-14.67l-.09.09Z"/>
      <path d="M196.22,211.41c-.21-4.71-.41-9.13-.62-14.01h-26.56v-13h-13.6v-15.19h-27.56v-13.27h27.76c0,3.13.15,6.09-.04,9.03-.23,3.56,1.43,4.64,4.76,4.59,7.81-.13,15.62-.04,23.92-.04v13.95h25.93v27.95h-14Z"/>
      <path d="M437.56,309.98h28.81v-12.93h15.87v13.42h-13.91v14.91h-15.61v13.54c-4.59.22-8.69.42-13.25.65-.28,4.27-.54,8.36-.84,13h-14.7v14.76h-15.06v-15.17c4.71-.22,9.42-.43,14.53-.67v-26.54h14.15v-14.97Z"/>
      <path d="M155.99,338.18h-28.07v-13.14h27.37c.2,4.44.4,8.84.6,13.23,0,0,.1-.1.1-.1Z"/>
      <path d="M437.58,155.77v-13.7h13.7v13.53c-4.43,0-9.14,0-13.86,0,0,0,.16.16.16.16Z"/>
    </g>
  </g>
</svg>