<?xml version="1.0" encoding="UTF-8"?>
<svg xmlns="http://www.w3.org/2000/svg" version="1.1" viewBox="0 0 570 910.4">
  <!-- Generator: Adobe Illustrator 28.7.1, SVG Export Plug-In . SVG Version: 1.2.0 Build 142)  -->
  <g>
    <g id="Layer_2">
      <g id="Layer_1-2">
        <g>
          <path d="M160.7,30.9v-15h41.1V0h135.4v15.7h42.1v14.9h28.9v14.9h14.1v14.1h14.9v14.1h15.1v29.9h14.9v29.3h14.5v132.2h15v14.4h14.5v28.7h13.7v73.2h-13.6v58.2h13.9v15.2h15v14.8h15v28.9h14.8v73h-14.4v14.8c-5.2.4-10.1.8-15.2,1.2v43h-13.9v30h-15.8v29h-14.2v14.2h-14.6v14.9h-14.9v14h-14.4v14.9h-29.1v15h-29.9v15h-14v14.5h28.5v13.7h14.8v59.9h-13.7v44.9h-72.2v-15.3h-15.7v15.3h-43.8v-15.4h-14.9v-44.3h14.5v-27.9h15.2-.1c0,0,0,28.3,0,28.3h-13.9v29.4h27.5v-43.4h14.6v-30.6h14.8v-29.7h15.2v-29.3h15v-29.9h13.9v-28.8h13.6v-28.6h-26.9v29.7h-15.1v44h-14.9v28.8h-15,.1c0,.1,0-29.7,0-29.7h15.3v-44.3h14.8v-29.2h14.1v-29.7h14.7v-28.1h14.1v-15.2h-14.2v-15h-14.9v-14.8h-13.6v-88.2h14.5v-13.4h14v14.7h-13.5v72.3h13.7v15.2c5.4-.3,10.3-.6,15.2-.9v15.7h13.4v29.8h-13.5v13.5h27.9v-14.4h14.9v-14.6h87.2v-14.7h14.7v-30.1h13.7v-28.2h-13.9v-29.9h-14v-14.2h-15.5v-13.4h-43.8v13.7h30.4v14.4h14.2v14.8h13.7v58.9h-14v13.5h-88.1v-13.6c-9.4-.4-18.5-.8-27.6-1.2-.3-4.8-.5-9.5-.8-14.9h-13.1v-57.9c3,0,5.8-.1,8.6,0,3.3.2,4.5-1.2,4.3-4.4-.2-3.1,0-6.2,0-9.3,10-.5,19.4-1,29.3-1.5v-14h43.3v-14.1h-57.7v14h-28.2v-15.6h28.4v-12.8h58v13.6h28.6v-14.2h-14.4v-43.9h14.5v-87.9h-14.9v-15.2h-14.7v-13.4h-71.4v13.7h-28.1v16.1h-15.7v56.9h-163.1v-43.2h-12.9v-15.1h-15.5v-15h-14.8v-13.5h-72.7v13.9h-14.6v15.9h-13.5v12.9h-15.8.2c0,0,0-27.7,0-27.7h14.6v-14.6h14.6v-132.6h14.7l-.2-.2c0,28.7.1,57.3.2,86,0,10.1,0,20.3,0,30.7h13.8v-73.5h15.3v-42.7h14.7v-29.2h14.8v-15.2c3.9,0,7.2,0,10.5,0,2.7,0,4-.9,3.8-3.8-.2-3.5,0-7,0-10.9h14.5v-14h28.4v-14.9h135v14.5h28.2v14.3c9.8.4,19,.8,28.5,1.2v13.6h14.4v14.9h14.1v29.1h14.9v116.3h29.6v-101.4h-14.2v-43.7h-14.8v-15.1h-14.2v-15h-15v-14.5h-14.2v-14.5h-28.9v-14.2h-42.8v-14.9h-105.2v15h-42.9l.2.2h0ZM145.3,118.2v28.9h-14.5v102.8h13.9v13.7c10.1.6,19.7,1.2,29.8,1.8v14.5h14v14.9h14.7v41.6h134.6v-43.8h13.9v-13.9h15.1v-14.8h27.7v-14.4h14.8v-87.9h-14.8v-28.9h-14.2v-14.5h-13.8v-14.7h-15.1v-14.6h-28.9v-14.9h-119.2v14.3c-9.7.5-19.1,1-29,1.5v14.1h-14.6v14.2h-14.2,0ZM409.8,499.8v28.3h14.8v13.8h28.9v14.6h43.1v-15.1h14.2v-27.7h-14.5v-14.4h-29.8v-14.5h-42.2v14.9h-14.5,0ZM496.1,645.8v-29.8h-43.9v28.9h-14.8v30.6h-13v29.3h-14.5v27.5h13.9v-13.8h14.9v-14.9h13.9v-14.5h14.3v-14.8h14.6v-28.5h14.6ZM408.2,821.5h-14.9v-14.5h-27.9v14.9h-14.2v44h-13.9v14.9h14.8v13.6h42.2v-13.7h-14.9v-14.2h-13.4v-30.1h27.6v13.9h14.7v-28.9h0ZM408,644.9v-13.9h-27v13.9h27Z"/>
          <path d="M292.5,822.8v-16h-74.1v-14.8h-43.8v-14.2h-29.1v-14.9h-29.1v-15.1h-29.9v-13.9h-14.9v-15h-14.3v-14.6h-14.7v-14.3h-14.2v-29.1h-13.9v-30H0v-132.9h14.3v-44h13.9v-72.1h-13.3v-73.2c4.5-.3,9.1-.6,13.6-.9h-.2c0,0,0,60.1,0,60.1h15.7v87.2h-15.7v43.9h-13.6v117.2h14.4v29.7h15.2v28.7h13.5v14.7h14.7v14.9h14v14.9h29.9v14h14.1v14.8h44.1v15.1h43.8v13.7h87.4v-13.8h15.7-.1c0-.1,0,29.6,0,29.6h-15.1v30.3h-13.9.1c0,0,0,0,0,0Z"/>
          <path d="M72.4,132.7v-28.9h13.9v-29.7h14.9v29.5h-13.8v28.9h-15.2l.2.2h0Z"/>
          <path d="M116.4,73h-14.5v-14.6h14.3v-13.3h13.9v14.3h-13.8v13.6h0Z"/>
          <path d="M160.5,30.8v14.3h-28.9v-14.2h29-.2Z"/>
          <path d="M204.6,541.7h13.6v-27.7h15.1v-15.5h72.3v15.1h13.9c0,7.9.2,15.4,0,22.8-.2,4.3,1.4,5.7,5.5,5.3,3-.3,6,0,9.3,0v44.8h-13.4v15h-14.8v131.9h-72.3v-131.7h-15.1v-14.8h-13.9v-45.2h0ZM247.5,570.9h14.9v30.6h15.2v-30h13.6v-28.8h-14v-13.7h-16v13.8h-13.7v28.1h0Z"/>
          <path d="M247.5,396.6v-14.6h43.6v14.7h29.1v12.8h13v59.9h-115.5v-15.4h-13.3v-44h13.7v-13.5h29.5v14.9h-28.6v43h100v-28.9h-14.7v-14h-14.1v-14.9h-42.7Z"/>
          <path d="M405,307.2c.2-4.9.4-9.9.7-15.1h42.7v13.9h14.5v44.1h-14.2v15.4h-43.2v-15.2h-14.7v-44.1c4.9.3,9.6.6,14.4.9,0,9.4,0,18.9,0,28.5h29v-28.3h-29.1Z"/>
          <path d="M87,309.2c.2-4.9.4-9.9.7-15.1h42.7v13.9h14.5v44.1h-14.2v15.4h-43.2v-15.2h-14.7v-44.1c4.9.3,9.6.6,14.4.9,0,9.4,0,18.9,0,28.5h29v-28.3h-29.1,0Z"/>
        </g>
      </g>
    </g>
  </g>
</svg>