<?xml version="1.0" encoding="UTF-8"?>
<svg id="Layer_2" xmlns="http://www.w3.org/2000/svg" viewBox="0 0 583.74 860.25">
  <g id="Layer_1-2" data-name="Layer_1">
    <path d="M0,860.25v-133.32h34.81v-130.8h34.29v-31.3h33.8v-34.01h34.97v-30.91h31.61v-96.59h-66.27v-65.59h34.51v-63.93h-34.45V96.9h34.65v-32.64h31.77V31.57h35.07V0h174.95v31.49h34v32.96h32.84v32.13h34.98v176.91h-34.22v63.96h34.15v65.43h-66.34v95.71h32.41c0,6.23,0,11.99,0,17.74,0,3.17.24,6.36-.07,9.49-.41,4.13,1.36,5.07,5.19,4.98,9.48-.24,18.97-.08,28.98-.08v34.18h33.83v30.98h33.33v130.7h34.92v133.69H0ZM204.23,306.27h176.88v-31.93h33.98v-32.88h32.03v-112.15h-32.34v-32.81h-34.66v-33.14h-34.51V31.24h-105.86v32.24h-35.91v33.25h-34.97v32.71h-31.68v112.39h32.86v32.16h34.15v32.29ZM69.33,660.74v65.68h446.14v-65.85h-33.11v-31.56H102.7v31.73h-33.37ZM549.69,760.07H35.14v66.39h514.55v-66.39ZM204.03,531.16h-34.38v33.4h-32.36v31.55h310.18v-31.65h-66.6v-66.08h-33.24v-64.37h-143.6v97.14ZM170.26,337.8v33.19h244.44v-33.19h-244.44Z"/>
  </g>
</svg>