<?xml version="1.0" encoding="UTF-8"?>
<svg id="Layer_2" xmlns="http://www.w3.org/2000/svg" viewBox="0 0 623.31 692.35">
  <g id="Layer_1-2" data-name="Layer_1">
    <g>
      <path d="M127.6,114.06h22.98v24.17h46.37v-23.3c8.03-.5,15.47-.96,23.26-1.44v-22.86c-7.38.36-14.7.72-22.54,1.1v-22.83h-47.08v22.39h-21.34v-23.86h22.18v-21.88h48.14v-23.25h44.26v21.59h-20.13v22.95h21.99v24.76h47.96V21.69h-47.57V0h135.07v20.62c-5.53,0-11,0-16.46,0-14.67,0-29.33.01-44,0-2.78,0-5.21-.15-5.17,4.02.17,21.5.09,43,.12,64.49,0,.81.18,1.61.31,2.68h66.56v-24.26h22.73v-22.65h-22.36v-22.79c5.53,0,10.78,0,16.04,0,8.33,0,16.67.13,25-.07,3.35-.08,4.34,1.13,4.24,4.34-.2,6.14-.06,12.28-.06,18.87,14.84.55,29.36,1.09,44.19,1.63v21.07h-43.3v23.77h-21.55v22.2h22.2v23.29h44.5v-22.75h22.12v-21.07h21.04v44.96h-20.49v22.06h-43.65v22.85h20.56v23.39h45.37v-68.02h23.25v68.24h22.82v113.93h-45.81v48.4h46.73v112.16h-46.6v48.53h46v91.76h25.91c-.68,15.79-1.33,31.04-2,46.82h33.91v23.86H0v-23.59h35.97v-47.02h24.36v-91.36h46.41v-48.44h-45.8v-112.76h45.68v-48.33h-45.61v-113.7h21.82v-68.12h23.06v67.77h45.33v-22.69h23.94v-22.93h-47.03v-21.99c-6.26-.45-12.03-.68-17.73-1.42-1.38-.18-3.6-2.05-3.62-3.17-.25-13.63-.16-27.27-.16-40.94,6.54,0,12.65-.13,18.74.16.8.04,2.08,2.22,2.14,3.45.24,5.31.1,10.63.1,16.79ZM58.67,668.02h507.37c.36-7.95.7-15.56,1.05-23.57H60.2c-.53,8.12-1.02,15.66-1.53,23.57ZM475.54,230.61v68.2h68.29v-70.08c-22.89.63-45.42,1.25-68.29,1.88ZM544.07,390.92h-68.31v68.7h68.31v-68.7ZM83.44,297.95c22.57.52,44.72,1.03,67,1.54v-70.16h-67v68.62ZM543.94,620.99v-68.38h-68.35v68.38h68.35ZM83.48,390.89v67.61h66.97v-67.61h-66.97ZM83.1,620.09h66.78v-67.56h-66.78v67.56ZM475.64,368.87h22.35v-47.75h-22.35v47.75ZM475.46,529.04h22.42v-46.8h-22.42v46.8ZM130.16,529.3h20.44v-47.78h-20.44v47.78ZM150.61,368.9v-45.56h-20.47v45.56h20.47Z"/>
      <path d="M496.04,91.7h-21.56v-23.01h21.56v23.01Z"/>
    </g>
  </g>
</svg>