<?xml version="1.0" encoding="UTF-8"?>
<svg xmlns="http://www.w3.org/2000/svg" version="1.1" viewBox="0 0 633.3 888.1">
  <!-- Generator: Adobe Illustrator 28.7.1, SVG Export Plug-In . SVG Version: 1.2.0 Build 142)  -->
  <g>
    <g id="Layer_2">
      <g id="Layer_1-2">
        <g>
          <path d="M376.5,17.7h51.9v16.8h32.9v16.1h17.4v18h17.7v16h16.9v34.9h16.9v35.1h17.1v101.9h67.9v16.9h17.9v138h-17.4v17h-16v205.1h16.5v16.1h17v136.7h-16.5v17.1h-121.1v16.9h-15.9v17c-11.7.5-23.1,1.1-35,1.6v16.6h-34c-.4,5.8-.8,11.1-1.2,16.9h-32.8v15.8h-119.9v-15.3h-35.1v-17.1h-33.9v-17.9h-33.9v-17.1h-17.1v-16.9H16.9v-16.9H0v-137.2h12.2c3.2,0,4.9-1.2,4.6-4.8-.3-3.5,0-7,0-11h16.7v-206.1h-16.6v-15.9H.1v-137.9h16.3v-17.1h69.1v-102.1c4.5,0,8.6-.2,12.6,0,3.5.2,4.6-1,4.6-4.6-.2-10,0-19.9,0-30.3h16.8v-34.1h17.1v-16.9h16.9v-16.8c5.7-.6,11.1-1.1,17.1-1.7v-15.5h33.9v-17.1h52.1V0h119.9v17.7ZM462.9,102.3v17.1h15.5v-16.9h-15.6v-16.7h-16.9v16.5c5.9,0,11.5,0,17,0h0ZM136.7,153.6h-16.7v53.1c5.8-.5,11.1-.9,16.6-1.3v-51.9h16.8v-32.7h-16.7v32.7h0ZM427.7,67.5v17.8h16.6v-17.7h-16.8v-17.3h-33.1v-15.5h-155.1v16.5h-35v16.4h-15.5v16.6h32.9v-16.8h34.9v-15.5h120.1v15.9h16.9v17.4h17.1v-17.7h16.8,0ZM222.5,307.3h188.4v-15.9h16.9v-16.9h16.9v-16.9h17.9v-68.1h-18.2v-36.1h-16.9v-16.9h-16.9v-17.1h-34.1v-16.4h-120.1v16.8h-33.9v16.9h-17.9v17.1h-17v35h-15.5v68.2h16v17.8h17.7v17h16.8v15.5h0ZM582.9,411.8h17v-17.3h15.5v-103.1h-15.9v-17.4h-137.9v16.8h-16.9v16.9h-17.2v17.7h-221.9v-18h-17.1v-16.9h-16.9v-16.5H33.4v17.8h-16.5v103.1h16.8v16.9h16.6v238.9h-17v17.1h-16.4v102.1h16.9v16.9h120.1v17.1h16.9v17h33.9v17h34.9v16.5h154.1v-16.7h34.1v-17.4h34v-16.7h17.9v-17.3h120v-16.6h15.6v-102.1h-15.8v-16.9h-16.7v-238.7h0ZM171.5,85.8v17.1h-16.7v17.2h16.9v-17.2h16.8v-17.2h-16.9,0ZM513.4,188.5v-34.6h-16.5v34.6h16.5ZM495.3,153.4v-33.6h-16.1v33.6h16.1ZM119.8,240.2h16.5v-17.3h-16.5s0,17.3,0,17.3ZM496.8,205.8v16.6h16.6v-16.6h-16.6Z"/>
          <path d="M444.5,342.3v-16.4h16.9v-17.1h17.1v-17.7h102.7v17.5h17.1v68.8h-16.7v17.1h-16.7v273.3h16.5v16.7h16.9v67.8h-16.7v17.1h-120v17h-17v17h-33.9v17.1h-34.1v16.7h-119.7v-16.5h-34.8c-.6-5.8-1.1-11.1-1.6-16.9h-31.7v-17.1h-16.9v-16.9H50.9v-17.1h-17v-67.9h16.6v-16.9h17.8v-273.1h-17.5v-16.9h-16.8v-69.2h16.4v-17.6h102.9v17.6h17.1v16.9h17.9v16.8M376.7,377.5c.1,5.5.3,11,.4,16.3h16.2v-16.2h-16.7v-16.8h-16.6v16.7h16.7,0ZM189.1,634.2c-5.7-.3-11.4-.6-17.2-.9v17.3h16.7c0,5.7,0,11.4,0,17.1h-16.8v17.3h16.9v16.4h16.8v-16.7c5.7,0,11.4,0,17.1,0v17.4h17.1v16.9h17v16.5h16.9v-17.8l-.2.2h17.3v16.6h17.9v-16.3h16.9v16.4h17.1v-16.7h16.9l-.2-.2v17.7h17.4v-16.4h16.8v16.4h16.8v-17.8h17v-16h16.8v-16.9h-16.8c0-5.7,0-11.4,0-17.1h17.1v15.8h17.3v-15.7h-17.4c0-5.7,0-11.4,0-17.1h17.7v-16.9h-17.7c0-5.7,0-11.4,0-17.1h17.6v-16.9h-17.6c0-6,0-12.1,0-18.1,5.9.3,11.8.6,17.7.8v-17.7h-17.7v-17.1h18.1c-.3-5.9-.5-11.2-.8-16.9h-17.3c0-5.7,0-11.4,0-17.1h17.9c-.3-6-.5-11.3-.8-16.9h-17.1v-17.1h17.7v-16.9h-17.7v-17.1h17.7v-16.9h-17.7v-16.8h-16.9v16.8h-17v17h-17.2v-16.9h-16.9v-17h-17v-16.8h-16.9v16.8h-18.1v-16.8h-15.9v16.8h-18.1v-16.8h-16.9v16.8c-5.7,0-11.4,0-17.1,0v-16.8h-16.9v16.8h-16.8v15.7h16.7v-15.8h17.1v17.2h-17.2v16.9l.2-.2c-5.7,0-11.4.1-17.1.2v-16.8h-16.9v16.8h-17.1v-16.7h-16.9v16.7h-16.9v17.1h16.8c-.6,5.9-1.1,11.2-1.5,16.5h-15.2v17.1h16.7c-.6-6-1.1-11.6-1.6-17.3,6.2.1,12.5.2,18.7.4,0,5.7,0,11.4,0,17.1h-17.5v17.1h-16.2v16.8h16.8v16.8h16.8v-16.7h15.8v-16.9h-15.8v-17.1h15.8v-16.9h-15.8c0-5.7,0-11.4,0-17.1h17.1v17.3h16.6v16.9h-16.3v17.1h16.3v17h-16.4v16.9h16.9v16.9h-16.8v16.9h16.8v18.2h-16.7v16.1h16.7v17h16.5v17.7h-16.7v-16.8h-16.9v16.8c-5.7,0-11.4,0-17.2,0,.2-5.5.4-11,.5-16.6,5.1-.6,10.1-1.2,15.2-1.8v-15.3h-15.9c.3,6,.6,11.6.8,17.2h0ZM496.8,496.8h16.5v-16.9h-16.3c0,5.9,0,11.5,0,17h-17v16.4h15.3c.5-5.8,1.1-11.2,1.6-16.6h0ZM239.6,752.7v-16.9h-16.6v16.8h16.7v16.8h16.7v-16.6h-16.8ZM188.6,394.7v16.6h17v-16.7h17v-18h16.8v-15.6h-16.6v15.8h-17v18c-5.8,0-11.5.1-17.3.2v-17.2h-16.5v17c5.8,0,11.2,0,16.7,0h0ZM188.7,564.6c-5.5-.2-11-.3-16.5-.5-.5-5.1-1-10.2-1.4-15.2h-15.7v16c6-.3,11.7-.6,17.3-.9-.4,2.1-.9,4.1-1.1,6.2-.3,3.7-.5,7.5-.7,11.2h-15.6v17.9h15.4v-18c6.1,0,12.3.2,18.4.3v17.7h15.6v-17.6h-15.7v-17.1h15.8v-15.7h-15.7v15.8h0ZM444.8,376.5v-15.7h-16.9v15.5h17.1v17.4h17.6c-.4-6-.8-11.7-1.1-17.3h17v-15.5h-16.9v15.7c-5.6,0-11.2,0-16.8,0h0ZM444.6,735.5h18.1v-18h15.6v-15.6h-16.9v15.7h-16.8v18h-16.8v15.7h16.7v-15.8h0ZM102.4,359.5v-34.6h-33.4v34.6h33.4ZM530.7,359.3h33.6v-34.5h-33.6v34.5ZM530.9,701.7v33.6h33.4v-33.6h-33.4ZM68.8,735.3h33.6v-33.5h-33.6v33.5h0ZM154.5,377.9h-17.6v16.4h17.6v-16.4h0ZM496.8,581.8v17.5h16.7v-17.5h-16.7ZM308.6,786.7v16.6h16.6v-16.6h-16.6ZM325.1,769.4v-16.6h-16.5v16.6h16.5ZM136.5,428.9h-16.5v16.3h16.5v-16.3ZM393.4,752.8h-16.6v16.6h16.6v-16.6ZM273.8,769.3h16.6v-16.4h-16.6v16.4ZM495.5,428.7h-16.1v16.6h16.1v-16.6ZM462,394.7v16.5h16.3v-16.5h-16.3ZM513.3,462.4v-16.6h-16.5v16.6h16.5ZM136.5,462.8h-16.6v16.5h16.6v-16.5ZM479.2,462.7v16.5h16.1v-16.5h-16.1ZM136.5,496.9h-16.5v16.3h16.5v-16.3ZM136.5,530.8h-16.6v16.6h16.6v-16.6ZM119.9,564.7v16.6h16.4v-16.6h-16.4ZM136.4,616.4v-16.6h-16.6v16.6h16.6ZM206,718.8v16.7h15.9v-16.7h-15.9ZM513.3,530.4c-.3-5.8-.6-11.3-.8-16.5h-15.7v16.5h16.5ZM342.9,752.2v16.1h16.4v-16.1h-16.4ZM496.9,548.7v15.5h16.3v-15.5h-16.3ZM324.9,360.7v15.6h16.5v-15.6h-16.5ZM479.5,650.3h15.8v-16.5h-15.8v16.5ZM154.8,650.8v16.6h15.6v-16.6h-15.6ZM480,564.8v16.5h15.5v-16.5h-15.5ZM170.4,428.5v-16.6h-15.5v16.6h15.5ZM495.5,530.9h-15.6v16.5h15.6v-16.5ZM411,377.6v15.6h16.3v-15.6h-16.3ZM410.4,427.5v-15.6h-16.5v15.6h16.5ZM136.9,667.8v15.6h16.6v-15.6h-16.6ZM513.3,410.4v-15.6h-16.4v15.6h16.4ZM136.4,649.4v-15.6h-16.6v15.6h16.6ZM513.5,667.9h-16.6v15.5h16.6v-15.5ZM513.5,616.9h-16.6v15.5h16.6v-15.5ZM154.9,701.7v16.6h15.4v-16.6h-15.4ZM154.7,633.1h16v-16.2h-16v16.2ZM188.4,718.6h-16.4v15.7h16.4v-15.7ZM479.8,599.7v16.2h15.7v-16.2h-15.7ZM394,360.8v15.5h16.3v-15.5h-16.3ZM291.3,376.4h16.1v-15.6h-16.1v15.6ZM272.3,376.4v-15.5h-15.4v15.5h15.4Z"/>
          <path d="M359.3,684.6h-17.6v16.5h-49.9v-16.5h-17.8v-85.9h16.4v-50.1h-17.5v-16.9h-15.8v-52.1h15.5v-16.8h17.8v-16.9h50.9v16.5h18.1v15.9h16.8v52.9h-16.5v15.9h-16.9v51.3h16.4v86h0Z"/>
          <path d="M427.5,479.5c.5,5.5,1,11,1.6,17h15.6v17.1h-17.1v-16.9h-16.8v-16.2h-16.9v-17.9h16.8l-.2-.2v17.1h17.1l-.2-.2h0Z"/>
          <path d="M222.6,684.6v-17.1h16.9v16h16.7v16.9h-16.4v-15.8h-17.2Z"/>
          <path d="M427.7,581.5c0,6-.1,12.1-.2,18.1l.2-.2c-5.7,0-11.4,0-17.1,0l.2.2v-18.2h17,0Z"/>
          <path d="M410.7,616.5h-16.7v-17.6c5.6.3,11.1.5,16.7.8l-.2-.2v17.2l.2-.2h0Z"/>
          <path d="M410.8,650.3h-16.7v-16.9h16.5v17.1l.2-.2Z"/>
          <path d="M273.6,411.5h17.1v16.7h-17.1v-16.7h0Z"/>
          <path d="M205.6,462.6v-17.1c5.7,0,11.4,0,17.1,0v17.1h-17.1Z"/>
          <path d="M239.5,445.6h16.7v16.6h-16.6v-16.8l-.2.2h0Z"/>
          <path d="M427.7,445.5c0,5.7-.1,11.4-.2,17.1l.2-.2h-17.2l.2.2c0-5.7,0-11.4-.1-17.2h17.1,0Z"/>
          <path d="M427.7,701.6c-5.7,0-11.4,0-17.1,0v-17.1h17.1v17.1h0Z"/>
          <path d="M427.7,513.5v17.1h-16.7v-17.1h16.7,0Z"/>
          <path d="M376.5,683.3v-16.3h16.6v16.3h-16.6Z"/>
          <path d="M427.6,530.5h17.1v17.1h-17.1v-17.1Z"/>
          <path d="M427.7,650.5v17.1h-16.9v-17.3s-.2.2-.2.2c5.7,0,11.4,0,17.1,0h0Z"/>
          <path d="M410.3,547.9v16.3h-16.3v-16.3h16.3Z"/>
          <path d="M205.6,650.5c5.7,0,11.4,0,17.1,0v17.1h-17.1v-17.1h0Z"/>
          <path d="M427.6,633.5h17.1v17.1h-17.1v-17.1h0Z"/>
          <path d="M222.6,581.6v-17.1h16.9v17.1l.2-.2c-5.7,0-11.4.1-17.1.2h0Z"/>
          <path d="M444.7,581.7c-5.7,0-11.4,0-17.1,0v-17.1h17.1v17.1h0Z"/>
          <path d="M359.7,411.5c0,5.7,0,11.4,0,17.1h-17.1v-17.1h17.1Z"/>
          <path d="M239.5,581.7h16.7v16.6h-16.6v-16.8l-.2.2h0Z"/>
          <path d="M410.7,701.5c0,5.4,0,10.7,0,16.1h-16.4v-17.3c5.4.4,10.9.8,16.4,1.2Z"/>
          <path d="M427.5,616.5l.2,17.1c-4.3,0-8.6-.2-13,0-3,0-4.2-1.1-4.1-4.1.2-4.3,0-8.6,0-13l-.2.2h17.2l-.2-.2Z"/>
          <path d="M359.6,428.5h17.1v15.7h-17.1v-15.7Z"/>
          <path d="M308.6,411.5c5.4,0,10.7,0,16.1,0v16.6h-16.1v-16.7h0Z"/>
          <path d="M273.7,717.6h-16.7v-15.6h16.5v15.7l.2-.2Z"/>
          <path d="M359.7,717.7v-15.8h16.6v15.6h-16.8l.2.2h0Z"/>
          <path d="M188.6,667.5c5.7,0,11.4,0,17.1,0,0,5.7,0,11.4,0,17.1-5.4-.4-10.8-.8-17.1-1.2v-15.9Z"/>
          <path d="M188.7,445.5v17.1c-4.4,0-8.9-.2-13.3,0-2.9.1-4.4-.6-4.2-3.8.2-4.4.3-8.9.4-13.3,5.7,0,11.4,0,17.1,0Z"/>
          <path d="M188.7,513.5v17.1c-5.7,0-11.4,0-17.1,0v-17.1h17.1Z"/>
          <path d="M444.7,616.6c-5.7,0-11.4,0-17.2-.1l.2.2v-17.2l-.2.2c5.7,0,11.4,0,17.2-.1v17.1h0Z"/>
          <path d="M444.7,479.6c-5.7,0-11.5-.1-17.2-.1l.2.2v-17.1l-.2.2c5.7,0,11.5,0,17.2-.1v17.1h0Z"/>
          <path d="M444.7,445.6h-17.1v-17.1h17.1v17.1Z"/>
        </g>
      </g>
    </g>
  </g>
</svg>