<?xml version="1.0" encoding="UTF-8"?>
<svg id="Layer_2" xmlns="http://www.w3.org/2000/svg" viewBox="0 0 603.13 800.35">
  <g id="Layer_1-2" data-name="Layer_1">
    <path d="M534.13,591.64h-28.22v22.96h27.43v21.93h28.11v21.11h25.93v64.93h15.75v77.79H0v-77.47h16.43v-64.93h25.94v-21.11h27.11v-21.93h27.84v-23.13h-28.32v-51.9h28.44v-26.95h32.94v-59.12h27.99v-167.94h-28.66v-63.1h-33.93v-24.93h-32.76V.04h137.33v64.4h44.13V.11h113.9v64.27h44.14V0h137.66v197.37h-32.54v25.11h-33.93v62.92h-28.78v168.12h27.52v59.11h32.93v26.93h28.75v52.07ZM200.13,253.74v229.08h-31.3v29.57h224.4v-29.93h-33.22v-228.9h33.29v-29.57h-224.4v29.75h31.22ZM131.42,184.4h341.68v-24.69h28.24V38.94h-60.01v63.38h-121.88v-63.29h-36.14v63.19h-121.89v-63.26h-59.54v120.88h29.54v24.55ZM77.74,691.38h416.49v-33.92h-26.76v-20.94h-29.79v-26.61H135.41v26.96h-30.48v20.84h-27.19v33.68ZM50.99,723.75v40.64h501.24v-40.64H50.99ZM127.71,576.43h347.57v-25.49H127.71v25.49Z"/>
  </g>
</svg>