<?xml version="1.0" encoding="UTF-8"?>
<svg xmlns="http://www.w3.org/2000/svg" version="1.1" viewBox="0 0 769.2 902.9">
  <!-- Generator: Adobe Illustrator 28.7.1, SVG Export Plug-In . SVG Version: 1.2.0 Build 142)  -->
  <g>
    <g id="Layer_2">
      <g id="Layer_1-2">
        <g>
          <path d="M690.4,635.7h-25.6v53h-28.1v53.9h-24.9v53.1h25.5v25.8c9.2.4,18,.8,27,1.3v25.9h27v26.7c11.5,0,22.6,0,33.7,0,12.8,0,25.7-.1,38.5-.4,3.5,0,4.2,1.3,4.1,4.4-.2,7.5,0,15,0,22.9h-289.4v-54.4h-26.5v53.9c-150.9,1.4-301.1,1.8-451.7-.7v-25.6h79.2v-25.7h-26.5v-26.2h-26.6v-54.5H0v-79.1h26.2v-132.7h26.1c.5-17.5,1-34.7,1.6-52.4h26.3v-27.7h26.3v-26.2h27.1v-26.9h26.1v-25.7h53v-27h131.7v-24.6h27.4v-54.7h-26.1v-25.8c-9.1-.5-17.8-.9-26.8-1.3v-26.8h-26v-26.3h-26.1v-26.9h-26.8V51.9h26.6c0-11.2.2-21.8,0-32.4-.1-4.3,1-5.8,5.5-5.7,14.6.3,29.3.1,44.3.1V0h83.1v25.8h25.1v26.8h26.8v26.2h26.1v106.4h134.1v27.3h52.3v26.2h25.5v26.9h27v26.7h26v26.3h26.8v105.8h-26.2v25.7h-26.2v26.5h-26.4v159.1h0ZM342.9,397.6v26.7h-130.5v26.9h-26.1v25.6h-53.6v27h-26.9v53h-25.9v213.2h26.7v26h26v53.1h27.1v26.2h238.6v-26.8h-27.6v-25.2h-105.6v-27.4h27.8v-26.3h26v-26h25.2v-80.7h-26v-24.3c-12.8-1-25-2-37.3-2.8-4.9-.3-9.9,0-15.2,0v-25.9h-104.7v-26.1h27.2v-26.2h130.6v26.5h25.4v26.6h27.6v27.3h27.1v130.3h27.1v-50.8h51.8v78.6h26.6v52h27.3v28.8c35.7-.5,71.1-1,106.4-1.5v-26.9h-26.5v-26.9h-53.2v-77.8h27.4v-53.9h26.1v-54.2h26.2v-78.8h-26.4v-25.9h-26.2v-26.5h-54.2v-27h-105.8v-52.7h-27v-27.1h-55.6ZM612,213.3h-134.5v25.6h-26.1v26.6h-25.8v-135.7h-27v-26h-26.9v-25.4h-53.2v-25.2h-27.1v105.8h27.4v27.1h26.1v26.9h27.1v53.2h26.8v25.9c8.4.4,16.4.7,25,1.1v105h27.2v26.8h54.8v25.9c61.6-.5,122.6-1.1,184.2-1.6v-26.6h26.8v-25.3h-26.8v-26.6h26.5v-53h-26.8v-25.7h-25v-52.4h-52.5v-26.5h0ZM318.7,51h52.7v-24.9h-52.7v24.9ZM422.4,795.9c.4,8.2.9,16.4,1.3,25.1h26.6v-25.1h-27.9,0Z"/>
          <path d="M531.1,264.5h80.2v27.5h25.6c.2.9.5,1.7.5,2.4,0,15.3,0,30.7,0,46,0,3.7-1.6,4.4-4.8,4.4-20.8,0-41.7.2-62.5.3-13,0-25.9,0-39.2,0v-80.6h0ZM559.1,291.8v27.6c9.2-.5,18-.9,26.8-1.3v-26.2h-26.8Z"/>
        </g>
      </g>
    </g>
  </g>
</svg>