<?xml version="1.0" encoding="UTF-8"?>
<svg id="Layer_2" xmlns="http://www.w3.org/2000/svg" viewBox="0 0 740.8 722.23">
  <g id="Layer_1-2" data-name="Layer_1">
    <g>
      <path d="M650.42,215.03h-18.83v-18.3h-18.84v-17.71h-18.1v-17.82h-20.84v-18.05h-18.99v-18.66h-18.93v-17.12h-19.7v16.72h-18.67v73.05h18.47v35.12h18.33v18.92h19.22v17.81h19.38v18.52h19.39v17.09h19.62c.28,6.27.55,12.03.83,18.26h18.34v18.39h18.02v18.04h19.04v17.86h18.86v18.03h18.03v38.08h17.78v35.88h18.01v127.66h-18.42v35.3h-18.03v18.6h-16.96v18.01h-18.92v17.98h-18.87v18.54h56.6v17H74.35c0-2.44,0-5.2,0-7.96s0-5.58,0-8.92h69.95v-17.7h-16.98v-18.67h-18.64v-17.38h-17.03v-18.52h-18.05v-18.77h-19.84v-17.27h-17.12v-19h-19.81v-35.67h18.67v17.93h17.55v18.39h19.84v18h18.17v17.61h16.99v18.76h36.05v17.79h39.8v18.29h35.21v18.02h242.27v-17.6h92.02v-18.01h41.13v-18.29h36.94v-18.12h18.97v-18.64h18v-36.01h18.93v-36.33h17.9v-55.83h-17.6v-36.13h-17.91v-36.21h-19.22v-18.86h-19.58v-16.89h-18.24v-19.08h-18.03v-17.93h-20.98v-18.01h-18.93v-17.03h-19.04v-18.93h-18.92v-18.18h-20.15v-17.82h-17.87v-36.42h-17.85v-89.36h17.52v-19.02h18.84v-17.63h36.76v17.49h19.79v19.73h19.16v17.24h19.09v17.04h20.4v17.78h18.54v-53.91h-17.68v-18.05h-18.41v-17.38h36.11v16.55h18.03v19.75h19.07v-36.81h-17.39v-18.02h-19.12v-17.79h-37.05v-16.88h-98.22v16.41c-11.77,0-22.89.08-33.99-.14-.96-.02-2.61-1.91-2.69-3.01-.31-4.47-.13-8.98-.13-14.13h36.87V0h115.89v16.14h37.6v18.02h18.09v17.48h19.06v35.55h17.78v55.56h-17.62v53.38s.17-.11.17-.11c-5.86,0-11.72,0-18.13,0v-34.73h-19.35v16.89h-17.43v18.41h17.79v18.61l.12-.18Z"/>
      <path d="M53.23,323.07c-5.41.26-10.82.52-16.42.79v-108.38h17.39v-108.62h18.99v35.32h17.9v34.8h16.92v-70.41h18.39v-53.92h17.69v35.6h19.98v36.91h19.23v36.07h18.51v17.86h16.54v-36.42h18.72v36.58h19.02v18h19.01v18h37.01v18.01h37.01v17.86h36.71v17.16h18.17v18.68h19.31v-35.81h-18.79c-.17-1.3-.4-2.22-.4-3.14-.02-15.66-.02-31.32.02-46.99,0-1.31.32-2.62.5-3.94l-.17.16h18.55v34.94h17v36.99h18.94v35.63h19.15v18.42h18.98v36.03h19.01v17.96h17.97v72.98h19.21v109.78h-18.91l.17.17c.11-4.49.31-8.97.32-13.46.03-19.98.02-39.96.02-60.45h-17.93v-54.56h-20.2v-36.13h-17.94v-18.46h-19.09v-17.13h-18.25v-18.76h-37.61v-17.86h-55.15v-18.19h-36.89v-17.67h-36.89v-18.78h-18.16v-17.51h-18.96v-18.07h-18.55v-17.94h-17.13v-18.23h-17.47c-.4-6.1-.77-11.69-1.18-17.83h-18.67v-35.95h-20v-35.8h-17.7v72.23h17.18v53.07h19.86v35.62h19.17v19.88h18.45v34.98h35.44v17.89h18.77v18.12h18.99v18.01h36.98v18.61h37.17v18.45h18.79v17.33h-37.08v-17.42h-37.54v-18.03h-36.59v-18.02h-19.03v-17.96h-18.62v-18.27h-16.75v-17.89h-17.64v-17.8h-19.9v-37.02h-19.89v-17.73h-17.53v-18.58h-19.06c0-4.94.03-9.41-.01-13.88-.02-2.73-1.03-4.27-4.2-4.06-3.95.26-7.93.06-12.33.06v-36.6h-18.11v73.84h17.41v36h16.99v35h19.02v36.91h16.77v16.73h-16.27v-15.71h-18.16v-19.94h-17.64v-35.05h-18.07v-36.65h-20.55c0,17.91,0,35.82,0,53.73,0,0,.13-.13.13-.13ZM274.52,234.13v17.18h18.08v18.61h37.76v17.11h36.94v-18.16h-18.99v-17.15h-36.96v-17.6h-36.82Z"/>
      <path d="M237.36,540.99h-35.11v-16.89h-37.53v-19.07h-19.27v-17.85h-18.74v-18.19h-18.36v-18.44h-16.73v-17.8h-17.92v-18.69h-19.11v-18.71h-19.05v37.85h17.48v36.09h20.26v17.94h17.97v36.38h16.76v17.53h18.97v19.02h37.02v36.91h37.83v17.2h73.56v18.9h165.9v17.5h-184.51v-18.31h-54.66v-18.1h-57.35v-17.08h-18.02v-18.03h-18.52v-18.07h-16.47v-18.65h-17.89v-18.27h-37.12v-18.8h-20.54v35.23H0v-53.14h36.29v-37.32h-19.33v-72.6h37.38c0-2.25,0-4.02,0-5.79,0-14.5.03-29-.06-43.49-.01-1.73-.68-3.45-1.05-5.17,0,0-.13.13-.13.13,6.27,0,12.55,0,19.27,0v35.97h18.79v37.15h16.2v35.85h19.72v18.1h16.84v18.84h20.02v18.12h19.44v18h35.68v18.65h18.13v17.29l.17-.17Z"/>
      <path d="M349.67,504.77h-74.85v-18.04h-37.11v-17.58h-18.83v-19.01h-16.38v-17.48h16.43v17.45h37v19h35.99v17.99h57.62v17.82l.12-.15Z"/>
      <path d="M404.62,197.09h-18.71v-90.45h18.23c0,1.98,0,3.9,0,5.81,0,26.45-.02,52.91,0,79.36,0,1.81.2,3.62.31,5.43,0,0,.17-.16.17-.16Z"/>
      <path d="M687.26,196.14h17.8v36.34h16.06v18.36h-52.64v-18.75l-.18.12h19.13v-36.18l-.17.11Z"/>
      <path d="M237.19,541.16h37.9v19.11h36.68v17.34h-37.17v-17.85h-37.23c0-6.59,0-12.68,0-18.77,0,0-.17.17-.17.17Z"/>
      <path d="M404.45,70.38c5.27,0,10.42-.19,15.53.15,1.12.07,3,2.03,3.02,3.16.23,10.48.14,20.97.14,31.86h-18.69v-35.17Z"/>
      <path d="M164.43,395.21c6.37.42,12.74.85,19.48,1.29v19.14l.05-.07c-6.21-.33-12.42-.66-19.36-1.03v-19.5l-.18.17Z"/>
      <path d="M349.54,504.91h18.2v18.63h-18.09c0-6.32,0-12.54,0-18.77,0,0-.12.14-.12.14Z"/>
      <path d="M440.73,52.5v-18.67c5.28,0,10.24-.19,15.17.14,1.14.08,3,1.91,3.09,3.04.35,4.75.15,9.54.15,15.36h-18.53l.13.12Z"/>
      <path d="M164.61,395.04h-19.71v-16.4h19.52c0,5.45,0,11.01,0,16.57,0,0,.18-.17.18-.17Z"/>
      <path d="M534.34,559.98v17.18h-17.7v-17c6.02,0,11.94,0,17.87,0,0,0-.17-.18-.17-.18Z"/>
      <path d="M668.48,232.09h-18.06c0-5.92,0-11.49,0-17.06,0,0-.12.18-.12.18h18v17l.18-.12Z"/>
      <path d="M440.6,52.38v17.18h-16.59v-17.07c5.61,0,11.16,0,16.72,0,0,0-.12-.11-.12-.11Z"/>
      <path d="M183.91,415.64c5.87-.35,11.75-.7,17.65-1.05v16.97h-16.63c-.33-5.56-.64-10.79-.96-16,0,0-.06.08-.06.08Z"/>
    </g>
  </g>
</svg>