<svg xmlns="http://www.w3.org/2000/svg" fill="currentColor" shape-rendering="crispEdges" viewBox="0 0 64 64"><path d="M38 12h7v1h-7zm-2 1h2v1h-2zm8 0h3v1h-3zm-9 1h1v1h-1zm11 0h2v1h-2zm-28 1h1v1h-1zm16 0h1v1h-1zm13 0h2v1h-2zm-29 1h1v1h-1zm15 0h1v1h-1zm6 0h2v1h-2zm5 0h2v1h-2zm4 0h1v1h-1zm-30 1h2v1h-2zm15 0h1v1h-1zm4 0h5v1h-5zm8 0h2v1h-2zm3 0h2v1h-2zm-34 1h1v1h-1zm3 0h1v1h-1zm2 0h1v1h-1zm13 0h1v1h-1zm5 0h3v1h-3zm4 0h2v1h-2zm5 0h4v1h-4zm-32 1h1v1h-1zm3 0h1v1h-1zm2 0h2v1h-2zm13 0h1v1h-1zm5 0h2v1h-2zm5 0h2v1h-2zm4 0h4v1h-4zm-32 1h2v1h-2zm3 0h1v1h-1zm3 0h1v1h-1zm3 0h1v1h-1zm9 0h1v1h-1zm5 0h2v1h-2zm6 0h2v1h-2zm3 0h3v1h-3zm-32 1h2v1h-2zm3 0h1v1h-1zm3 0h2v1h-2zm3 0h1v1h-1zm9 0h1v1h-1zm5 0h2v1h-2zm7 0h3v1h-3zm4 0h1v1h-1zm-34 1h1v1h-1zm2 0h3v1h-3zm5 0h4v1h-4zm11 0h1v1h-1zm5 0h2v1h-2zm8 0h1v1h-1zm3 0h1v1h-1zm-34 1h1v1h-1zm2 0h3v1h-3zm6 0h4v1h-4zm11 0h1v1h-1zm4 0h3v1h-3zm9 0h1v1h-1zm3 0h1v1h-1zm-36 1h2v1h-2zm4 0h2v1h-2zm6 0h5v1h-5zm10 0h1v1h-1zm4 0h3v1h-3zm10 0h1v1h-1zm2 0h1v1h-1zm-36 1h2v1h-2zm5 0h2v1h-2zm6 0h2v1h-2zm4 0h2v1h-2zm5 0h2v1h-2zm5 0h3v1h-3zm10 0h3v1h-3zm-35 1h3v1h-3zm6 0h1v1h-1zm6 0h2v1h-2zm5 0h2v1h-2zm4 0h1v1h-1zm6 0h2v1h-2zm-27 1h1v1h-1zm2 0h1v1h-1zm5 0h1v1h-1zm6 0h3v1h-3zm5 0h2v1h-2zm3 0h2v1h-2zm7 0h2v1h-2zm-28 1h1v1h-1zm2 0h2v1h-2zm5 0h2v1h-2zm8 0h8v1h-8zm14 0h2v1h-2zm-29 1h1v1h-1zm3 0h1v1h-1zm5 0h1v1h-1zm9 0h7v1h-7zm13 0h2v1h-2zm-29 1h1v1h-1zm2 0h2v1h-2zm6 0h2v1h-2zm11 0h6v1h-6zm11 0h2v1h-2zm-30 1h1v1h-1zm3 0h1v1h-1zm6 0h2v1h-2zm12 0h4v1h-4zm10 0h2v1h-2zm-31 1h2v1h-2zm4 0h1v1h-1zm6 0h2v1h-2zm12 0h4v1h-4zm10 0h2v1h-2zm-34 1h4v1h-4zm7 0h1v1h-1zm6 0h3v1h-3zm13 0h3v1h-3zm9 0h2v1h-2zm-35 1h1v1h-1zm2 0h3v1h-3zm6 0h1v1h-1zm7 0h3v1h-3zm11 0h3v1h-3zm10 0h2v1h-2zm-36 1h1v1h-1zm3 0h2v1h-2zm6 0h1v1h-1zm8 0h2v1h-2zm9 0h3v1h-3zm10 0h2v1h-2zm-36 1h2v1h-2zm4 0h2v1h-2zm6 0h1v1h-1zm18 0h1v1h-1zm9 0h2v1h-2zm-36 1h1v1h-1zm4 0h2v1h-2zm6 0h2v1h-2zm17 0h2v1h-2zm9 0h2v1h-2zm-36 1h2v1h-2zm5 0h2v1h-2zm6 0h3v1h-3zm16 0h2v1h-2zm10 0h2v1h-2zm-39 1h5v1h-5zm8 0h2v1h-2zm7 0h4v1h-4zm15 0h1v1h-1zm9 0h2v1h-2zm-39 1h1v1h-1zm2 0h3v1h-3zm7 0h3v1h-3zm10 0h1v1h-1zm11 0h1v1h-1zm9 0h2v1h-2zm-39 1h1v1h-1zm4 0h2v1h-2zm7 0h2v1h-2zm19 0h1v1h-1zm8 0h3v1h-3zm-37 1h1v1h-1zm4 0h2v1h-2zm8 0h2v1h-2zm17 0h1v1h-1zm8 0h3v1h-3zm-37 1h2v1h-2zm5 0h3v1h-3zm9 0h2v1h-2zm14 0h1v1h-1zm8 0h4v1h-4zm-35 1h2v1h-2zm5 0h2v1h-2zm30 0h4v1h-4zm-34 1h2v1h-2zm5 0h3v1h-3zm28 0h4v1h-4zm-32 1h2v1h-2zm7 0h4v1h-4zm24 0h5v1h-5zm-30 1h3v1h-3zm9 0h10v1H25zm19 0h6v1h-6zm-27 1h4v1h-4zm25 0h7v1h-7zm-24 1h5v1h-5zm19 0h11v1H37zm-18 1h28v1H19zm-4 1h35v1H15z"/></svg>