<?xml version="1.0" encoding="UTF-8"?>
<svg xmlns="http://www.w3.org/2000/svg" version="1.1" viewBox="0 0 204.7 177.4">
  <!-- Generator: Adobe Illustrator 28.7.1, SVG Export Plug-In . SVG Version: 1.2.0 Build 142)  -->
  <g>
    <g id="Layer_2">
      <g id="Layer_1-2">
        <g>
          <path d="M0,158.1c.9-.1,1.8-.2,2.6-.4.3,0,.7-.4.7-.7,0-8.7,0-17.3,0-26V46.5h3.1v-13.2h3.4v-10.1h3.3v-6.8h3.4v-6.4h3.6v-3.4h3.6v-3.4h6.6V.8C30.3.2,30.6,0,31.2,0,31.5,0,31.8,0,32,0h145.8c0,1.1,0,2.1.1,3.2h6.7v3.3c1,0,1.9,0,2.9.1v3.5h3.8v3.2h3.4v3.1h3.4v6.8h3.1v10.1h3.4v144.2h-23.6v-3.2h-6.4v-3.5h-20.9v3.5h-3.6v3.3h-39.5v-3.1h-22.5v3.2h-35.3v-3.2h-12.3v3.2H0v-19.3h0ZM134,160.8H3.1v13.6h20.5v-3.5h3.3v-3.3h83.1v3.3h3.4v3.5h20.7v-13.6h0ZM26.7,140.6v-70.6H9.6v70.6h17.1ZM127,49.9H33.5v13.6h13.8v6.6h6.8v-13.3h27.2v13.3h7.3v-5c0-1.6,0-1.6,1.5-1.6,11.8,0,23.6,0,35.3,0h1.4v-13.6h0ZM40.5,33.2h66.5v-6.7h3.6v-6.4h3.2v-3.8H47.1v3.3h-3.6v6.8h-3v6.9h0ZM103.5,127.2v-17H36.9v17s66.6,0,66.6,0ZM127,140.6v-70.7h-16.9v70.7h16.9ZM47.5,73.2v20.7h3.3v3.3h3.4v3.2h27.9v-3.3h2.9c.2-1.2.3-2.2.5-3.4h2.9v-20.7h-10.3v-13.1h-20.8v13.1h-9.8ZM140.7,73.2v67.4h57.8v-67.4h-57.8ZM113.5,26.4v9.9h-3.2v10.3h16.8v-10.1h3.4v-6.6h3.1v-6.7h3.4v-6.7h3.4v-3.1h3.1v-3.1h3.6v-3.3h10.2v-3.6h-26.5v3.1h-3.8v3.4h-3.4v6.5h-3.6v3.6h-3.1v6.7h-3.4ZM36.9,140.7h66.6v-10.4H36.9v10.4ZM103.4,46.7v-10.3H36.9v10.3h66.5,0ZM50.5,13.1h66.5v-3h3.6v-3.5h3.5v-3.4H56.9v3.3h-3.4v3.1h-3s0,3.4,0,3.4ZM37.2,20.1v-7h3.5v-3.1h3.3v-3.4h3.3v-3.1h-14.1v3h-6.5v3.1h-3.6c0,.9,0,1.7,0,2.4,0,.8.3,1.1,1.1,1.1,1.9,0,3.8,0,5.8,0v3.2h-8.5c-1.7,0-1.7,0-1.7,1.7,0,1.6,0,3.2,0,5h-3.4v6.5h-3.2v3.7h9.7v3h-9.9v10.3h14v-6.6h3.3v-13.4h3.4v-6.4h3.6,0ZM140.7,36.3v10.3h3.5v-6.7h3.4v-6.7h3.6v-6.5h3.6v-3.6h3.4v-3.1h3.1v-3.5h20v3.5h3.4v3.1h3.4v6.7h3.6v10h3.3v6.9h3.6v-10.6h-3.5v-9.8c-1.1-.1-2.1-.3-3.1-.4v-6.5h-3.6v-3.5h-3.4v-3.4h-6.2v-3h-14.3v3.3h-6.7v3.1h-3.4v3.5h-3.8v3.2h-3.4v6.7h-3.1v6.7h-3.3ZM201.6,50h-64.7v13.4h64.2v-3.5h-60.2v-7.1h60.8v-2.9h0ZM36.8,144v5.1c0,1.6,0,1.6,1.6,1.6,7.3,0,14.7,0,22,0,13.9,0,27.8,0,41.7,0,.3,0,.7,0,.9,0,.2,0,.5-.3.5-.5,0-2.1,0-4.2,0-6.2H36.8ZM6.4,50v13.4h23.7v-13.4s-23.7,0-23.7,0ZM95.6,83.3v13.4h-4.1v3.6h-3.3v3.4h-3.1v1.5c0,1.1.5,1.6,1.6,1.6h16.9v-23.5h-7.9ZM36.9,83.3v23.5h17.2v-3.2h-1.9c-.8,0-1.2-.4-1.1-1.2,0-.7,0-1.3,0-2.1h-3.4v-3.6h-3.5v-13.3h-7.2ZM26.8,154.1c0-3.2,0-6.3,0-9.4,0-.9-.5-.8-1.1-.8-5.1,0-10.1,0-15.2,0-.8,0-1,.3-1,1.1,0,3.9,0,7.8,0,11.6,0,.3,0,.5.1.7h13.9v-3.2h3.3,0ZM127.1,157.4c0-4.3,0-8.5,0-12.8,0-.2-.6-.6-.9-.6-4.3,0-8.6,0-12.8,0-1,0-2.5-.3-3,.2-.6.6-.3,2-.3,3.1,0,2.3,0,4.5,0,6.9h3.3v3.2h13.7,0ZM103.5,69.9h-7.9v10h7.9s0-10,0-10ZM36.9,69.9v10.1h7.1v-10.1h-7.1ZM153.7,153.9v3.4h20.7v-3.4h-20.7Z"/>
          <path d="M16.6,133.6v-6.3h6.3v6.3h-6.3Z"/>
          <path d="M16.6,77.2h6.3v6h-6.3v-6Z"/>
          <path d="M119.9,60h-6.4v-6.2h6.4v6.2Z"/>
          <path d="M120,127.3v6.3h-6.3v-6.3s6.3,0,6.3,0Z"/>
          <path d="M113.7,83.2v-6h6.5v6h-6.5Z"/>
          <path d="M74.4,79.9h-3.2v7h3.2v9.9h-13.2v-9.9h3.2v-7h-3.2v-9.8h3.2v-3.3h6.6v3.2h3.3v9.8Z"/>
          <path d="M144.2,77.1h50.6v59.8h-50.6v-59.8ZM157.2,100.4v3.3h23.8v-3.3h3v-13.6h-6.9v6.3h-13.6v-6.3h-6.3v3.3h-3.5v10.4h3.6,0Z"/>
          <path d="M22.8,60h-6.2v-6.2h6.2v6.2Z"/>
          <path d="M163.6,100.2v-3.2h13.5v3.2h-13.5Z"/>
        </g>
      </g>
    </g>
  </g>
</svg>