<?xml version="1.0" encoding="UTF-8"?>
<svg id="Layer_2" xmlns="http://www.w3.org/2000/svg" viewBox="0 0 662.14 687.42">
  <g id="Layer_1-2" data-name="Layer_1">
    <g>
      <path d="M73.63,687.42v-25.09h144.3v-21.8c8.84-.68,17.37-1.33,26.47-2.02.45-7.68.88-15.11,1.35-23.23h26.31v-50.75c7.64-.39,14.89-.76,22.72-1.16v-121.68h-23.99v-73.33c-9.48-.6-18.2-1.16-27.5-1.75.6-16.01,1.18-31.56,1.78-47.51-9.06-.59-17.6-1.14-26.62-1.72v-23.58h-23.73v96.74h-24.13v-119.45h-25.01v170.33h-23.58v-149h-23.96v26.89h-24.42v194.1h-24.82v-71.53h-22.96v-49.82h22.48v-96.92h25.01c.5-8.22.96-15.91,1.49-24.52h22.3v-24.72h98.08v24.24h50.26v23.75h24.29v26.64h25.64v-98.85h-23.05v-24.43h-25.51c-.49-9.24-.93-17.49-1.37-25.79h-26.33v71.92h-24.44v-119.67h-24.39v72.62h-23.64v-48.21h-25.75v72.82h-24.4v-73.44h-23.55v24.05h-25.66v73.67h-23.08c-.72,32.63-1.42,64.35-2.13,96.39H0v-142.11c6.9-.36,14.62-.77,23.1-1.22v-51.18c8.14-.47,15.54-.89,23.04-1.33.34-7.35.67-14.72,1.04-22.84h99.52v-24.5h73.18v24.65h26.02v24.02h23.85v22.64c8.61.6,16.79,1.17,25.22,1.75.17-1.13.39-1.92.39-2.71.26-28.14.5-56.29.74-84.43,0-.83-.03-1.67-.07-2.5-.38-7.7-.63-7.83-8.26-8.19-5.27-.25-10.53-.86-16.34-1.36v-22.8h-49.85v-24.03h-51.54v47.88h-23.56v-23.96h-25.8v-24.01h48.38V.58h77.84v25.38h49.16v23.76c8.03.57,15.71,1.11,23.82,1.68v20.4h24.01V26.63c16.45-.62,32.98-1.25,49.59-1.88V0h119.4v23.74h-49.12v48.42h-22.99V23.27h-23.64v25.61h-49.56v74.79h-23.96v73.11h24.03v-50.45h24.53v-22.3h25.12c.52-7.95,1-15.22,1.55-23.69h68.9v23.59h76.15v22.94h49.99v22.92c8.48.99,16.36,1.9,24.87,2.89v95.63c8.07.59,15.6,1.14,23.38,1.71v71.39h-24.82c-.71-23.48-1.4-46.73-2.12-70.65h-22.06v-72.68c-7.85-.63-14.92-1.19-22.95-1.83-.38-7.94-.77-15.96-1.2-24.82-15.83.55-31.53,1.09-48.17,1.67v-25.11h-52.64v24.77c-7.4-.33-14.27-.63-22.03-.97v-47.94h-25.16v23.42h-24.85v24.12h-24.32v48.42c4.17,0,8.95.03,13.72,0,10-.07,20-.42,29.99-.14,4.29.12,5.05-1.57,4.92-5.22-.2-5.49-.05-10.99-.05-16.88h75.27v22.26h46.83v25.09h25.94v72.74h27.77c-.51,8.48-.96,16-1.46,24.25h-24.45v49.09h23.86v123.3h-25.09v-73.15h-24.01v-171.29h-24.31c-.84-7.66-1.72-14.71-2.32-21.78-.28-3.23-1.35-4.67-4.89-4.49-5.95.29-11.93.08-18.36.08v74.59h-24.88v-96.25h-24.83v168.26h-23.89v-146.15h-25.32v146.31h-24.36v-146h-24.27v48.24h-25.01c-.17,1.57-.37,2.53-.36,3.49.29,63.32.62,126.65.81,189.97.01,4,2.55,3.85,4.87,3.93,6.13.19,12.26.07,19.46.07v124.5h23.66v24.75h50.65v23.07h98.98v24.97H73.63Z"/>
      <path d="M540.7,345.14v121.17h-25.98v-121.17h25.98Z"/>
      <path d="M540.15,96.38h-24.43c-.68-23.53-1.36-47.07-2.06-71.41h25.06v25.68h50.39c.26,5.19.61,10.61.78,16.04.22,6.99.16,7-6.66,7.01-12.49.01-24.99,0-37.48,0-1.77,0-3.55,0-5.6,0v22.68Z"/>
      <path d="M193.95,489.34h-23.36v-74.22c7.51.34,15.18.69,23.36,1.06v73.16Z"/>
      <path d="M415.63,416.45v49.48h-24.25v-49.48h24.25Z"/>
      <path d="M97.16,48.46c6.76.6,13.18,1.07,19.56,1.83,1.12.13,2.99,1.49,3,2.31.18,15.57.13,31.15.13,47.04h-22.69v-51.18Z"/>
      <path d="M588.85,75.09h24.98v45.86h-24.98v-45.86Z"/>
      <path d="M121.41,467.43h23.89v45.7h-23.89v-45.7Z"/>
      <path d="M218.69,51.74v22.55h-24.54v-22.55h24.54Z"/>
    </g>
  </g>
</svg>